<svg width="128" height="128" viewBox="0 0 128 128" fill="none" xmlns="http://www.w3.org/2000/svg">
<path d="M67.1774 56.9834L80.2811 47.2278" stroke="white" stroke-width="1.9037" stroke-linejoin="bevel"/>
<path d="M84.5126 39.4469H90.2192L87.1063 44.3268H88.6629L89.7004 44.9369L90.2192 45.5469L90.7381 47.3768V48.5969L90.2192 50.4269L89.1815 51.6469L87.6252 52.2568H86.0689L84.5126 51.6469L83.9937 51.0369L83.4748 49.8168" stroke="white" stroke-width="1.9037" stroke-linejoin="bevel"/>
<path d="M79.9856 67.2026L79.258 61.6767L77.1239 56.5274L73.729 52.1056L69.3049 48.7126L64.1528 46.5796L58.6238 45.8522L53.0949 46.5796L47.9431 48.7126L43.5186 52.1056L40.1243 56.5274L37.9902 61.6767L37.2619 67.2026L37.9902 72.7285L40.1243 77.8778L43.5186 82.2996L47.9431 85.6926L53.0949 87.8255L58.6238 88.553L64.1528 87.8255L69.3049 85.6926L73.729 82.2996L77.1239 77.8778L79.258 72.7285L79.9856 67.2026Z" stroke="white" stroke-width="2.62222" stroke-linejoin="bevel"/>
</svg>
