<?xml version="1.0" encoding="UTF-8"?>
<svg version="1.1" xmlns="http://www.w3.org/2000/svg" width="263" height="103">
<path d="M0 0 C86.79 0 173.58 0 263 0 C263 33.99 263 67.98 263 103 C176.21 103 89.42 103 0 103 C0 69.01 0 35.02 0 0 Z " fill="#FCFCFC" transform="translate(0,0)"/>
<path d="M0 0 C1.21861725 -0.00315216 2.4372345 -0.00630432 3.69277954 -0.009552 C5.03525834 -0.00776102 6.37773681 -0.00570977 7.72021484 -0.00341797 C9.09207171 -0.00409148 10.46392846 -0.0050619 11.83578491 -0.00631714 C14.71931081 -0.00779486 17.60280581 -0.00563917 20.48632812 -0.00097656 C24.16812956 0.00468868 27.84985759 0.0014627 31.53165627 -0.00454903 C34.36966494 -0.00818016 37.20765652 -0.00700382 40.04566574 -0.00442123 C42.05905963 -0.00343567 44.0724542 -0.0064572 46.08584595 -0.009552 C47.32337616 -0.00639984 48.56090637 -0.00324768 49.8359375 0 C50.91880035 0.00079559 52.00166321 0.00159119 53.11734009 0.00241089 C56.53161757 0.13837292 59.92351124 0.64616009 63.30615234 1.12939453 C63.30615234 17.95939453 63.30615234 34.78939453 63.30615234 52.12939453 C46.12621235 52.16950334 46.12621235 52.16950334 38.82763672 52.17822266 C33.83893781 52.18421059 28.85025718 52.19130956 23.86157227 52.20483398 C19.84157549 52.21566461 15.8215983 52.22167174 11.80158806 52.22427177 C10.26452259 52.22612571 8.72745825 52.22974572 7.19040108 52.23512459 C5.04479748 52.24233737 2.8992758 52.24338538 0.75366211 52.24291992 C-0.46989487 52.24514053 -1.69345184 52.24736115 -2.9540863 52.24964905 C-5.69384766 52.12939453 -5.69384766 52.12939453 -6.69384766 51.12939453 C-6.79231732 49.56940405 -6.82183383 48.00498909 -6.82324219 46.44189453 C-6.82639435 45.44416016 -6.82954651 44.44642578 -6.83279419 43.41845703 C-6.83076996 42.33306641 -6.82874573 41.24767578 -6.82666016 40.12939453 C-6.82761688 39.02337891 -6.82857361 37.91736328 -6.82955933 36.77783203 C-6.83024132 34.43408145 -6.8283857 32.090329 -6.82421875 29.74658203 C-6.81887079 26.14497666 -6.82416312 22.543496 -6.83056641 18.94189453 C-6.82990563 16.67106092 -6.82862447 14.40022739 -6.82666016 12.12939453 C-6.82868439 11.04400391 -6.83070862 9.95861328 -6.83279419 8.84033203 C-6.82964203 7.84259766 -6.82648987 6.84486328 -6.82324219 5.81689453 C-6.82244659 4.93388672 -6.821651 4.05087891 -6.8208313 3.14111328 C-6.55502505 -1.0698811 -3.55683107 0.00262482 0 0 Z " fill="#FAFAFA" transform="translate(115.69384765625,46.87060546875)"/>
<path d="M0 0 C0.69273598 1.31997692 1.36149915 2.65295179 2 4 C3.485 4.495 3.485 4.495 5 5 C6.92098779 12.39373 7.69065775 18.09220286 4 25 C0.37095137 29.90988933 -4.06005331 32.06805908 -10 33 C-15.71478182 32.95637571 -19.82874733 31.64240139 -24 27.6875 C-27.40616595 23.80046356 -28.82347861 20.8711267 -29.3125 15.6875 C-28.81852321 9.8585739 -27.36519566 5.65260527 -23.625 1.125 C-16.59856649 -4.56306522 -7.82719438 -4.27227717 0 0 Z " fill="#1D1D1D" transform="translate(237,51)"/>
<path d="M0 0 C1.21861725 -0.00315216 2.4372345 -0.00630432 3.69277954 -0.009552 C5.03525834 -0.00776102 6.37773681 -0.00570977 7.72021484 -0.00341797 C9.09207171 -0.00409148 10.46392846 -0.0050619 11.83578491 -0.00631714 C14.71931081 -0.00779486 17.60280581 -0.00563917 20.48632812 -0.00097656 C24.16812956 0.00468868 27.84985759 0.0014627 31.53165627 -0.00454903 C34.36966494 -0.00818016 37.20765652 -0.00700382 40.04566574 -0.00442123 C42.05905963 -0.00343567 44.0724542 -0.0064572 46.08584595 -0.009552 C47.32337616 -0.00639984 48.56090637 -0.00324768 49.8359375 0 C50.91880035 0.00079559 52.00166321 0.00159119 53.11734009 0.00241089 C56.53161757 0.13837292 59.92351124 0.64616009 63.30615234 1.12939453 C63.30615234 17.95939453 63.30615234 34.78939453 63.30615234 52.12939453 C46.12621235 52.16950334 46.12621235 52.16950334 38.82763672 52.17822266 C33.83893781 52.18421059 28.85025718 52.19130956 23.86157227 52.20483398 C19.84157549 52.21566461 15.8215983 52.22167174 11.80158806 52.22427177 C10.26452259 52.22612571 8.72745825 52.22974572 7.19040108 52.23512459 C5.04479748 52.24233737 2.8992758 52.24338538 0.75366211 52.24291992 C-0.46989487 52.24514053 -1.69345184 52.24736115 -2.9540863 52.24964905 C-5.69384766 52.12939453 -5.69384766 52.12939453 -6.69384766 51.12939453 C-6.79231732 49.56940405 -6.82183383 48.00498909 -6.82324219 46.44189453 C-6.82639435 45.44416016 -6.82954651 44.44642578 -6.83279419 43.41845703 C-6.83076996 42.33306641 -6.82874573 41.24767578 -6.82666016 40.12939453 C-6.82761688 39.02337891 -6.82857361 37.91736328 -6.82955933 36.77783203 C-6.83024132 34.43408145 -6.8283857 32.090329 -6.82421875 29.74658203 C-6.81887079 26.14497666 -6.82416312 22.543496 -6.83056641 18.94189453 C-6.82990563 16.67106092 -6.82862447 14.40022739 -6.82666016 12.12939453 C-6.82868439 11.04400391 -6.83070862 9.95861328 -6.83279419 8.84033203 C-6.82964203 7.84259766 -6.82648987 6.84486328 -6.82324219 5.81689453 C-6.82244659 4.93388672 -6.821651 4.05087891 -6.8208313 3.14111328 C-6.55502505 -1.0698811 -3.55683107 0.00262482 0 0 Z M-4.69384766 3.12939453 C-4.69384766 18.30939453 -4.69384766 33.48939453 -4.69384766 49.12939453 C17.41615234 49.12939453 39.52615234 49.12939453 62.30615234 49.12939453 C62.30615234 33.94939453 62.30615234 18.76939453 62.30615234 3.12939453 C40.19615234 3.12939453 18.08615234 3.12939453 -4.69384766 3.12939453 Z " fill="#383838" transform="translate(115.69384765625,46.87060546875)"/>
<path d="M0 0 C2.45628016 0.95081813 4.86485897 1.93373119 7.23046875 3.09375 C8.02066406 3.4753125 8.81085938 3.856875 9.625 4.25 C10.38039062 4.62640625 11.13578125 5.0028125 11.9140625 5.390625 C12.60242188 5.59171875 13.29078125 5.7928125 14 6 C14.99 5.34 15.98 4.68 17 4 C20.14903545 3.75390434 20.14903545 3.75390434 24.11833191 3.75949097 C25.2124853 3.75692769 25.2124853 3.75692769 26.3287428 3.75431263 C28.77940095 3.75101145 31.22978689 3.76203164 33.68041992 3.77294922 C35.43453464 3.7735132 37.18864984 3.77319703 38.94276428 3.77206421 C43.71107076 3.77148917 48.4792771 3.78326785 53.24756026 3.79721212 C58.22837428 3.80969439 63.20919046 3.810888 68.1900177 3.81326294 C77.62475368 3.81948508 87.05944344 3.83590582 96.49415904 3.85596192 C107.23404199 3.87829809 117.97392711 3.8893086 128.71382749 3.89935279 C150.80924415 3.92027142 172.90461916 3.95546164 195 4 C195 4.33 195 4.66 195 5 C193.63306676 5.00634791 193.63306676 5.00634791 192.23851871 5.01282406 C170.09831907 5.11598162 147.95815213 5.2245967 125.81800938 5.33933926 C115.11135021 5.39469454 104.40468772 5.44818026 93.69799805 5.49731445 C84.36961822 5.54012812 75.04126317 5.58639888 65.71292156 5.63687855 C60.77042504 5.66350226 55.8279335 5.68835582 50.8854084 5.70907402 C46.23896356 5.72860561 41.59256597 5.75273875 36.94616318 5.78049088 C35.23566861 5.78987981 33.52516366 5.7975484 31.8146534 5.80341911 C29.48966957 5.81164915 27.16480137 5.82591674 24.83985901 5.84178162 C23.53552194 5.84823417 22.23118486 5.85468672 20.88732243 5.8613348 C18.10523549 5.6706403 18.10523549 5.6706403 17 7 C20.3 8.65 23.6 10.3 27 12 C27 12.99 27 13.98 27 15 C23.86880046 14.05335828 21.21016265 13.13327388 18.4375 11.375 C15.70015326 9.83085568 14.09018267 9.7351272 11 10 C11 10.66 11 11.32 11 12 C14.3 13.65 17.6 15.3 21 17 C21 17.66 21 18.32 21 19 C16.74537811 18.46817226 13.62614452 16.84471666 9.96484375 14.7421875 C7.57049574 13.83776181 6.37484825 14.1643073 4 15 C6.72478774 18.36591427 10.06856792 19.44226276 14 21 C14 21.66 14 22.32 14 23 C9.59724473 22.43190255 6.16100889 20.68686912 2.28125 18.64453125 C-1.82085581 17.48554587 -4.61805993 19.79294092 -8.19921875 21.734375 C-9.36400912 22.4027246 -10.52669594 23.07475062 -11.6875 23.75 C-12.30254395 24.10416992 -12.91758789 24.45833984 -13.55126953 24.82324219 C-17.18560049 26.9229937 -20.78807711 29.07004066 -24.375 31.25 C-35.55122951 38 -35.55122951 38 -39 38 C-39 37.34 -39 36.68 -39 36 C-38.29504395 35.60731934 -37.59008789 35.21463867 -36.86376953 34.81005859 C-33.6165818 33.00003733 -30.37078565 31.18753423 -27.125 29.375 C-26.01640625 28.75753906 -24.9078125 28.14007813 -23.765625 27.50390625 C-17.10442918 23.78147329 -10.52176063 19.9618172 -4 16 C-7.3 14.35 -10.6 12.7 -14 11 C-14 10.34 -14 9.68 -14 9 C-9.55853306 9.57309251 -6.02793853 11.34410645 -2.0859375 13.35546875 C-1.05339844 13.67451172 -1.05339844 13.67451172 0 14 C0.99 13.34 1.98 12.68 3 12 C-0.3 10.35 -3.6 8.7 -7 7 C-7 6.01 -7 5.02 -7 4 C-4.10452731 5.14064076 -1.30670599 6.33426676 1.5 7.6875 C5.05786734 9.02170025 6.47145949 9.17618017 10 8 C7.99006295 5.99006295 6.40788768 5.10059081 3.875 3.875 C3.15054688 3.52179687 2.42609375 3.16859375 1.6796875 2.8046875 C0.84824219 2.40636719 0.84824219 2.40636719 0 2 C0 1.34 0 0.68 0 0 Z " fill="#0F0F0F" transform="translate(68,28)"/>
<path d="M0 0 C8.57075848 -0.06942626 17.14140001 -0.12277341 25.71236992 -0.15543652 C29.69197374 -0.17111101 33.67138559 -0.19238138 37.65087891 -0.22631836 C41.48934956 -0.25884887 45.32763524 -0.27683957 49.16623306 -0.28463173 C50.63272134 -0.29018666 52.09919918 -0.30103379 53.56560898 -0.31719017 C55.61541591 -0.33888161 57.66445275 -0.34197055 59.71435547 -0.34057617 C60.88239716 -0.34723801 62.05043884 -0.35389984 63.25387573 -0.36076355 C64.16009674 -0.24171158 65.06631775 -0.12265961 66 0 C66.99 1.485 66.99 1.485 68 3 C45.56 3 23.12 3 0 3 C0 2.01 0 1.02 0 0 Z " fill="#5C5C5C" transform="translate(111,96)"/>
<path d="M0 0 C1.1055189 0.93590504 2.20935453 1.87379858 3.3125 2.8125 C3.92738281 3.33457031 4.54226562 3.85664062 5.17578125 4.39453125 C6.07876953 5.18923828 6.07876953 5.18923828 7 6 C7.59167969 6.47824219 8.18335938 6.95648438 8.79296875 7.44921875 C10 9 10 9 9.89453125 10.94921875 C8.82829993 13.39363554 7.55583988 14.9121543 5.6875 16.8125 C5.09324219 17.43769531 4.49898437 18.06289062 3.88671875 18.70703125 C2 20 2 20 -0.23046875 19.69921875 C-0.81441406 19.46847656 -1.39835938 19.23773438 -2 19 C-3.93012632 12.58604177 -4.09029246 8.38700473 -2 2 C-1.34 2 -0.68 2 0 2 C0 1.34 0 0.68 0 0 Z " fill="#F6F6F6" transform="translate(214,55)"/>
<path d="M0 0 C0.33 0 0.66 0 1 0 C1 1.65 1 3.3 1 5 C2.19625 4.835 3.3925 4.67 4.625 4.5 C13.05935005 3.56433518 21.64966732 3.40342653 30 5 C30 5.66 30 6.32 30 7 C20.76 7 11.52 7 2 7 C1.67 8.65 1.34 10.3 1 12 C0.34 12 -0.32 12 -1 12 C-1 10.35 -1 8.7 -1 7 C-3.31 7 -5.62 7 -8 7 C-8 11.95 -8 16.9 -8 22 C-8.99 21.67 -9.98 21.34 -11 21 C-11 16.05 -11 11.1 -11 6 C-6.64467851 3.82233925 -5.53374042 3.96960445 -1 5 C-0.67 3.35 -0.34 1.7 0 0 Z " fill="#222222" transform="translate(134,67)"/>
<path d="M0 0 C0.33 0.66 0.66 1.32 1 2 C1.66 2 2.32 2 3 2 C3 2.66 3 3.32 3 4 C3.598125 4.268125 4.19625 4.53625 4.8125 4.8125 C6.97224808 5.98493467 8.35790256 7.19369282 10 9 C9 12 9 12 5.875 13.75 C1.171488 15.59470389 -2.84320984 14.9401393 -7.4375 12.9375 C-7.953125 12.628125 -8.46875 12.31875 -9 12 C-8.45015228 8.12488273 -6.72444669 6.40423494 -3.9375 3.75 C-3.20402344 3.04359375 -2.47054687 2.3371875 -1.71484375 1.609375 C-1.14894531 1.07828125 -0.58304688 0.5471875 0 0 Z " fill="#F5F5F5" transform="translate(226,67)"/>
<path d="M0 0 C12.54 0 25.08 0 38 0 C37 5 37 5 35 8 C32.36034793 9.61785127 31.15987325 10 28 10 C28 9.34 28 8.68 28 8 C26.68 8 25.36 8 24 8 C23.67 6.02 23.34 4.04 23 2 C15.41 2 7.82 2 0 2 C0 1.34 0 0.68 0 0 Z " fill="#353535" transform="translate(0,31)"/>
<path d="M0 0 C-1.39750048 3.15835107 -3.05198234 5.32272825 -5.5 7.75 C-6.1084375 8.36359375 -6.716875 8.9771875 -7.34375 9.609375 C-9 11 -9 11 -11 11 C-12.69140625 9.390625 -12.69140625 9.390625 -14.5625 7.25 C-15.18253906 6.55390625 -15.80257812 5.8578125 -16.44140625 5.140625 C-17.98531094 3.02017445 -18.57896851 1.56079427 -19 -1 C-12.4817972 -3.84126789 -6.18882664 -3.41645633 0 0 Z " fill="#F8F8F8" transform="translate(236,53)"/>
<path d="M0 0 C2.21934455 3.32901683 2.27129898 4.48793637 2.25 8.375 C2.25515625 9.31085938 2.2603125 10.24671875 2.265625 11.2109375 C1.98635261 14.14329762 1.22149016 16.33404925 0 19 C-3.21524305 17.59155282 -5.32183868 15.89655214 -7.75 13.375 C-8.36359375 12.74335937 -8.9771875 12.11171875 -9.609375 11.4609375 C-10.06828125 10.97882813 -10.5271875 10.49671875 -11 10 C-10.06409496 8.8944811 -9.12620142 7.79064547 -8.1875 6.6875 C-7.66542969 6.07261719 -7.14335937 5.45773438 -6.60546875 4.82421875 C-2.35974304 0 -2.35974304 0 0 0 Z " fill="#FBFBFB" transform="translate(239,56)"/>
<path d="M0 0 C0.33 0.66 0.66 1.32 1 2 C1.5775 2.268125 2.155 2.53625 2.75 2.8125 C5.75302926 4.39743211 7.73980783 6.48867536 10 9 C10 9.66 10 10.32 10 11 C10.81404297 10.25943359 10.81404297 10.25943359 11.64453125 9.50390625 C12.35996094 8.86324219 13.07539063 8.22257812 13.8125 7.5625 C14.52019531 6.92441406 15.22789062 6.28632812 15.95703125 5.62890625 C18 4 18 4 21 3 C19.33248852 6.94139078 16.77289351 9.7892812 14 13 C14.5775 13.55429688 15.155 14.10859375 15.75 14.6796875 C16.86375 15.76636719 16.86375 15.76636719 18 16.875 C18.7425 17.59429687 19.485 18.31359375 20.25 19.0546875 C22 21 22 21 22 23 C22.66 23 23.32 23 24 23 C24 23.99 24 24.98 24 26 C19.09093646 28.74142509 14.75296937 30.88719668 9 31 C7.0625 29.5625 7.0625 29.5625 6 28 C7.010625 28.061875 8.02125 28.12375 9.0625 28.1875 C13.55499372 27.97357173 16.01085961 26.95386468 20 25 C18.58845234 21.58875982 16.93778777 20.1543777 14 18 C14 17.34 14 16.68 14 16 C10.88742431 16 8.89234315 16.17361624 6 17 C6.66 16.01 7.32 15.02 8 14 C7.75716548 10.14598124 5.63976137 8.32358226 2.9375 5.75 C2.20402344 5.04359375 1.47054687 4.3371875 0.71484375 3.609375 C0.14894531 3.07828125 -0.41695312 2.5471875 -1 2 C-0.67 1.34 -0.34 0.68 0 0 Z " fill="#171717" transform="translate(215,53)"/>
<path d="M0 0 C0 16.5 0 33 0 50 C-6.93 50 -13.86 50 -21 50 C-21 49.67 -21 49.34 -21 49 C-14.73 48.67 -8.46 48.34 -2 48 C-1.67 32.82 -1.34 17.64 -1 2 C-9.91 2 -18.82 2 -28 2 C-28 1.34 -28 0.68 -28 0 C-18.36550983 -0.91291277 -9.59951547 -1.37135935 0 0 Z " fill="#000000" transform="translate(179,48)"/>
<path d="M0 0 C0.33 0 0.66 0 1 0 C2.07483628 5.22913428 2.12930634 10.24506799 2.09765625 15.5546875 C2.09553383 16.90700974 2.09553383 16.90700974 2.09336853 18.28665161 C2.0877974 21.149469 2.07525026 24.01220648 2.0625 26.875 C2.05748127 28.82291553 2.05291901 30.7708323 2.04882812 32.71875 C2.03783742 37.47919718 2.02059277 42.23958507 2 47 C2.66 47.33 3.32 47.66 4 48 C2.515 48.495 2.515 48.495 1 49 C0 48 0 48 -0.12025452 46.05747986 C-0.11803391 45.20698563 -0.11581329 44.35649139 -0.11352539 43.48022461 C-0.11344986 42.51930405 -0.11337433 41.55838348 -0.11329651 40.56834412 C-0.10813522 39.523564 -0.10297394 38.47878387 -0.09765625 37.40234375 C-0.0962413 36.33834854 -0.09482635 35.27435333 -0.09336853 34.17811584 C-0.08775064 30.76454917 -0.07519511 27.351047 -0.0625 23.9375 C-0.05748731 21.62955824 -0.052924 19.32161545 -0.04882812 17.01367188 C-0.0377754 11.34242574 -0.02101987 5.67121747 0 0 Z " fill="#1F1F1F" transform="translate(109,50)"/>
<path d="M0 0 C4.0780139 1.57858603 8.04132488 3.36692944 12.01171875 5.1953125 C13.95149665 6.12505183 13.95149665 6.12505183 16 6 C16 6.66 16 7.32 16 8 C16.7734375 8.1546875 16.7734375 8.1546875 17.5625 8.3125 C20.86026435 9.24263866 23.86633332 10.61395512 27 12 C27 12.99 27 13.98 27 15 C23.89014034 14.05980987 21.27752344 13.18501563 18.5625 11.375 C15.25106212 9.5981309 12.70035266 9.7823322 9 10 C9.33 9.01 9.66 8.02 10 7 C6.7 5.35 3.4 3.7 0 2 C0 1.34 0 0.68 0 0 Z " fill="#171717" transform="translate(68,28)"/>
<path d="M0 0 C0 0.66 0 1.32 0 2 C-8.58 2 -17.16 2 -26 2 C-26 1.34 -26 0.68 -26 0 C-6.98267327 -1.8019802 -6.98267327 -1.8019802 0 0 Z " fill="#1D1D1D" transform="translate(177,48)"/>
<path d="M0 0 C10.56 0 21.12 0 32 0 C32 0.33 32 0.66 32 1 C30.85402344 1.06058594 29.70804688 1.12117188 28.52734375 1.18359375 C26.99738703 1.26806989 25.46743959 1.35271427 23.9375 1.4375 C22.80924805 1.49647461 22.80924805 1.49647461 21.65820312 1.55664062 C17.05510909 1.81568921 12.56563911 2.3351011 8 3 C5.3206052 3.10751986 2.68367951 3.0470821 0 3 C0 2.01 0 1.02 0 0 Z " fill="#4D4D4D" transform="translate(111,96)"/>
<path d="M0 0 C0.66 0 1.32 0 2 0 C1.67 5.94 1.34 11.88 1 18 C0.01 17.67 -0.98 17.34 -2 17 C-2.05383848 14.54137599 -2.09359038 12.0839245 -2.125 9.625 C-2.14175781 8.92632812 -2.15851563 8.22765625 -2.17578125 7.5078125 C-2.19344267 5.67102514 -2.10303261 3.83398037 -2 2 C-1.34 1.34 -0.68 0.68 0 0 Z " fill="#2C2C2C" transform="translate(125,71)"/>
<path d="M0 0 C0.33 0 0.66 0 1 0 C1 1.65 1 3.3 1 5 C2.98 5 4.96 5 7 5 C4 7 4 7 2 7 C1.67 8.65 1.34 10.3 1 12 C0.34 12 -0.32 12 -1 12 C-1 10.35 -1 8.7 -1 7 C-2.98 7 -4.96 7 -7 7 C-7 6.34 -7 5.68 -7 5 C-5.02 5 -3.04 5 -1 5 C-0.67 3.35 -0.34 1.7 0 0 Z " fill="#191919" transform="translate(134,67)"/>
<path d="M0 0 C0.33 0 0.66 0 1 0 C1 7.26 1 14.52 1 22 C1.66 22.33 2.32 22.66 3 23 C2.01 23.33 1.02 23.66 0 24 C-1.91226766 22.08773234 -1.13255375 19.29846144 -1.13671875 16.7578125 C-1.13285156 15.93023437 -1.12898438 15.10265625 -1.125 14.25 C-1.12886719 13.43789062 -1.13273437 12.62578125 -1.13671875 11.7890625 C-1.1301066 7.72920426 -1.01427999 3.96052186 0 0 Z " fill="#111111" transform="translate(110,75)"/>
<path d="M0 0 C3.63 0 7.26 0 11 0 C10.34 1.32 9.68 2.64 9 4 C6.0625 4.875 6.0625 4.875 3 5 C2.01 4.34 1.02 3.68 0 3 C0 2.01 0 1.02 0 0 Z " fill="#EAEAEA" transform="translate(25,33)"/>
<path d="M0 0 C0.99 0.33 1.98 0.66 3 1 C3 1.99 3 2.98 3 4 C-1.90906354 6.74142509 -6.24703063 8.88719668 -12 9 C-13.9375 7.5625 -13.9375 7.5625 -15 6 C-13.989375 6.061875 -12.97875 6.12375 -11.9375 6.1875 C-7.36778163 5.96989436 -4.99306395 5.15625453 -1 3 C-0.67 2.01 -0.34 1.02 0 0 Z " fill="#0F0F0F" transform="translate(236,75)"/>
<path d="M0 0 C0.66 0 1.32 0 2 0 C3.76596969 4.97682367 2.16191414 9.39045619 0 14 C-0.99 14.495 -0.99 14.495 -2 15 C-2.66 14.34 -3.32 13.68 -4 13 C-3.34 13 -2.68 13 -2 13 C-1.34 8.71 -0.68 4.42 0 0 Z " fill="#292929" transform="translate(241,62)"/>
<path d="M0 0 C-0.33 0.66 -0.66 1.32 -1 2 C-4.0625 2.625 -4.0625 2.625 -7 3 C-7.33 3.99 -7.66 4.98 -8 6 C-8.33 5.01 -8.66 4.02 -9 3 C-7 0 -7 0 -5.0625 -0.75 C-3 -1 -3 -1 0 0 Z M-11 4 C-10.34 4.33 -9.68 4.66 -9 5 C-9.33 5.99 -9.66 6.98 -10 8 C-12.0625 8.6875 -12.0625 8.6875 -14 9 C-12.125 5.125 -12.125 5.125 -11 4 Z " fill="#292929" transform="translate(224,49)"/>
<path d="M0 0 C1.79244141 0.01740234 1.79244141 0.01740234 3.62109375 0.03515625 C5.41740234 0.04869141 5.41740234 0.04869141 7.25 0.0625 C8.17683594 0.07410156 9.10367188 0.08570313 10.05859375 0.09765625 C10.05859375 0.42765625 10.05859375 0.75765625 10.05859375 1.09765625 C7.74859375 1.09765625 5.43859375 1.09765625 3.05859375 1.09765625 C3.05859375 1.75765625 3.05859375 2.41765625 3.05859375 3.09765625 C1.40859375 3.09765625 -0.24140625 3.09765625 -1.94140625 3.09765625 C-1.94140625 5.07765625 -1.94140625 7.05765625 -1.94140625 9.09765625 C-2.27140625 9.09765625 -2.60140625 9.09765625 -2.94140625 9.09765625 C-3.8203125 2.9453125 -3.8203125 2.9453125 -3.94140625 1.09765625 C-2.94140625 0.09765625 -2.94140625 0.09765625 0 0 Z " fill="#545454" transform="translate(112.94140625,46.90234375)"/>
<path d="M0 0 C0.33 0 0.66 0 1 0 C0.52060632 4.71403788 0.03165952 8.66579301 -2 13 C-2.33 13 -2.66 13 -3 13 C-3.31563182 7.73946963 -2.66590937 4.55426184 0 0 Z " fill="#161616" transform="translate(211,57)"/>
<path d="M0 0 C1.4835001 0.42257276 2.96176424 0.86356322 4.4375 1.3125 C5.67306641 1.67794922 5.67306641 1.67794922 6.93359375 2.05078125 C7.61550781 2.36402344 8.29742187 2.67726562 9 3 C9.33 3.99 9.66 4.98 10 6 C6.44219804 5.39009109 3.3171411 4.4216319 0 3 C0 2.01 0 1.02 0 0 Z " fill="#1C1C1C" transform="translate(79,41)"/>
<path d="M0 0 C3.3 0.33 6.6 0.66 10 1 C10 1.66 10 2.32 10 3 C7.36 3 4.72 3 2 3 C2 2.34 2 1.68 2 1 C1.34 0.67 0.68 0.34 0 0 Z " fill="#353535" transform="translate(125,47)"/>
<path d="M0 0 C0.66 0 1.32 0 2 0 C1.67 1.65 1.34 3.3 1 5 C0.67 5 0.34 5 0 5 C-0.33 6.98 -0.66 8.96 -1 11 C-1.33 11 -1.66 11 -2 11 C-2.05399736 9.54207116 -2.09279177 8.08357288 -2.125 6.625 C-2.15980469 5.40683594 -2.15980469 5.40683594 -2.1953125 4.1640625 C-2 2 -2 2 0 0 Z " fill="#565656" transform="translate(125,71)"/>
<path d="M0 0 C0 0.99 0 1.98 0 3 C-3.465 4.485 -3.465 4.485 -7 6 C-7 5.01 -7 4.02 -7 3 C-2.77777778 0 -2.77777778 0 0 0 Z " fill="#2B2B2B" transform="translate(62,46)"/>
<path d="M0 0 C0.99 0.33 1.98 0.66 3 1 C3 2.65 3 4.3 3 6 C0.525 5.01 0.525 5.01 -2 4 C-1.34 2.68 -0.68 1.36 0 0 Z " fill="#323232" transform="translate(69,41)"/>
<path d="M0 0 C0 0.99 0 1.98 0 3 C-2.3125 4.75 -2.3125 4.75 -5 6 C-5.99 5.67 -6.98 5.34 -8 5 C-4.04 2.525 -4.04 2.525 0 0 Z " fill="#111111" transform="translate(54,50)"/>
<path d="M0 0 C0.66 0 1.32 0 2 0 C1.34 1.98 0.68 3.96 0 6 C-1.65 6.33 -3.3 6.66 -5 7 C-4.360625 6.21625 -3.72125 5.4325 -3.0625 4.625 C-1.01857687 2.20460719 -1.01857687 2.20460719 0 0 Z " fill="#000000" transform="translate(36,32)"/>
<path d="M0 0 C-1.15173355 2.46800047 -2.04783565 4.04783565 -4 6 C-4.99 5.67 -5.98 5.34 -7 5 C-2.25 0 -2.25 0 0 0 Z " fill="#0E0E0E" transform="translate(236,56)"/>
</svg>
