<?xml version="1.0" encoding="UTF-8"?>
<svg version="1.1" xmlns="http://www.w3.org/2000/svg" width="248" height="103">
<path d="M0 0 C81.84 0 163.68 0 248 0 C248 33.99 248 67.98 248 103 C166.16 103 84.32 103 0 103 C0 69.01 0 35.02 0 0 Z " fill="#FEFEFE" transform="translate(0,0)"/>
<path d="M0 0 C8.97920777 -0.02312566 17.95840537 -0.04091623 26.93763638 -0.05181217 C31.10662828 -0.05704051 35.27559987 -0.06413726 39.44458008 -0.07543945 C43.46457686 -0.08627008 47.48455405 -0.09227721 51.50456429 -0.09487724 C53.04162975 -0.09673118 54.57869409 -0.10035119 56.11575127 -0.10573006 C58.26135487 -0.11294284 60.40687655 -0.11399084 62.55249023 -0.11352539 C63.77604721 -0.115746 64.99960419 -0.11796661 66.26023865 -0.12025452 C69 0 69 0 70 1 C70.09333705 2.59610982 70.11745372 4.19633428 70.11352539 5.79516602 C70.11341209 7.32664024 70.11341209 7.32664024 70.11329651 8.88905334 C70.10813522 9.9994548 70.10297394 11.10985626 70.09765625 12.25390625 C70.0962413 13.38448959 70.09482635 14.51507294 70.09336853 15.67991638 C70.08775019 19.30747065 70.07519458 22.93496424 70.0625 26.5625 C70.05748736 29.01497307 70.05292405 31.4674471 70.04882812 33.91992188 C70.0377748 39.94663545 70.02101884 45.97331339 70 52 C60.89040835 52.02312545 51.78082674 52.04091612 42.6712122 52.05181217 C38.44168629 52.05704056 34.2121804 52.0641374 29.98266602 52.07543945 C25.90431457 52.08626991 21.82598243 52.09227717 17.74761772 52.09487724 C16.18822361 52.09673121 14.6288306 52.10035127 13.06944466 52.10573006 C10.89270838 52.11294262 8.71605286 52.11399085 6.53930664 52.11352539 C4.67732384 52.11685631 4.67732384 52.11685631 2.77772522 52.12025452 C0 52 0 52 -1 51 C-1.0983867 49.47595193 -1.12798534 47.94738587 -1.12939453 46.42016602 C-1.13254669 45.44568008 -1.13569885 44.47119415 -1.13894653 43.46717834 C-1.1369223 42.40679855 -1.13489807 41.34641876 -1.1328125 40.25390625 C-1.13376923 39.17245834 -1.13472595 38.09101044 -1.13571167 36.97679138 C-1.13639371 34.68431541 -1.13453777 32.39183752 -1.13037109 30.09936523 C-1.12502836 26.58117345 -1.13031264 23.06310963 -1.13671875 19.54492188 C-1.13605787 17.32291638 -1.13477651 15.10091097 -1.1328125 12.87890625 C-1.13483673 11.82055069 -1.13686096 10.76219513 -1.13894653 9.67176819 C-1.13579437 8.6941301 -1.13264221 7.716492 -1.12939453 6.70922852 C-1.12859894 5.84620621 -1.12780334 4.9831839 -1.12698364 4.0940094 C-1 2 -1 2 0 0 Z " fill="#FAFAFA" transform="translate(106,45)"/>
<path d="M0 0 C3.97984696 0.06018672 6.70832387 1.01388258 10.0625 3.25 C11.4375 5.4375 11.4375 5.4375 12.0625 7.25 C12.7225 7.25 13.3825 7.25 14.0625 7.25 C17.2294601 12.00044014 17.6081117 17.24004212 16.59375 22.8359375 C15.30247931 27.17292274 15.30247931 27.17292274 14.0625 29.25 C12.7388848 29.93575873 11.40590669 30.60387254 10.0625 31.25 C9.7325 32.24 9.4025 33.23 9.0625 34.25 C1.68428 36.04283851 -3.62378168 36.40814639 -10.9375 34.25 C-10.9375 33.59 -10.9375 32.93 -10.9375 32.25 C-11.9275 31.92 -12.9175 31.59 -13.9375 31.25 C-17.76888798 28.11091727 -18.8866699 23.95448551 -19.9375 19.25 C-19.73084129 13.98020297 -18.01078213 9.45157929 -14.359375 5.57421875 C-9.55182507 1.19516783 -6.46184907 0.41027613 0 0 Z " fill="#1F1F1F" transform="translate(223.9375,45.75)"/>
<path d="M0 0 C8.97920777 -0.02312566 17.95840537 -0.04091623 26.93763638 -0.05181217 C31.10662828 -0.05704051 35.27559987 -0.06413726 39.44458008 -0.07543945 C43.46457686 -0.08627008 47.48455405 -0.09227721 51.50456429 -0.09487724 C53.04162975 -0.09673118 54.57869409 -0.10035119 56.11575127 -0.10573006 C58.26135487 -0.11294284 60.40687655 -0.11399084 62.55249023 -0.11352539 C63.77604721 -0.115746 64.99960419 -0.11796661 66.26023865 -0.12025452 C69 0 69 0 70 1 C70.09333705 2.59610982 70.11745372 4.19633428 70.11352539 5.79516602 C70.11341209 7.32664024 70.11341209 7.32664024 70.11329651 8.88905334 C70.10813522 9.9994548 70.10297394 11.10985626 70.09765625 12.25390625 C70.0962413 13.38448959 70.09482635 14.51507294 70.09336853 15.67991638 C70.08775019 19.30747065 70.07519458 22.93496424 70.0625 26.5625 C70.05748736 29.01497307 70.05292405 31.4674471 70.04882812 33.91992188 C70.0377748 39.94663545 70.02101884 45.97331339 70 52 C60.89040835 52.02312545 51.78082674 52.04091612 42.6712122 52.05181217 C38.44168629 52.05704056 34.2121804 52.0641374 29.98266602 52.07543945 C25.90431457 52.08626991 21.82598243 52.09227717 17.74761772 52.09487724 C16.18822361 52.09673121 14.6288306 52.10035127 13.06944466 52.10573006 C10.89270838 52.11294262 8.71605286 52.11399085 6.53930664 52.11352539 C4.67732384 52.11685631 4.67732384 52.11685631 2.77772522 52.12025452 C0 52 0 52 -1 51 C-1.0983867 49.47595193 -1.12798534 47.94738587 -1.12939453 46.42016602 C-1.13254669 45.44568008 -1.13569885 44.47119415 -1.13894653 43.46717834 C-1.1369223 42.40679855 -1.13489807 41.34641876 -1.1328125 40.25390625 C-1.13376923 39.17245834 -1.13472595 38.09101044 -1.13571167 36.97679138 C-1.13639371 34.68431541 -1.13453777 32.39183752 -1.13037109 30.09936523 C-1.12502836 26.58117345 -1.13031264 23.06310963 -1.13671875 19.54492188 C-1.13605787 17.32291638 -1.13477651 15.10091097 -1.1328125 12.87890625 C-1.13483673 11.82055069 -1.13686096 10.76219513 -1.13894653 9.67176819 C-1.13579437 8.6941301 -1.13264221 7.716492 -1.12939453 6.70922852 C-1.12859894 5.84620621 -1.12780334 4.9831839 -1.12698364 4.0940094 C-1 2 -1 2 0 0 Z M1 3 C1 18.18 1 33.36 1 49 C3.79034261 50.3951713 6.07225972 50.11955162 9.19384766 50.11352539 C10.49504547 50.11344986 11.79624329 50.11337433 13.13687134 50.11329651 C14.56260211 50.10818947 15.9883325 50.10297347 17.4140625 50.09765625 C18.86851961 50.09579147 20.32297734 50.09436785 21.7774353 50.09336853 C25.60792776 50.08954805 29.43838237 50.07972176 33.26885986 50.06866455 C37.86353778 50.05664314 42.45822834 50.05204595 47.05291748 50.04621124 C54.03530465 50.03650977 61.01760877 50.01734995 68 50 C68 34.49 68 18.98 68 3 C45.89 3 23.78 3 1 3 Z " fill="#292929" transform="translate(106,45)"/>
<path d="M0 0 C0.65849493 0.00322913 1.31698985 0.00645826 1.99543917 0.00978523 C4.18798944 0.02178839 6.38041004 0.04117554 8.57290649 0.06056213 C10.15012333 0.07071257 11.72734317 0.0804054 13.30456543 0.0896759 C17.57684262 0.11608037 21.84904957 0.14887528 26.12127256 0.1828258 C30.5895516 0.21724481 35.05786817 0.24577524 39.52618408 0.27493286 C47.98334995 0.33101285 56.44046883 0.39238132 64.8975836 0.4556542 C74.5274999 0.52744371 84.15745375 0.59333093 93.78741527 0.65872467 C113.59307702 0.79335019 133.39867996 0.93538038 153.20425415 1.08229065 C153.20425415 1.74229065 153.20425415 2.40229065 153.20425415 3.08229065 C152.36126266 3.08375721 151.51827118 3.08522377 150.6497345 3.08673477 C130.12597864 3.1238067 109.60238787 3.18282662 89.07876587 3.26619339 C79.15363295 3.30598142 69.22857929 3.33837513 59.30337524 3.35328674 C50.65129252 3.36630446 41.99938421 3.39327224 33.34739971 3.43690372 C28.76735565 3.45951579 24.1875267 3.47520148 19.60742188 3.4741745 C15.29319967 3.47342774 10.97945293 3.49138487 6.66535378 3.52345848 C5.08520489 3.5319513 3.50500264 3.53371159 1.92484093 3.52809334 C-9.532703 3.4488331 -9.532703 3.4488331 -19.79574585 8.08229065 C-20.12574585 8.74229065 -20.45574585 9.40229065 -20.79574585 10.08229065 C-19.90887085 10.37104065 -19.02199585 10.65979065 -18.10824585 10.95729065 C-15.29192161 11.91377813 -12.54491429 12.95028011 -9.79574585 14.08229065 C-9.79574585 15.07229065 -9.79574585 16.06229065 -9.79574585 17.08229065 C-12.78137189 16.45723754 -15.0864426 15.45627229 -17.73324585 13.95729065 C-20.36474558 12.6123019 -21.48192578 12.06769437 -24.48324585 12.20729065 C-25.24637085 12.49604065 -26.00949585 12.78479065 -26.79574585 13.08229065 C-27.70324585 13.39166565 -28.61074585 13.70104065 -29.54574585 14.01979065 C-31.94727595 14.87049955 -31.94727595 14.87049955 -32.79574585 17.08229065 C-34.47543335 18.16041565 -34.47543335 18.16041565 -36.67074585 19.33229065 C-37.48801147 19.77443909 -38.3052771 20.21658752 -39.14730835 20.6721344 C-40.02129272 21.13748596 -40.8952771 21.60283752 -41.79574585 22.08229065 C-49.07833363 25.96560407 -56.10307249 30.08723347 -63.04574585 34.54322815 C-65.79574585 36.08229065 -65.79574585 36.08229065 -68.79574585 36.08229065 C-67.32252692 32.1677375 -65.40322808 31.00817122 -61.73324585 29.14479065 C-60.74324585 28.63045471 -59.75324585 28.11611877 -58.73324585 27.5861969 C-57.76387085 27.08990784 -56.79449585 26.59361877 -55.79574585 26.08229065 C-49.35193071 22.59542357 -43.0610744 18.8788308 -36.79574585 15.08229065 C-35.9552771 14.58986877 -35.11480835 14.0974469 -34.24887085 13.59010315 C-31.46972651 11.93386784 -31.46972651 11.93386784 -27.79574585 9.08229065 C-31.09574585 7.43229065 -34.39574585 5.78229065 -37.79574585 4.08229065 C-37.79574585 3.42229065 -37.79574585 2.76229065 -37.79574585 2.08229065 C-36.39926785 2.53865601 -35.00359505 2.99748553 -33.60824585 3.45729065 C-32.44228882 3.84014221 -32.44228882 3.84014221 -31.2527771 4.23072815 C-28.79574585 5.08229065 -28.79574585 5.08229065 -26.33480835 6.3596344 C-23.73997514 7.37883617 -23.73997514 7.37883617 -21.1121521 6.0002594 C-20.20336304 5.42920471 -19.29457397 4.85815002 -18.35824585 4.26979065 C-12.25142643 0.47365966 -7.12319723 -0.05032086 0 0 Z " fill="#0B0B0B" transform="translate(94.79574584960938,27.917709350585938)"/>
<path d="M0 0 C22.77 0 45.54 0 69 0 C68.67 0.99 68.34 1.98 68 3 C59.42924152 3.06942626 50.85859999 3.12277341 42.28763008 3.15543652 C38.30802626 3.17111101 34.32861441 3.19238138 30.34912109 3.22631836 C26.51065044 3.25884887 22.67236476 3.27683957 18.83376694 3.28463173 C17.36727866 3.29018666 15.90080082 3.30103379 14.43439102 3.31719017 C12.38458409 3.33888161 10.33554725 3.34197055 8.28564453 3.34057617 C7.11760284 3.34723801 5.94956116 3.35389984 4.74612427 3.36076355 C3.83990326 3.24171158 2.93368225 3.12265961 2 3 C1.34 2.01 0.68 1.02 0 0 Z " fill="#545454" transform="translate(106,45)"/>
<path d="M0 0 C3 0 3 0 4.53515625 1.49609375 C5.03917969 2.13675781 5.54320312 2.77742188 6.0625 3.4375 C8.1671333 6.15875193 8.1671333 6.15875193 11 8 C10.45015228 11.87511727 8.72444669 13.59576506 5.9375 16.25 C5.20402344 16.95640625 4.47054687 17.6628125 3.71484375 18.390625 C3.14894531 18.92171875 2.58304688 19.4528125 2 20 C-1.69834949 17.53443367 -2.03308783 16.27052877 -3 12 C-2.69303164 7.6257009 -1.81215172 3.98673378 0 0 Z " fill="#FAFAFA" transform="translate(210,54)"/>
<path d="M0 0 C-1.39750048 3.15835107 -3.05198234 5.32272825 -5.5 7.75 C-6.1084375 8.36359375 -6.716875 8.9771875 -7.34375 9.609375 C-9 11 -9 11 -11 11 C-12.40234375 9.5390625 -12.40234375 9.5390625 -13.9375 7.625 C-15.91986617 5.16098476 -17.30699655 3.79533563 -20 2 C-19.67 1.01 -19.34 0.02 -19 -1 C-12.16451885 -3.73419246 -6.59765132 -2.99893242 0 0 Z " fill="#F8F8F8" transform="translate(233,51)"/>
<path d="M0 0 C0.99 0.33 1.98 0.66 3 1 C5.36919023 5.85683997 5.14526917 9.88306343 4 15 C2.9375 18 2.9375 18 2 20 C0 20 0 20 -2.625 17.625 C-5 15 -5 15 -5 13 C-6.32 12.34 -7.64 11.68 -9 11 C-7.59155282 7.78475695 -5.89655214 5.67816132 -3.375 3.25 C-2.74335938 2.63640625 -2.11171875 2.0228125 -1.4609375 1.390625 C-0.73777344 0.70226563 -0.73777344 0.70226563 0 0 Z " fill="#F6F6F6" transform="translate(234,54)"/>
<path d="M0 0 C11.22 0 22.44 0 34 0 C33 7 33 7 31.4375 8.5 C27.65671268 9.27554612 24.79414267 8.79554604 21 8 C19 5 19 5 19 2 C12.73 2 6.46 2 0 2 C0 1.34 0 0.68 0 0 Z " fill="#2F2F2F" transform="translate(0,29)"/>
<path d="M0 0 C3.50647501 2.8689341 6.85281112 5.7317654 10 9 C9.328125 10.9453125 9.328125 10.9453125 8 13 C2.28478612 14.62491375 -3.57898871 14.49073492 -9 12 C-9 9 -9 9 -7.03125 6.73828125 C-5.77828125 5.53751953 -5.77828125 5.53751953 -4.5 4.3125 C-3.6646875 3.50425781 -2.829375 2.69601563 -1.96875 1.86328125 C-1.3190625 1.24839844 -0.669375 0.63351563 0 0 Z " fill="#F9F9F9" transform="translate(223,65)"/>
<path d="M0 0 C0.66 0 1.32 0 2 0 C2 1.65 2 3.3 2 5 C11.57 5 21.14 5 31 5 C31 5.66 31 6.32 31 7 C26.9170667 7.1969993 22.83364734 7.38095476 18.75 7.5625 C17.59113281 7.61857422 16.43226563 7.67464844 15.23828125 7.73242188 C14.12324219 7.78076172 13.00820312 7.82910156 11.859375 7.87890625 C10.31975098 7.94960327 10.31975098 7.94960327 8.74902344 8.02172852 C6.28119317 8.00222257 4.34329535 7.72799029 2 7 C2 8.65 2 10.3 2 12 C1.34 12 0.68 12 0 12 C0 10.35 0 8.7 0 7 C-2.64 7 -5.28 7 -8 7 C-7.835 8.010625 -7.67 9.02125 -7.5 10.0625 C-7.03014231 13.76262933 -6.92400151 17.27607391 -7 21 C-7.99 21.33 -8.98 21.66 -10 22 C-10.02684679 19.35409986 -10.04676357 16.70846904 -10.0625 14.0625 C-10.07087891 13.30775391 -10.07925781 12.55300781 -10.08789062 11.77539062 C-10.09652441 9.85005687 -10.05224333 7.92464419 -10 6 C-9 5 -9 5 -6.93359375 4.90234375 C-5.69802734 4.91974609 -5.69802734 4.91974609 -4.4375 4.9375 C-3.61121094 4.94652344 -2.78492187 4.95554687 -1.93359375 4.96484375 C-1.29550781 4.97644531 -0.65742188 4.98804687 0 5 C0 3.35 0 1.7 0 0 Z " fill="#050505" transform="translate(130,65)"/>
<path d="M0 0 C4.95 0 9.9 0 15 0 C15 16.83 15 33.66 15 51 C13.35 51 11.7 51 10 51 C9.67 50.34 9.34 49.68 9 49 C10.32 49 11.64 49 13 49 C13 33.16 13 17.32 13 1 C8.71 1 4.42 1 0 1 C0 0.67 0 0.34 0 0 Z " fill="#010101" transform="translate(161,46)"/>
<path d="M0 0 C20.79 0 41.58 0 63 0 C62.67 0.99 62.34 1.98 62 3 C53.75 3 45.5 3 37 3 C37 2.67 37 2.34 37 2 C18.685 1.505 18.685 1.505 0 1 C0 0.67 0 0.34 0 0 Z " fill="#616161" transform="translate(109,94)"/>
<path d="M0 0 C0.66 0 1.32 0 2 0 C0.01266924 4.36055099 -2.83823817 7.42583445 -6 11 C-1.05 12.98 -1.05 12.98 4 15 C4 15.66 4 16.32 4 17 C0.37 16.34 -3.26 15.68 -7 15 C-7 14.34 -7 13.68 -7 13 C-7.99 12.67 -8.98 12.34 -10 12 C-12.8834341 10.00377639 -13.02286934 8.87733716 -13.6875 5.3125 C-13.790625 4.219375 -13.89375 3.12625 -14 2 C-13.34 2 -12.68 2 -12 2 C-11.01 3.98 -10.02 5.96 -9 8 C-7.87411986 7.04270084 -6.7493285 6.08412105 -5.625 5.125 C-4.99851563 4.59132813 -4.37203125 4.05765625 -3.7265625 3.5078125 C-2.44163349 2.38567993 -1.20628025 1.20628025 0 0 Z " fill="#141414" transform="translate(220,65)"/>
<path d="M0 0 C6.47556391 0.61090226 6.47556391 0.61090226 8.9375 2.4375 C10 4 10 4 10 6 C10.66 6 11.32 6 12 6 C14.10827055 9.16240582 14.33817465 10.50657469 14.625 14.1875 C14.69976562 15.08855469 14.77453125 15.98960938 14.8515625 16.91796875 C14.92503906 17.94857422 14.92503906 17.94857422 15 19 C14.01 19.33 13.02 19.66 12 20 C12.04125 19.13375 12.0825 18.2675 12.125 17.375 C11.99542279 13.87641532 11.23980344 11.25448403 10 8 C7.04590299 9.37154504 4.55991624 10.98863724 2 13 C2 8.61031544 4.12805101 7.23094261 7 4 C6.030625 3.71125 5.06125 3.4225 4.0625 3.125 C1 2 1 2 0 0 Z " fill="#181818" transform="translate(226,47)"/>
<path d="M0 0 C11.22 0 22.44 0 34 0 C34 0.99 34 1.98 34 3 C29.71 2.67 25.42 2.34 21 2 C20.67 2.99 20.34 3.98 20 5 C19.67 4.01 19.34 3.02 19 2 C12.73 2 6.46 2 0 2 C0 1.34 0 0.68 0 0 Z " fill="#040404" transform="translate(0,29)"/>
<path d="M0 0 C1.28100586 -0.00580078 1.28100586 -0.00580078 2.58789062 -0.01171875 C3.81862305 -0.00978516 3.81862305 -0.00978516 5.07421875 -0.0078125 C5.81631592 -0.00668457 6.55841309 -0.00555664 7.32299805 -0.00439453 C9.3125 0.125 9.3125 0.125 12.3125 1.125 C12.3125 1.785 12.3125 2.445 12.3125 3.125 C11.52077393 3.15005615 10.72904785 3.1751123 9.91333008 3.20092773 C6.31706637 3.31715729 2.7210472 3.43976176 -0.875 3.5625 C-2.74381836 3.62147461 -2.74381836 3.62147461 -4.65039062 3.68164062 C-5.85244141 3.72353516 -7.05449219 3.76542969 -8.29296875 3.80859375 C-9.39793701 3.84525146 -10.50290527 3.88190918 -11.64135742 3.91967773 C-14.41342972 4.10652656 -16.98292873 4.50662366 -19.6875 5.125 C-14.50876651 -1.04964378 -7.46326498 -0.03426135 0 0 Z " fill="#121212" transform="translate(97.6875,27.875)"/>
<path d="M0 0 C1.12591553 0.00523682 2.25183105 0.01047363 3.41186523 0.01586914 C4.62680664 0.0190918 5.84174805 0.02231445 7.09350586 0.02563477 C8.37290039 0.03401367 9.65229492 0.04239258 10.97045898 0.05102539 C12.2537207 0.05553711 13.53698242 0.06004883 14.85913086 0.06469727 C18.04211921 0.07652994 21.22501661 0.09301471 24.40795898 0.11352539 C24.40795898 0.77352539 24.40795898 1.43352539 24.40795898 2.11352539 C20.30454785 2.33909041 16.2003091 2.54102577 12.09545898 2.73852539 C10.92821289 2.80297852 9.7609668 2.86743164 8.55834961 2.93383789 C7.44008789 2.98540039 6.32182617 3.03696289 5.16967773 3.09008789 C3.62219849 3.16864014 3.62219849 3.16864014 2.04345703 3.2487793 C-0.59204102 3.11352539 -0.59204102 3.11352539 -3.59204102 1.11352539 C-2.59204102 0.11352539 -2.59204102 0.11352539 0 0 Z " fill="#060606" transform="translate(136.592041015625,69.886474609375)"/>
<path d="M0 0 C0.96070434 2.88211302 1.10581883 4.69850044 1.0625 7.6875 C1.05347656 8.49574219 1.04445313 9.30398437 1.03515625 10.13671875 C1.02355469 10.75160156 1.01195313 11.36648437 1 12 C0.01 12.33 -0.98 12.66 -2 13 C-2.05391993 11.20866022 -2.09275571 9.41686101 -2.125 7.625 C-2.14820312 6.62726563 -2.17140625 5.62953125 -2.1953125 4.6015625 C-2 2 -2 2 0 0 Z " fill="#2E2E2E" transform="translate(122,74)"/>
<path d="M0 0 C2.97 0 5.94 0 9 0 C9 0.99 9 1.98 9 3 C6.29120665 4.35439668 3.99066732 4.06501451 1 4 C0.67 2.68 0.34 1.36 0 0 Z " fill="#FDFDFD" transform="translate(22,31)"/>
<path d="M0 0 C3.63 0 7.26 0 11 0 C10.67 0.99 10.34 1.98 10 3 C6.7 3 3.4 3 0 3 C0 2.01 0 1.02 0 0 Z " fill="#262626" transform="translate(161,94)"/>
<path d="M0 0 C0.99 0.33 1.98 0.66 3 1 C0.83328568 3.27505004 -1.39563231 5.23575092 -4 7 C-4.66 7 -5.32 7 -6 7 C-6.33 6.01 -6.66 5.02 -7 4 C-6.030625 3.525625 -5.06125 3.05125 -4.0625 2.5625 C-1.19522563 1.29806053 -1.19522563 1.29806053 0 0 Z " fill="#282828" transform="translate(56,44)"/>
<path d="M0 0 C-0.5625 1.875 -0.5625 1.875 -2 4 C-5.625 5.25 -5.625 5.25 -9 6 C-6.65405099 2.48107648 -4.44674901 0 0 0 Z " fill="#121212" transform="translate(50,49)"/>
<path d="M0 0 C0 0.66 0 1.32 0 2 C-2.875 2.125 -2.875 2.125 -6 2 C-6.66 1.34 -7.32 0.68 -8 0 C-4.94736336 -0.98120464 -3.05263664 -0.98120464 0 0 Z " fill="#373737" transform="translate(230,79)"/>
</svg>
