<?xml version="1.0" encoding="UTF-8"?>
<svg version="1.1" xmlns="http://www.w3.org/2000/svg" width="251" height="99">
<path d="M0 0 C82.83 0 165.66 0 251 0 C251 32.67 251 65.34 251 99 C168.17 99 85.34 99 0 99 C0 66.33 0 33.66 0 0 Z " fill="#FEFEFE" transform="translate(0,0)"/>
<path d="M0 0 C8.97920777 -0.02312566 17.95840537 -0.04091623 26.93763638 -0.05181217 C31.10662828 -0.05704051 35.27559987 -0.06413726 39.44458008 -0.07543945 C43.46457686 -0.08627008 47.48455405 -0.09227721 51.50456429 -0.09487724 C53.04162975 -0.09673118 54.57869409 -0.10035119 56.11575127 -0.10573006 C58.26135487 -0.11294284 60.40687655 -0.11399084 62.55249023 -0.11352539 C63.77604721 -0.115746 64.99960419 -0.11796661 66.26023865 -0.12025452 C69 0 69 0 70 1 C70.09326716 2.56547048 70.11745582 4.13512772 70.11352539 5.70336914 C70.11341209 7.20481224 70.11341209 7.20481224 70.11329651 8.73658752 C70.10813522 9.8251152 70.10297394 10.91364288 70.09765625 12.03515625 C70.0962413 13.14354355 70.09482635 14.25193085 70.09336853 15.39390564 C70.08775033 18.95013069 70.07519475 22.50629383 70.0625 26.0625 C70.05748734 28.46679597 70.05292403 30.87109292 70.04882812 33.27539062 C70.03777499 39.18361504 70.02101917 45.0918031 70 51 C54.76627407 51.64901668 39.56048469 52.10606669 24.3125 52.125 C23.26064011 52.12874634 23.26064011 52.12874634 22.18753052 52.13256836 C20.16278948 52.13851011 18.13802883 52.13578261 16.11328125 52.1328125 C14.37751831 52.13112061 14.37751831 52.13112061 12.60668945 52.12939453 C8.36891188 51.97735892 4.20562929 51.52386007 0 51 C-0.14415353 45.77136759 -0.2864985 40.54269004 -0.42724609 35.31396484 C-0.47526464 33.5392121 -0.52375739 31.76447211 -0.57275391 29.98974609 C-1.29276572 3.87829717 -1.29276572 3.87829717 0 0 Z " fill="#FEFEFE" transform="translate(102,44)"/>
<path d="M0 0 C4.02897729 4.41701403 5.58191642 7.51117384 6.03125 13.46484375 C5.62814842 19.41059202 3.85851681 23.46355188 -0.53125 27.46484375 C-4.28247345 30.41843864 -7.74542738 32.40601787 -12.65625 31.90234375 C-13.501875 31.65484375 -14.3475 31.40734375 -15.21875 31.15234375 C-16.353125 30.92546875 -17.4875 30.69859375 -18.65625 30.46484375 C-24.05994336 28.47400935 -27.11664347 25.4567483 -29.59375 20.27734375 C-30.9162819 13.66468423 -30.79470799 8.15162767 -27.06640625 2.36328125 C-23.8931109 -1.90880058 -21.02437967 -4.02848186 -15.71484375 -4.81640625 C-9.8698539 -4.88958296 -4.55751366 -3.79525345 0 0 Z " fill="#202020" transform="translate(231.21875,48.84765625)"/>
<path d="M0 0 C1.70588623 0.00169496 3.41177683 0.00073754 5.11766052 -0.00265503 C9.72268243 -0.00436846 14.32675644 0.03077476 18.93155909 0.07278872 C23.75346661 0.11043239 28.57539863 0.11383179 33.39743042 0.12094116 C42.51691734 0.13955007 51.63596994 0.18873331 60.75526607 0.2490381 C71.14217959 0.31622665 81.52911442 0.34912323 91.91619134 0.37921071 C113.27233171 0.44183603 134.62808179 0.54729382 155.98388672 0.68115234 C155.98388672 1.34115234 155.98388672 2.00115234 155.98388672 2.68115234 C154.66390261 2.68335218 154.66390261 2.68335218 153.31725216 2.68559647 C131.9009146 2.72265504 110.48473542 2.78165722 89.06852627 2.86505508 C78.71177855 2.90485713 68.35510695 2.93724372 57.99829102 2.95214844 C48.97083161 2.96515889 39.9435396 2.9921081 30.91617447 3.03576541 C26.13663218 3.05839381 21.35729646 3.07406219 16.57769585 3.07303619 C12.07716846 3.0722904 7.57709794 3.09020877 3.07668877 3.12232018 C1.42677901 3.13082514 -0.22318196 3.13256503 -1.8731041 3.12695503 C-4.1307829 3.12030224 -6.38701347 3.13826376 -8.64454651 3.16217041 C-9.9064811 3.16585758 -11.1684157 3.16954475 -12.46859074 3.17334366 C-16.86565407 3.80275952 -19.26669568 5.34974535 -23.01611328 7.68115234 C-23.67611328 7.68115234 -24.33611328 7.68115234 -25.01611328 7.68115234 C-25.01611328 8.34115234 -25.01611328 9.00115234 -25.01611328 9.68115234 C-24.38962891 9.88611328 -23.76314453 10.09107422 -23.11767578 10.30224609 C-22.30041016 10.57166016 -21.48314453 10.84107422 -20.64111328 11.11865234 C-19.42294922 11.51890625 -19.42294922 11.51890625 -18.18017578 11.92724609 C-16.01611328 12.68115234 -16.01611328 12.68115234 -14.01611328 13.68115234 C-14.01611328 14.67115234 -14.01611328 15.66115234 -14.01611328 16.68115234 C-17.7598129 15.8973934 -20.62963032 14.31948248 -23.91845703 12.42333984 C-27.32027244 11.219718 -29.65805826 12.05885146 -32.87768555 13.53417969 C-35.05133286 14.62678774 -37.1911727 15.76937725 -39.32861328 16.93115234 C-40.04984375 17.31400391 -40.77107422 17.69685547 -41.51416016 18.09130859 C-45.93322087 20.46135192 -50.18536102 23.00017524 -54.3762207 25.75439453 C-56.01611328 26.68115234 -56.01611328 26.68115234 -58.01611328 26.68115234 C-57.64357422 27.29603516 -57.27103516 27.91091797 -56.88720703 28.54443359 C-56.41412109 29.35267578 -55.94103516 30.16091797 -55.45361328 30.99365234 C-54.97794922 31.79416016 -54.50228516 32.59466797 -54.01220703 33.41943359 C-53.01611328 35.68115234 -53.01611328 35.68115234 -54.01611328 38.68115234 C-55.97705078 40.10302734 -55.97705078 40.10302734 -58.39111328 41.43115234 C-59.18259766 41.87974609 -59.97408203 42.32833984 -60.78955078 42.79052734 C-63.01611328 43.68115234 -63.01611328 43.68115234 -66.01611328 42.68115234 C-69.01611328 37.45893012 -69.01611328 37.45893012 -69.01611328 34.68115234 C-70.99611328 35.17615234 -70.99611328 35.17615234 -73.01611328 35.68115234 C-73.01611328 34.69115234 -73.01611328 33.70115234 -73.01611328 32.68115234 C-72.02611328 32.68115234 -71.03611328 32.68115234 -70.01611328 32.68115234 C-70.01611328 32.02115234 -70.01611328 31.36115234 -70.01611328 30.68115234 C-68.93458984 30.15521484 -67.85306641 29.62927734 -66.73876953 29.08740234 C-61.1989525 26.31688412 -55.83485289 23.24522809 -50.45361328 20.18115234 C-49.45136719 19.61267578 -48.44912109 19.04419922 -47.41650391 18.45849609 C-42.27757913 15.54226623 -37.14454333 12.61579394 -32.01611328 9.68115234 C-34.2244928 8.20889933 -36.39988768 6.86014797 -38.70361328 5.55615234 C-40.34330078 4.62802734 -40.34330078 4.62802734 -42.01611328 3.68115234 C-42.01611328 3.02115234 -42.01611328 2.36115234 -42.01611328 1.68115234 C-40.64111328 2.13948568 -39.26611328 2.59781901 -37.89111328 3.05615234 C-37.06224609 3.32041016 -36.23337891 3.58466797 -35.37939453 3.85693359 C-33.01611328 4.68115234 -33.01611328 4.68115234 -30.07861328 6.24365234 C-27.07322861 7.018412 -27.07322861 7.018412 -25.12776375 5.43532372 C-24.01918668 4.60161719 -24.01918668 4.60161719 -22.88821411 3.75106812 C-15.65445111 -0.71726355 -8.19414588 -0.11453969 0 0 Z " fill="#272727" transform="translate(95.01611328125,27.31884765625)"/>
<path d="M0 0 C8.97920777 -0.02312566 17.95840537 -0.04091623 26.93763638 -0.05181217 C31.10662828 -0.05704051 35.27559987 -0.06413726 39.44458008 -0.07543945 C43.46457686 -0.08627008 47.48455405 -0.09227721 51.50456429 -0.09487724 C53.04162975 -0.09673118 54.57869409 -0.10035119 56.11575127 -0.10573006 C58.26135487 -0.11294284 60.40687655 -0.11399084 62.55249023 -0.11352539 C63.77604721 -0.115746 64.99960419 -0.11796661 66.26023865 -0.12025452 C69 0 69 0 70 1 C70.09326716 2.56547048 70.11745582 4.13512772 70.11352539 5.70336914 C70.11341209 7.20481224 70.11341209 7.20481224 70.11329651 8.73658752 C70.10813522 9.8251152 70.10297394 10.91364288 70.09765625 12.03515625 C70.0962413 13.14354355 70.09482635 14.25193085 70.09336853 15.39390564 C70.08775033 18.95013069 70.07519475 22.50629383 70.0625 26.0625 C70.05748734 28.46679597 70.05292403 30.87109292 70.04882812 33.27539062 C70.03777499 39.18361504 70.02101917 45.0918031 70 51 C54.76627407 51.64901668 39.56048469 52.10606669 24.3125 52.125 C23.26064011 52.12874634 23.26064011 52.12874634 22.18753052 52.13256836 C20.16278948 52.13851011 18.13802883 52.13578261 16.11328125 52.1328125 C14.37751831 52.13112061 14.37751831 52.13112061 12.60668945 52.12939453 C8.36891188 51.97735892 4.20562929 51.52386007 0 51 C-0.14415353 45.77136759 -0.2864985 40.54269004 -0.42724609 35.31396484 C-0.47526464 33.5392121 -0.52375739 31.76447211 -0.57275391 29.98974609 C-1.29276572 3.87829717 -1.29276572 3.87829717 0 0 Z M2 3 C2 18.51 2 34.02 2 50 C23.78 50 45.56 50 68 50 C68 34.49 68 18.98 68 3 C46.22 3 24.44 3 2 3 Z " fill="#434343" transform="translate(102,44)"/>
<path d="M0 0 C2.94790077 -0.36914349 2.94790077 -0.36914349 6.80825806 -0.36076355 C7.51642146 -0.36332682 8.22458487 -0.3658901 8.95420778 -0.36853105 C11.33900324 -0.37349216 13.72317255 -0.35693843 16.10791016 -0.34057617 C17.81261683 -0.3397304 19.5173246 -0.34020407 21.22203064 -0.34190369 C25.86028905 -0.34276701 30.49831633 -0.32508685 35.13652086 -0.30418181 C39.97986725 -0.28547106 44.82321851 -0.28366901 49.66659546 -0.28010559 C58.84285728 -0.27076862 68.01901231 -0.24613254 77.19522703 -0.21605712 C87.64004151 -0.18256445 98.084861 -0.16604004 108.52971578 -0.15097082 C130.0198702 -0.11958438 151.50992838 -0.06679185 173 0 C173 0.66 173 1.32 173 2 C86.375 2.495 86.375 2.495 -2 3 C-1.34 2.01 -0.68 1.02 0 0 Z " fill="#121212" transform="translate(78,28)"/>
<path d="M0 0 C7.59 0.33 15.18 0.66 23 1 C23 1.33 23 1.66 23 2 C15.74 2 8.48 2 1 2 C1.33 17.51 1.66 33.02 2 49 C22.13 49 42.26 49 63 49 C54.75155592 54.49896272 38.75717857 52.15686227 28.98193359 52.13037109 C26.60638187 52.12495757 24.2310152 52.13038396 21.85546875 52.13671875 C20.31249959 52.13605862 18.76953055 52.1347788 17.2265625 52.1328125 C16.53261383 52.13483673 15.83866516 52.13686096 15.12368774 52.13894653 C10.0307427 52.1150446 5.05041474 51.64374779 0 51 C-0.14415353 45.77136759 -0.2864985 40.54269004 -0.42724609 35.31396484 C-0.47526464 33.5392121 -0.52375739 31.76447211 -0.57275391 29.98974609 C-1.29276572 3.87829717 -1.29276572 3.87829717 0 0 Z " fill="#171717" transform="translate(102,44)"/>
<path d="M0 0 C0.66 0 1.32 0 2 0 C2 1.32 2 2.64 2 4 C11.57 4 21.14 4 31 4 C30.67 4.99 30.34 5.98 30 7 C20.76 7 11.52 7 2 7 C2 8.65 2 10.3 2 12 C1.34 12 0.68 12 0 12 C0 10.35 0 8.7 0 7 C-2.31 7 -4.62 7 -7 7 C-7 11.62 -7 16.24 -7 21 C-7.99 21 -8.98 21 -10 21 C-10.02684679 18.35409986 -10.04676357 15.70846904 -10.0625 13.0625 C-10.07087891 12.30775391 -10.07925781 11.55300781 -10.08789062 10.77539062 C-10.09652441 8.85005687 -10.05224333 6.92464419 -10 5 C-9 4 -9 4 -6.93359375 3.90234375 C-5.69802734 3.91974609 -5.69802734 3.91974609 -4.4375 3.9375 C-3.61121094 3.94652344 -2.78492187 3.95554687 -1.93359375 3.96484375 C-1.29550781 3.97644531 -0.65742187 3.98804687 0 4 C0 2.68 0 1.36 0 0 Z " fill="#474747" transform="translate(126,64)"/>
<path d="M0 0 C1.1055189 0.93590504 2.20935453 1.87379858 3.3125 2.8125 C3.92738281 3.33457031 4.54226562 3.85664062 5.17578125 4.39453125 C6.85424679 5.87172469 8.43882034 7.40039131 10 9 C8.63629701 11.99220268 7.05091917 14.29026529 4.875 16.75 C4.06675781 17.67039062 4.06675781 17.67039062 3.2421875 18.609375 C2.83226562 19.06828125 2.42234375 19.5271875 2 20 C0.08203125 19.625 0.08203125 19.625 -2 19 C-4.51860101 15.16213179 -4.08872075 11.51775892 -3.4921875 7.16015625 C-2.85734606 4.37390769 -1.69543888 2.28515675 0 0 Z " fill="#F8F8F8" transform="translate(207,52)"/>
<path d="M0 0 C1.1055189 0.93590504 2.20935453 1.87379858 3.3125 2.8125 C3.92738281 3.33457031 4.54226562 3.85664062 5.17578125 4.39453125 C6.85424679 5.87172469 8.43882034 7.40039131 10 9 C9 12 9 12 6.9375 13.1875 C1.5602269 14.67483086 -2.44230684 14.66758278 -7.5 12.5 C-8.325 12.005 -9.15 11.51 -10 11 C-10 10.34 -10 9.68 -10 9 C-9.34 9 -8.68 9 -8 9 C-8 8.34 -8 7.68 -8 7 C-6.25 5.2734375 -6.25 5.2734375 -4 3.375 C-3.2575 2.74335937 -2.515 2.11171875 -1.75 1.4609375 C-1.1725 0.97882813 -0.595 0.49671875 0 0 Z " fill="#F7F7F7" transform="translate(219,64)"/>
<path d="M0 0 C0.99 0.33 1.98 0.66 3 1 C5.20531425 6.40301992 5.1389338 10.30533102 4 16 C3.34 16.99 2.68 17.98 2 19 C-1.15835107 17.60249952 -3.32272825 15.94801766 -5.75 13.5 C-6.67039063 12.58734375 -6.67039063 12.58734375 -7.609375 11.65625 C-9 10 -9 10 -9 8 C-7.28515625 6.30859375 -7.28515625 6.30859375 -5.0625 4.4375 C-3.96615234 3.50744141 -3.96615234 3.50744141 -2.84765625 2.55859375 C-2.23792969 2.04425781 -1.62820312 1.52992187 -1 1 C-0.67 0.67 -0.34 0.34 0 0 Z " fill="#F8F8F8" transform="translate(230,53)"/>
<path d="M0 0 C-1.49895671 3.81552617 -3.7986856 5.53745046 -7 8 C-7.33 8.66 -7.66 9.32 -8 10 C-11.87511727 9.45015228 -13.59576506 7.72444669 -16.25 4.9375 C-16.95640625 4.20402344 -17.6628125 3.47054687 -18.390625 2.71484375 C-18.92171875 2.14894531 -19.4528125 1.58304688 -20 1 C-18 -2 -18 -2 -16 -2.75 C-10.33847302 -3.22179391 -4.79220577 -3.19480385 0 0 Z " fill="#F8F8F8" transform="translate(229,50)"/>
<path d="M0 0 C1.16257324 0.01047363 2.32514648 0.02094727 3.52294922 0.03173828 C5.40820312 0.04140625 5.40820312 0.04140625 7.33154297 0.05126953 C9.30960938 0.07640625 9.30960938 0.07640625 11.32763672 0.10205078 C12.66747393 0.11208096 14.00731823 0.12120674 15.34716797 0.12939453 C18.63250244 0.15303003 21.91748137 0.18597844 25.20263672 0.22705078 C25.38232422 4.93017578 25.38232422 4.93017578 23.76513672 7.60205078 C20.3477977 9.76914382 18.14064202 9.35408465 14.22607422 8.87939453 C12.20263672 8.22705078 12.20263672 8.22705078 10.20263672 5.22705078 C10.20263672 4.23705078 10.20263672 3.24705078 10.20263672 2.22705078 C5.25263672 2.22705078 0.30263672 2.22705078 -4.79736328 2.22705078 C-2.79736328 0.22705078 -2.79736328 0.22705078 0 0 Z " fill="#303030" transform="translate(4.79736328125,27.77294921875)"/>
<path d="M0 0 C0.86625 0.144375 1.7325 0.28875 2.625 0.4375 C1.36958443 2.94833114 0.12436512 3.30875446 -2.375 4.4375 C-1.96507812 4.89640625 -1.55515625 5.3553125 -1.1328125 5.828125 C-0.59398437 6.44171875 -0.05515625 7.0553125 0.5 7.6875 C1.30050781 8.59242187 1.30050781 8.59242187 2.1171875 9.515625 C3.6047487 11.41168746 4.62822436 13.25040005 5.625 15.4375 C2.63279732 14.07379701 0.33473471 12.48841917 -2.125 10.3125 C-3.04539063 9.50425781 -3.04539063 9.50425781 -3.984375 8.6796875 C-4.44328125 8.26976562 -4.9021875 7.85984375 -5.375 7.4375 C-8.41381539 13.15047293 -8.76725102 17.12517546 -7.375 23.4375 C-6.43023446 26.35259282 -6.43023446 26.35259282 -5.375 28.4375 C-7.25 27.8125 -7.25 27.8125 -9.375 26.4375 C-11.91650546 21.10033853 -12.14611864 15.59908641 -10.75 9.875 C-5.58811475 0.72438525 -5.58811475 0.72438525 0 0 Z " fill="#151515" transform="translate(212.375,45.5625)"/>
<path d="M0 0 C0.66 1.32 1.32 2.64 2 4 C0.68 4.99 -0.64 5.98 -2 7 C-1.01 8.485 -1.01 8.485 0 10 C0.66 9.67 1.32 9.34 2 9 C2.33 9.99 2.66 10.98 3 12 C3.33 11.01 3.66 10.02 4 9 C4.33 9.99 4.66 10.98 5 12 C2.1875 14.0625 2.1875 14.0625 -1 16 C-4 15 -4 15 -5.6875 12.0625 C-7 9 -7 9 -7 7 C-8.32 7.33 -9.64 7.66 -11 8 C-11 7.01 -11 6.02 -11 5 C-10.01 5 -9.02 5 -8 5 C-8 4.34 -8 3.68 -8 3 C-5.36 2.01 -2.72 1.02 0 0 Z " fill="#131313" transform="translate(33,55)"/>
<path d="M0 0 C3 1 3 1 4.75 3.375 C6 6 6 6 5 9 C0.95821645 10.34726118 -1.03986281 9.32004573 -5 8 C-5.6875 5.9375 -5.6875 5.9375 -6 4 C-3.1875 1.9375 -3.1875 1.9375 0 0 Z " fill="#2D2D2D" transform="translate(36,57)"/>
<path d="M0 0 C8.91 0 17.82 0 27 0 C19.73964644 4.84023571 7.34292911 3.27597739 -1 2 C-0.67 1.34 -0.34 0.68 0 0 Z " fill="#111111" transform="translate(138,93)"/>
<path d="M0 0 C3.82783815 1.55948962 6.11094313 4.11094313 9 7 C9.66 7 10.32 7 11 7 C11.99 4.69 12.98 2.38 14 0 C14.33 0 14.66 0 15 0 C15.3125 2.6875 15.3125 2.6875 15 6 C12.5 8.875 12.5 8.875 10 11 C8.70145279 9.92492371 7.41141639 8.83956264 6.125 7.75 C5.40570313 7.14671875 4.68640625 6.5434375 3.9453125 5.921875 C2.02947882 4.02912366 1.03550955 2.46342273 0 0 Z " fill="#0C0C0C" transform="translate(221,64)"/>
<path d="M0 0 C0.66 0.66 1.32 1.32 2 2 C-4.75 6 -4.75 6 -7 6 C-6.67 6.99 -6.34 7.98 -6 9 C-6.99 9.33 -7.98 9.66 -9 10 C-9.66 8.68 -10.32 7.36 -11 6 C-7.37 4.02 -3.74 2.04 0 0 Z M-13 7 C-12.34 7 -11.68 7 -11 7 C-11.33 7.99 -11.66 8.98 -12 10 C-12.33 9.01 -12.66 8.02 -13 7 Z " fill="#363636" transform="translate(44,48)"/>
<path d="M0 0 C1.46373047 0.43119141 1.46373047 0.43119141 2.95703125 0.87109375 C3.69308594 1.09925781 4.42914063 1.32742187 5.1875 1.5625 C5.1875 2.5525 5.1875 3.5425 5.1875 4.5625 C4.1975 4.2325 3.2075 3.9025 2.1875 3.5625 C-1.89844833 2.3759874 -5.57592394 2.41384821 -9.8125 2.5625 C-10.1425 1.5725 -10.4725 0.5825 -10.8125 -0.4375 C-6.70767207 -1.57064263 -4.05299263 -1.22078091 0 0 Z " fill="#282828" transform="translate(223.8125,45.4375)"/>
<path d="M0 0 C-1.43486707 4.30460122 -4.62100893 5.27656048 -8.4375 7.25 C-9.47874023 7.81460938 -9.47874023 7.81460938 -10.54101562 8.390625 C-12.32554276 9.33039534 -14.16043481 10.17313528 -16 11 C-16.66 10.67 -17.32 10.34 -18 10 C-3.3 0 -3.3 0 0 0 Z " fill="#111111" transform="translate(63,38)"/>
<path d="M0 0 C4.29 1.65 8.58 3.3 13 5 C13 5.99 13 6.98 13 8 C10.06984666 7.3547078 7.51243525 6.4319105 4.8125 5.125 C4.11769531 4.79757813 3.42289062 4.47015625 2.70703125 4.1328125 C1 3 1 3 0 0 Z " fill="#1A1A1A" transform="translate(68,36)"/>
<path d="M0 0 C3.63 0 7.26 0 11 0 C10.34 1.32 9.68 2.64 9 4 C6.69 4 4.38 4 2 4 C1.34 2.68 0.68 1.36 0 0 Z " fill="#FBFBFB" transform="translate(17,30)"/>
<path d="M0 0 C0.33 0.99 0.66 1.98 1 3 C-2.12988781 5.64836661 -5.0193072 7.0048268 -9 8 C-11.375 7.625 -11.375 7.625 -13 7 C-12 5 -12 5 -9.78515625 4.21875 C-8.88667969 3.9815625 -7.98820313 3.744375 -7.0625 3.5 C-3.11648443 2.50524763 -3.11648443 2.50524763 0 0 Z " fill="#2A2A2A" transform="translate(230,73)"/>
<path d="M0 0 C0.33 0 0.66 0 1 0 C1.12117187 0.66386719 1.24234375 1.32773437 1.3671875 2.01171875 C2.22547708 6.53424459 3.03971311 10.79938524 5 15 C3.125 14.375 3.125 14.375 1 13 C-0.84387276 8.94347993 -1.30909991 5.43043206 -1 1 C-0.67 0.67 -0.34 0.34 0 0 Z " fill="#0C0C0C" transform="translate(202,59)"/>
<path d="M0 0 C1.4589426 0.47730838 2.91713496 0.95691042 4.375 1.4375 C5.18710937 1.70433594 5.99921875 1.97117187 6.8359375 2.24609375 C9 3 9 3 11 4 C11 4.66 11 5.32 11 6 C6.64477147 5.49357808 3.55760365 4.61588503 0 2 C0 1.34 0 0.68 0 0 Z " fill="#1E1E1E" transform="translate(53,29)"/>
<path d="M0 0 C0.33 1.65 0.66 3.3 1 5 C-0.98 5.99 -0.98 5.99 -3 7 C-3.66 5.35 -4.32 3.7 -5 2 C-2 0 -2 0 0 0 Z " fill="#E1E1E1" transform="translate(35,59)"/>
<path d="M0 0 C0.66 1.32 1.32 2.64 2 4 C0.02253397 4.73080266 -1.98072489 5.39421747 -4 6 C-4.66 5.67 -5.32 5.34 -6 5 C-5.67 4.01 -5.34 3.02 -5 2 C-2.4375 0.8125 -2.4375 0.8125 0 0 Z " fill="#090909" transform="translate(33,55)"/>
<path d="M0 0 C2.6015625 -0.29296875 2.6015625 -0.29296875 5.625 -0.1875 C7.12933594 -0.14689453 7.12933594 -0.14689453 8.6640625 -0.10546875 C9.43492188 -0.07066406 10.20578125 -0.03585938 11 0 C10.67 0.66 10.34 1.32 10 2 C7.27734375 2.4140625 7.27734375 2.4140625 3.9375 2.625 C2.83277344 2.69976563 1.72804688 2.77453125 0.58984375 2.8515625 C-0.26480469 2.90054687 -1.11945313 2.94953125 -2 3 C-1.34 2.01 -0.68 1.02 0 0 Z " fill="#0A0A0A" transform="translate(78,28)"/>
<path d="M0 0 C4.2742558 1.5830577 6.26531794 4.50568404 9 8 C6 8 6 8 4.39453125 6.7578125 C3.87246094 6.21898438 3.35039062 5.68015625 2.8125 5.125 C2.28269531 4.59132813 1.75289062 4.05765625 1.20703125 3.5078125 C0 2 0 2 0 0 Z " fill="#121212" transform="translate(221,64)"/>
<path d="M0 0 C0.66 0.33 1.32 0.66 2 1 C2 4.63 2 8.26 2 12 C1.34 12 0.68 12 0 12 C-0.19401633 10.18818595 -0.38004375 8.37551468 -0.5625 6.5625 C-0.66691406 5.55316406 -0.77132812 4.54382812 -0.87890625 3.50390625 C-0.91886719 2.67761719 -0.95882812 1.85132813 -1 1 C-0.67 0.67 -0.34 0.34 0 0 Z " fill="#0D0D0D" transform="translate(126,49)"/>
<path d="M0 0 C1.32 0.33 2.64 0.66 4 1 C3.34 2.65 2.68 4.3 2 6 C1.67 5.34 1.34 4.68 1 4 C-0.32 4.33 -1.64 4.66 -3 5 C-3 4.01 -3 3.02 -3 2 C-2.01 2 -1.02 2 0 2 C0 1.34 0 0.68 0 0 Z " fill="#424242" transform="translate(25,58)"/>
<path d="M0 0 C2.31 0 4.62 0 7 0 C6.67 1.65 6.34 3.3 6 5 C5.01 5.33 4.02 5.66 3 6 C3.33 4.68 3.66 3.36 4 2 C2.68 1.34 1.36 0.68 0 0 Z " fill="#121212" transform="translate(23,29)"/>
<path d="M0 0 C0.66 0.66 1.32 1.32 2 2 C-1.96 3.98 -1.96 3.98 -6 6 C-6 5.01 -6 4.02 -6 3 C-4.02 2.01 -2.04 1.02 0 0 Z " fill="#262626" transform="translate(44,48)"/>
<path d="M0 0 C1.98 0 3.96 0 6 0 C5.01 1.485 5.01 1.485 4 3 C1.375 3.1875 1.375 3.1875 -1 3 C-0.67 2.01 -0.34 1.02 0 0 Z " fill="#292929" transform="translate(149,93)"/>
<path d="M0 0 C0.625 1.8125 0.625 1.8125 1 4 C0.01 5.485 0.01 5.485 -1 7 C-1.66 7 -2.32 7 -3 7 C-2.625 4.0625 -2.625 4.0625 -2 1 C-1.34 0.67 -0.68 0.34 0 0 Z " fill="#252525" transform="translate(204,53)"/>
<path d="M0 0 C2.04119788 1.61594832 4.04072937 3.2856382 6 5 C6 5.66 6 6.32 6 7 C3.53199953 5.84826645 1.95216435 4.95216435 0 3 C0 2.01 0 1.02 0 0 Z " fill="#0E0E0E" transform="translate(212,54)"/>
</svg>
