<?xml version="1.0" encoding="UTF-8"?>
<svg version="1.1" xmlns="http://www.w3.org/2000/svg" width="131" height="100">
<path d="M0 0 C43.23 0 86.46 0 131 0 C131 33 131 66 131 100 C87.77 100 44.54 100 0 100 C0 67 0 34 0 0 Z " fill="#FDFDFD" transform="translate(0,0)"/>
<path d="M0 0 C11.22 0 22.44 0 34 0 C35 11 35 11 35 13 C37.97 13.33 40.94 13.66 44 14 C42.44455189 17.11089621 40.80979645 20.03851491 39 23 C40.32 22.67 41.64 22.34 43 22 C43.0825 21.2575 43.165 20.515 43.25 19.75 C44.16692005 16.38795982 45.18181152 15.03535835 48 13 C50.75 13.25 50.75 13.25 53 14 C51.80100302 17.0831351 50.52299523 20.06279492 49 23 C51.29900732 21.0294223 52.08274905 19.78223934 53.1875 16.875 C55 14 55 14 56.96875 13.390625 C58.9690949 13.15114709 60.98645313 13.06601793 63 13 C62.67 13.763125 62.34 14.52625 62 15.3125 C60.82563314 17.99069135 60.82563314 17.99069135 61 21 C62.65 18.36 64.3 15.72 66 13 C79.365 13.495 79.365 13.495 93 14 C93 9.38 93 4.76 93 0 C105.54 0 118.08 0 131 0 C131 16.17 131 32.34 131 49 C87.77 49 44.54 49 0 49 C0 32.83 0 16.66 0 0 Z " fill="#FEFEFE" transform="translate(0,51)"/>
<path d="M0 0 C0.66 0 1.32 0 2 0 C0.80100302 3.0831351 -0.47700477 6.06279492 -2 9 C0.31 9 2.62 9 5 9 C5.28875 8.2575 5.5775 7.515 5.875 6.75 C6.82302644 4.43260203 7.84845911 2.22082885 9 0 C9.66 0 10.32 0 11 0 C10.37240135 2.92879371 9.41377341 5.36095629 8 8 C9.98 8 11.96 8 14 8 C14.61875 6.865625 15.2375 5.73125 15.875 4.5625 C17.75 1.125 17.75 1.125 20 0 C19.44271087 3.34373475 18.64826111 6.03312999 17 9 C19.64 9 22.28 9 25 9 C25 13.62 25 18.24 25 23 C24.67 23 24.34 23 24 23 C24 19.04 24 15.08 24 11 C19.32641839 10.69360804 19.32641839 10.69360804 15 12 C12.07224024 15.71804274 10.00519533 19.72525883 8 24 C11.63 24 15.26 24 19 24 C15.67311358 26.21792428 15.03013325 26.07250476 11.25 25.9375 C7.4513483 26.19371404 6.35210531 26.60061553 3.7890625 29.5078125 C2.06349342 32.26167989 0.51903659 35.12703949 -1 38 C4.28 38 9.56 38 15 38 C15 38.33 15 38.66 15 39 C12.03771875 39.64049324 9.39036965 40.03701283 6.36328125 39.75 C3.36956342 39.48861127 0.94598171 39.3715239 -2 40 C-4.71810773 42.66093912 -6.38887486 45.57380982 -8 49 C-9 46 -9 46 -8.22265625 44.17578125 C-7.1484375 42.45052083 -6.07421875 40.72526042 -5 39 C-7.64 39.33 -10.28 39.66 -13 40 C-13.1546875 40.8353125 -13.1546875 40.8353125 -13.3125 41.6875 C-14.14178408 44.4769101 -15.34299056 46.6139064 -17 49 C-17.66 49 -18.32 49 -19 49 C-18.35455571 45.51460083 -16.89865603 42.97180943 -15 40 C-17.31 40 -19.62 40 -22 40 C-23.07525194 42.65228812 -24.09456151 45.28368454 -25 48 C-27.0625 48.6875 -27.0625 48.6875 -29 49 C-27.7508258 45.54074837 -26.32472205 42.85306797 -24 40 C-26.97 40 -29.94 40 -33 40 C-34 37 -34 37 -34 26 C-45.22 26 -56.44 26 -68 26 C-68 25.01 -68 24.02 -68 23 C-56.45 23 -44.9 23 -33 23 C-33 18.38 -33 13.76 -33 9 C-23.43 9 -13.86 9 -4 9 C-3.67 7.68 -3.34 6.36 -3 5 C-1.5625 2.25 -1.5625 2.25 0 0 Z " fill="#181818" transform="translate(68,25)"/>
<path d="M0 0 C0.66 0 1.32 0 2 0 C0.80100302 3.0831351 -0.47700477 6.06279492 -2 9 C0.31 9 2.62 9 5 9 C5.28875 8.2575 5.5775 7.515 5.875 6.75 C6.82302644 4.43260203 7.84845911 2.22082885 9 0 C9.66 0 10.32 0 11 0 C10.37240135 2.92879371 9.41377341 5.36095629 8 8 C9.98 8 11.96 8 14 8 C14.61875 6.865625 15.2375 5.73125 15.875 4.5625 C17.75 1.125 17.75 1.125 20 0 C19.44271087 3.34373475 18.64826111 6.03312999 17 9 C19.64 9 22.28 9 25 9 C25 13.62 25 18.24 25 23 C24.67 23 24.34 23 24 23 C24 19.04 24 15.08 24 11 C19.32641839 10.69360804 19.32641839 10.69360804 15 12 C12.07224024 15.71804274 10.00519533 19.72525883 8 24 C11.63 24 15.26 24 19 24 C15.67311358 26.21792428 15.03013325 26.07250476 11.25 25.9375 C7.4513483 26.19371404 6.35210531 26.60061553 3.7890625 29.5078125 C2.06349342 32.26167989 0.51903659 35.12703949 -1 38 C4.28 38 9.56 38 15 38 C15 38.33 15 38.66 15 39 C12.03771875 39.64049324 9.39036965 40.03701283 6.36328125 39.75 C3.36956342 39.48861127 0.94598171 39.3715239 -2 40 C-4.71810773 42.66093912 -6.38887486 45.57380982 -8 49 C-9 46 -9 46 -8.22265625 44.17578125 C-7.1484375 42.45052083 -6.07421875 40.72526042 -5 39 C-5.598125 39.20625 -6.19625 39.4125 -6.8125 39.625 C-9 40 -9 40 -12 38 C-11.40832031 38.04382812 -10.81664062 38.08765625 -10.20703125 38.1328125 C-7.50056217 38.12398226 -5.54172762 37.9648364 -3 37 C-0.69005465 33.90425132 0.69262222 30.61992541 2 27 C0.02 26.67 -1.96 26.34 -4 26 C-4.309375 26.78375 -4.61875 27.5675 -4.9375 28.375 C-6 31 -6 31 -7 33 C-7.66 33 -8.32 33 -9 33 C-9 33.66 -9 34.32 -9 35 C-9.99 34.505 -9.99 34.505 -11 34 C-8.525 29.545 -8.525 29.545 -6 25 C-8.31 25 -10.62 25 -13 25 C-13 24.67 -13 24.34 -13 24 C-10.03 24 -7.06 24 -4 24 C-3.62875 23.01 -3.62875 23.01 -3.25 22 C-1.68182955 18.23639093 0.14505046 14.6288576 2 11 C-3.2346093 11.97258754 -3.2346093 11.97258754 -6.8125 15.625 C-7.204375 16.40875 -7.59625 17.1925 -8 18 C-8.66 18 -9.32 18 -10 18 C-8.125 13.25 -8.125 13.25 -7 11 C-14.92 11 -22.84 11 -31 11 C-31 15.29 -31 19.58 -31 24 C-25.72 24 -20.44 24 -15 24 C-15 24.33 -15 24.66 -15 25 C-20.40719589 25.92037377 -25.51322045 26.08441199 -31 26 C-31 29.63 -31 33.26 -31 37 C-28.36 37 -25.72 37 -23 37 C-23.33 37.99 -23.66 38.98 -24 40 C-26.97 40 -29.94 40 -33 40 C-34 37 -34 37 -34 26 C-45.22 26 -56.44 26 -68 26 C-68 25.01 -68 24.02 -68 23 C-56.45 23 -44.9 23 -33 23 C-33 18.38 -33 13.76 -33 9 C-23.43 9 -13.86 9 -4 9 C-3.67 7.68 -3.34 6.36 -3 5 C-1.5625 2.25 -1.5625 2.25 0 0 Z " fill="#1F1F1F" transform="translate(68,25)"/>
<path d="M0 0 C2.0728125 0.2475 2.0728125 0.2475 4.1875 0.5 C4.5175 4.46 4.8475 8.42 5.1875 12.5 C17.7275 12.83 30.2675 13.16 43.1875 13.5 C43.1875 14.16 43.1875 14.82 43.1875 15.5 C30.9775 15.83 18.7675 16.16 6.1875 16.5 C5.8575 20.79 5.5275 25.08 5.1875 29.5 C-0.0925 29.5 -5.3725 29.5 -10.8125 29.5 C-10.8125 29.17 -10.8125 28.84 -10.8125 28.5 C-14.1125 28.17 -17.4125 27.84 -20.8125 27.5 C-19.32899275 23.04947826 -17.44104287 18.58052495 -13.8125 15.5 C-10.46392412 14.62311413 -7.26436357 14.45308147 -3.8125 14.5 C-6.4525 14.17 -9.0925 13.84 -11.8125 13.5 C-7.1602649 -0.03377483 -7.1602649 -0.03377483 0 0 Z " fill="#242424" transform="translate(87.8125,35.5)"/>
<path d="M0 0 C0.70548981 0.00202423 1.41097961 0.00404846 2.1378479 0.00613403 C3.24756454 0.00350555 3.24756454 0.00350555 4.37969971 0.00082397 C6.83686638 -0.00359453 9.29396168 -0.00065657 11.75112915 0.00271606 C13.45124322 0.00204302 15.1513572 0.001073 16.85147095 -0.00018311 C20.41926996 -0.00166008 23.98704398 0.00049445 27.55484009 0.00515747 C32.13851409 0.01085476 36.72212954 0.00757575 41.30580139 0.00158501 C44.81782476 -0.00202063 48.32983414 -0.00088201 51.84185791 0.0017128 C53.53243008 0.00238206 55.22300351 0.00155367 56.91357422 -0.00076675 C59.27222072 -0.00329332 61.6307711 0.00054735 63.9894104 0.00613403 C64.69490021 0.0041098 65.40039001 0.00208557 66.1272583 0 C70.94936644 0.02126585 70.94936644 0.02126585 72.06362915 1.13552856 C72.1510056 2.98922468 72.17061068 4.84620397 72.1612854 6.70193481 C72.15645142 8.38899536 72.15645142 8.38899536 72.15151978 10.11013794 C72.13895142 11.8861438 72.13895142 11.8861438 72.12612915 13.69802856 C72.12161743 14.88589966 72.11710571 16.07377075 72.11245728 17.29763794 C72.1006259 20.24365082 72.08414202 23.18956537 72.06362915 26.13552856 C71.07362915 26.13552856 70.08362915 26.13552856 69.06362915 26.13552856 C69.03615856 23.98976994 69.01702453 21.84390416 69.00112915 19.69802856 C68.98952759 18.50306763 68.97792603 17.30810669 68.9659729 16.07693481 C69.07320686 11.74897208 69.58553894 7.43834047 70.06362915 3.13552856 C45.97362915 3.13552856 21.88362915 3.13552856 -2.93637085 3.13552856 C-2.93637085 10.39552856 -2.93637085 17.65552856 -2.93637085 25.13552856 C-3.92637085 25.46552856 -4.91637085 25.79552856 -5.93637085 26.13552856 C-5.96523836 21.9897097 -5.98312412 17.8439164 -5.99887085 13.69802856 C-6.00724976 12.51402466 -6.01562866 11.33002075 -6.02426147 10.11013794 C-6.02748413 8.98543091 -6.03070679 7.86072388 -6.0340271 6.70193481 C-6.03926392 5.65980835 -6.04450073 4.61768188 -6.04989624 3.54397583 C-5.8454583 -0.79318603 -3.83783748 0.01692515 0 0 Z " fill="#4E4E4E" transform="translate(30.936370849609375,14.864471435546875)"/>
<path d="M0 0 C0.6875 1.6875 0.6875 1.6875 1 4 C-0.4375 6.75 -0.4375 6.75 -2 9 C0.64 9 3.28 9 6 9 C6 13.62 6 18.24 6 23 C5.67 23 5.34 23 5 23 C5 19.04 5 15.08 5 11 C0.32641839 10.69360804 0.32641839 10.69360804 -4 12 C-6.92775976 15.71804274 -8.99480467 19.72525883 -11 24 C-7.37 24 -3.74 24 0 24 C-3.32688642 26.21792428 -3.96986675 26.07250476 -7.75 25.9375 C-11.5486517 26.19371404 -12.64789469 26.60061553 -15.2109375 29.5078125 C-16.93650658 32.26167989 -18.48096341 35.12703949 -20 38 C-14.72 38 -9.44 38 -4 38 C-4 38.33 -4 38.66 -4 39 C-6.96228125 39.64049324 -9.60963035 40.03701283 -12.63671875 39.75 C-15.63043658 39.48861127 -18.05401829 39.3715239 -21 40 C-23.71810773 42.66093912 -25.38887486 45.57380982 -27 49 C-28 46 -28 46 -27.22265625 44.17578125 C-26.1484375 42.45052083 -25.07421875 40.72526042 -24 39 C-24.598125 39.20625 -25.19625 39.4125 -25.8125 39.625 C-28 40 -28 40 -31 38 C-30.40832031 38.04382812 -29.81664062 38.08765625 -29.20703125 38.1328125 C-26.50056217 38.12398226 -24.54172762 37.9648364 -22 37 C-19.69005465 33.90425132 -18.30737778 30.61992541 -17 27 C-18.98 26.67 -20.96 26.34 -23 26 C-23.309375 26.78375 -23.61875 27.5675 -23.9375 28.375 C-25 31 -25 31 -26 33 C-26.66 33 -27.32 33 -28 33 C-28 33.66 -28 34.32 -28 35 C-28.66 34.67 -29.32 34.34 -30 34 C-28.35 31.03 -26.7 28.06 -25 25 C-27.31 25 -29.62 25 -32 25 C-32 24.67 -32 24.34 -32 24 C-29.03 24 -26.06 24 -23 24 C-22.731875 23.21625 -22.46375 22.4325 -22.1875 21.625 C-21 19 -21 19 -18 17 C-19.875 21.75 -19.875 21.75 -21 24 C-17.31371781 24.30587839 -17.31371781 24.30587839 -14 23 C-11.21296819 19.22836043 -9.08163065 15.19489703 -7 11 C-8.65 11 -10.3 11 -12 11 C-12 10.67 -12 10.34 -12 10 C-10.39125 9.7215625 -10.39125 9.7215625 -8.75 9.4375 C-6.33689856 8.77316438 -5.25526417 8.32021305 -3.6796875 6.34375 C-2.71499938 4.60016555 -1.85162399 2.80151228 -1 1 C-0.67 0.67 -0.34 0.34 0 0 Z " fill="#181818" transform="translate(87,25)"/>
<path d="M0 0 C7.92 0 15.84 0 24 0 C22 5 22 5 18 12 C12.06 12 6.12 12 0 12 C0 8.04 0 4.08 0 0 Z " fill="#FDFDFD" transform="translate(37,36)"/>
<path d="M0 0 C0.81662109 0.05865234 1.63324219 0.11730469 2.47460938 0.17773438 C3.31056641 0.20931641 4.14652344 0.24089844 5.0078125 0.2734375 C7.06076443 0.35555558 9.11189835 0.48110842 11.16210938 0.61523438 C10.83210938 4.57523438 10.50210938 8.53523438 10.16210938 12.61523438 C2.24210937 12.61523438 -5.67789063 12.61523438 -13.83789062 12.61523438 C-8.69324991 -0.24636741 -8.69324991 -0.24636741 0 0 Z " fill="#F9F9F9" transform="translate(80.837890625,50.384765625)"/>
<path d="M0 0 C2.20703125 0.01171875 2.20703125 0.01171875 5.89453125 0.51171875 C5.89453125 4.80171875 5.89453125 9.09171875 5.89453125 13.51171875 C0.94453125 13.51171875 -4.00546875 13.51171875 -9.10546875 13.51171875 C-4.09930352 0.99630568 -4.09930352 0.99630568 0 0 Z " fill="#F8F8F8" transform="translate(85.10546875,35.48828125)"/>
<path d="M0 0 C4.95 0 9.9 0 15 0 C12.12 8.64 12.12 8.64 9 12 C5.93847243 12.50761079 3.07329313 12.35461075 0 12 C-1.42166892 7.73499324 -0.57997373 4.44646526 0 0 Z " fill="#F8F8F8" transform="translate(37,51)"/>
<path d="M0 0 C1.5778125 0.2475 1.5778125 0.2475 3.1875 0.5 C1.59668899 5.12781386 -0.43330235 9.9019424 -3.8125 13.5 C-7.625 14 -7.625 14 -10.8125 13.5 C-6.46325107 0.84763948 -6.46325107 0.84763948 0 0 Z " fill="#EFEFEF" transform="translate(76.8125,35.5)"/>
<path d="M0 0 C11.55 0 23.1 0 35 0 C34.67 0.99 34.34 1.98 34 3 C22.78 3 11.56 3 0 3 C0 2.01 0 1.02 0 0 Z " fill="#5F5F5F" transform="translate(0,48)"/>
<path d="M0 0 C0.9075 0.12375 1.815 0.2475 2.75 0.375 C1.06326082 4.87297113 -1.06673892 9.10386302 -3.25 13.375 C-5.56 13.045 -7.87 12.715 -10.25 12.375 C-10.25 11.715 -10.25 11.055 -10.25 10.375 C-9.59 10.375 -8.93 10.375 -8.25 10.375 C-8.1675 9.83875 -8.085 9.3025 -8 8.75 C-6.52806461 4.08887126 -5.11879451 0.59063014 0 0 Z " fill="#F1F1F1" transform="translate(67.25,35.625)"/>
<path d="M0 0 C2.31 0 4.62 0 7 0 C5.02 3.96 3.04 7.92 1 12 C-1.31 12 -3.62 12 -6 12 C-5.67 10.35 -5.34 8.7 -5 7 C-4.34 7 -3.68 7 -3 7 C-2.690625 6.21625 -2.38125 5.4325 -2.0625 4.625 C-1 2 -1 2 0 0 Z " fill="#EFEFEF" transform="translate(64,51)"/>
<path d="M0 0 C1.36511719 0.17015625 1.36511719 0.17015625 2.7578125 0.34375 C0.30498231 8.45695755 0.30498231 8.45695755 -2.2421875 11.34375 C-5.0364865 11.78087796 -7.38858688 11.57765169 -10.2421875 11.34375 C-9.22785887 9.49515108 -8.17964834 7.66511144 -7.1171875 5.84375 C-6.53710938 4.8228125 -5.95703125 3.801875 -5.359375 2.75 C-3.2421875 0.34375 -3.2421875 0.34375 0 0 Z " fill="#F5F5F5" transform="translate(58.2421875,50.65625)"/>
<path d="M0 0 C0.33 0.99 0.66 1.98 1 3 C0.01 4.485 0.01 4.485 -1 6 C4.28 6 9.56 6 15 6 C15 6.33 15 6.66 15 7 C12.03771875 7.64049324 9.39036965 8.03701283 6.36328125 7.75 C3.36956342 7.48861127 0.94598171 7.3715239 -2 8 C-4.71810773 10.66093912 -6.38887486 13.57380982 -8 17 C-9 14 -9 14 -8.22265625 12.17578125 C-7.1484375 10.45052083 -6.07421875 8.72526042 -5 7 C-5.8971875 7.309375 -5.8971875 7.309375 -6.8125 7.625 C-9 8 -9 8 -12 6 C-11.38511719 5.98582031 -10.77023438 5.97164062 -10.13671875 5.95703125 C-7.66500527 5.81117256 -5.40322852 5.60506817 -3 5 C-0.8613923 2.61012067 -0.8613923 2.61012067 0 0 Z " fill="#101010" transform="translate(68,57)"/>
<path d="M0 0 C0.66 0 1.32 0 2 0 C2 0.99 2 1.98 2 3 C1.34 3 0.68 3 0 3 C0 3.66 0 4.32 0 5 C1.65 5 3.3 5 5 5 C4.67 6.32 4.34 7.64 4 9 C3.071875 8.938125 2.14375 8.87625 1.1875 8.8125 C-1.98395103 8.69105736 -1.98395103 8.69105736 -3.875 10.5 C-4.24625 10.995 -4.6175 11.49 -5 12 C-5.33 11.34 -5.66 10.68 -6 10 C-5.67 9.34 -5.34 8.68 -5 8 C-6.98 8 -8.96 8 -11 8 C-11 7.67 -11 7.34 -11 7 C-13.97 6.67 -16.94 6.34 -20 6 C-20 5.67 -20 5.34 -20 5 C-14.06 5 -8.12 5 -2 5 C-1.34 3.35 -0.68 1.7 0 0 Z " fill="#565656" transform="translate(57,43)"/>
<path d="M0 0 C1.98 0 3.96 0 6 0 C6 8.25 6 16.5 6 25 C5.01 25 4.02 25 3 25 C3.01571045 24.31373535 3.0314209 23.6274707 3.04760742 22.92041016 C3.10982719 19.82202337 3.14894898 16.72376776 3.1875 13.625 C3.21263672 12.54476563 3.23777344 11.46453125 3.26367188 10.3515625 C3.27333984 9.3203125 3.28300781 8.2890625 3.29296875 7.2265625 C3.3086792 6.27346191 3.32438965 5.32036133 3.34057617 4.33837891 C3.22818604 3.56671387 3.1157959 2.79504883 3 2 C2.01 1.34 1.02 0.68 0 0 Z " fill="#131313" transform="translate(97,16)"/>
<path d="M0 0 C0.66 0 1.32 0 2 0 C1.37240135 2.92879371 0.41377341 5.36095629 -1 8 C0.65 8.33 2.3 8.66 4 9 C4 9.33 4 9.66 4 10 C1.36 10.33 -1.28 10.66 -4 11 C-4.2475 11.969375 -4.495 12.93875 -4.75 13.9375 C-5.1625 14.948125 -5.575 15.95875 -6 17 C-8.125 17.875 -8.125 17.875 -10 18 C-8.125 13.25 -8.125 13.25 -7 11 C-8.32 10.34 -9.64 9.68 -11 9 C-8.69 9 -6.38 9 -4 9 C-3.71125 8.2575 -3.4225 7.515 -3.125 6.75 C-2.17697356 4.43260203 -1.15154089 2.22082885 0 0 Z " fill="#393939" transform="translate(77,25)"/>
<path d="M0 0 C0.33 0.66 0.66 1.32 1 2 C-0.4375 4.625 -0.4375 4.625 -2 7 C-0.35 7 1.3 7 3 7 C0 9 0 9 -4 9 C-4.309375 9.78375 -4.61875 10.5675 -4.9375 11.375 C-6 14 -6 14 -7 16 C-7.66 16 -8.32 16 -9 16 C-9 16.66 -9 17.32 -9 18 C-9.66 17.67 -10.32 17.34 -11 17 C-9.35 14.03 -7.7 11.06 -6 8 C-8.31 8 -10.62 8 -13 8 C-13 7.67 -13 7.34 -13 7 C-10.03 7 -7.06 7 -4 7 C-3.71125 6.21625 -3.4225 5.4325 -3.125 4.625 C-2 2 -2 2 0 0 Z " fill="#0E0E0E" transform="translate(68,42)"/>
<path d="M0 0 C0.99 0.33 1.98 0.66 3 1 C3 1.99 3 2.98 3 4 C1.68 4.33 0.36 4.66 -1 5 C-1.103125 5.556875 -1.20625 6.11375 -1.3125 6.6875 C-2.14178408 9.4769101 -3.34299056 11.6139064 -5 14 C-5.66 14 -6.32 14 -7 14 C-6.35455571 10.51460083 -4.89865603 7.97180943 -3 5 C-3.99 4.67 -4.98 4.34 -6 4 C-6.66 3.34 -7.32 2.68 -8 2 C-5.36 2 -2.72 2 0 2 C0 1.34 0 0.68 0 0 Z " fill="#3C3C3C" transform="translate(56,60)"/>
<path d="M0 0 C0.33 0 0.66 0 1 0 C1 7.26 1 14.52 1 22 C0.01 22.33 -0.98 22.66 -2 23 C-2 19.37 -2 15.74 -2 12 C-1.67 12 -1.34 12 -1 12 C-0.67 8.04 -0.34 4.08 0 0 Z " fill="#5C5C5C" transform="translate(27,18)"/>
<path d="M0 0 C0.33 0 0.66 0 1 0 C1.19448477 2.12437212 1.38038289 4.24953191 1.5625 6.375 C1.66691406 7.55835938 1.77132812 8.74171875 1.87890625 9.9609375 C2 13 2 13 1 15 C-1.64 15 -4.28 15 -7 15 C-7 14.67 -7 14.34 -7 14 C-8.65 13.67 -10.3 13.34 -12 13 C-12 12.67 -12 12.34 -12 12 C-10.37509046 11.97301811 -8.75005367 11.95361243 -7.125 11.9375 C-6.22007813 11.92589844 -5.31515625 11.91429687 -4.3828125 11.90234375 C-2 12 -2 12 0 13 C0 8.71 0 4.42 0 0 Z " fill="#636363" transform="translate(91,36)"/>
<path d="M0 0 C0.8353125 0.556875 0.8353125 0.556875 1.6875 1.125 C-0.97916667 3.79166667 -3.64583333 6.45833333 -6.3125 9.125 C-6.6425 8.465 -6.9725 7.805 -7.3125 7.125 C-6.375 5 -6.375 5 -5.3125 3.125 C-5.9725 2.465 -6.6325 1.805 -7.3125 1.125 C-2.88173077 -1.09038462 -2.88173077 -1.09038462 0 0 Z " fill="#333333" transform="translate(75.3125,48.875)"/>
<path d="M0 0 C0.99 0.33 1.98 0.66 3 1 C2.34 2.32 1.68 3.64 1 5 C4.63 5 8.26 5 12 5 C8.31282562 7.45811625 6.35654296 7.31118164 2 7 C1.01 6.34 0.02 5.68 -1 5 C-0.67 3.35 -0.34 1.7 0 0 Z " fill="#1E1E1E" transform="translate(75,44)"/>
<path d="M0 0 C3.63 0 7.26 0 11 0 C10.67 0.99 10.34 1.98 10 3 C7.03 3 4.06 3 1 3 C0.67 2.01 0.34 1.02 0 0 Z " fill="#4B4B4B" transform="translate(34,62)"/>
<path d="M0 0 C2.97 0 5.94 0 9 0 C9.33 0.99 9.66 1.98 10 3 C6.37 3 2.74 3 -1 3 C-0.67 2.01 -0.34 1.02 0 0 Z " fill="#515151" transform="translate(78,62)"/>
<path d="M0 0 C0.99 0.33 1.98 0.66 3 1 C0.525 4.465 0.525 4.465 -2 8 C-2.33 7.01 -2.66 6.02 -3 5 C-1.5625 2.3125 -1.5625 2.3125 0 0 Z " fill="#212121" transform="translate(62,66)"/>
<path d="M0 0 C0.33 0.99 0.66 1.98 1 3 C0.01 4.485 0.01 4.485 -1 6 C-1.66 6 -2.32 6 -3 6 C-3 6.66 -3 7.32 -3 8 C-3.66 7.67 -4.32 7.34 -5 7 C-2.25 1.125 -2.25 1.125 0 0 Z " fill="#181818" transform="translate(62,52)"/>
<path d="M0 0 C0.66 0 1.32 0 2 0 C1.40072174 3.35595828 0.15377564 5.37801226 -2 8 C-2 4.23312136 -1.76462683 3.08809695 0 0 Z " fill="#0E0E0E" transform="translate(77,25)"/>
</svg>
