<?xml version="1.0" encoding="UTF-8"?>
<svg version="1.1" xmlns="http://www.w3.org/2000/svg" width="133" height="122">
<path d="M0 0 C43.89 0 87.78 0 133 0 C133 40.26 133 80.52 133 122 C89.11 122 45.22 122 0 122 C0 81.74 0 41.48 0 0 Z " fill="#FEFEFE" transform="translate(0,0)"/>
<path d="M0 0 C39.37347664 -2.83077283 39.37347664 -2.83077283 48.62109375 4.8984375 C54.15393033 9.919429 58.81720187 15.82912322 63 22 C66.27020479 20.46358576 68.08290486 19.00150413 70.375 16.1875 C73.31939774 12.69691334 76.48189845 9.91927576 80 7 C80.84954633 5.80046761 81.69468467 4.59780505 82.53613281 3.39257812 C84.39792511 1.20394769 85.46843986 0.14667692 88.25793457 -0.62304688 C90.98342299 -0.82564815 93.62798488 -0.81389934 96.359375 -0.71875 C97.34496399 -0.71121704 98.33055298 -0.70368408 99.3460083 -0.69592285 C102.48212278 -0.66347964 105.61482573 -0.58180808 108.75 -0.5 C110.87366129 -0.47345019 112.99736344 -0.44997896 115.12109375 -0.4296875 C118.99367115 -0.37942922 122.86563692 -0.32352221 126.73730469 -0.22460938 C127.5141864 -0.20571655 128.29106812 -0.18682373 129.0914917 -0.1673584 C131 0 131 0 133 1 C133 17.17 133 33.34 133 50 C89.11 50 45.22 50 0 50 C0 33.5 0 17 0 0 Z " fill="#FEFEFE" transform="translate(0,72)"/>
<path d="M0 0 C3.12226607 0.30263648 4.58084874 0.51572896 6.67358398 2.93359375 C7.19251221 3.75988281 7.71144043 4.58617187 8.24609375 5.4375 C13.39063325 12.5185675 18.73045039 19.51591869 27.59185791 21.61352539 C41.85528975 23.75443096 56.65366638 22.82870794 71 22 C71 22.99 71 23.98 71 25 C55.29649572 25.12135629 39.67784758 24.93201642 24 24 C23.731875 24.639375 23.46375 25.27875 23.1875 25.9375 C22 28 22 28 19 29 C17.79117904 31.00016466 17.79117904 31.00016466 17 33 C16.34 33 15.68 33 15 33 C14.67 33.99 14.34 34.98 14 36 C13.34 36 12.68 36 12 36 C11.61714844 36.87398437 11.61714844 36.87398437 11.2265625 37.765625 C9.88258913 40.21388223 8.38189704 41.81743248 6.375 43.75 C5.42753906 44.67039062 5.42753906 44.67039062 4.4609375 45.609375 C3.97882813 46.06828125 3.49671875 46.5271875 3 47 C-0.66396414 45.5351131 -2.13521676 43.69743603 -4.32421875 40.46484375 C-10.25192532 32.68209387 -15.94287903 25.61774233 -25.95361328 23.96337891 C-37.89148256 22.6184786 -50.03929602 23.21708058 -62 24 C-62 23.34 -62 22.68 -62 22 C-60.13081909 22.00169189 -60.13081909 22.00169189 -58.22387695 22.00341797 C-53.59223099 21.99974177 -48.96162535 21.95690545 -44.33032227 21.90234375 C-42.3274608 21.88419631 -40.32447421 21.87661297 -38.3215332 21.87988281 C-35.43863368 21.88274354 -32.55832201 21.84739274 -29.67578125 21.8046875 C-28.78288895 21.81378143 -27.88999664 21.82287537 -26.970047 21.83224487 C-22.30065747 21.80862149 -22.30065747 21.80862149 -18.35995483 19.61090088 C-17.1661197 18.13056599 -16.07462487 16.56901724 -15 15 C-14.34 15 -13.68 15 -13 15 C-13 14.34 -13 13.68 -13 13 C-12.34 13 -11.68 13 -11 13 C-10.75378906 12.41476563 -10.50757813 11.82953125 -10.25390625 11.2265625 C-8.80626232 8.65597983 -7.20757518 7.24544307 -4.9375 5.375 C-2.02124288 3.04514448 -2.02124288 3.04514448 0 0 Z " fill="#181818" transform="translate(62,48)"/>
<path d="M0 0 C3.54433654 1.41773462 4.33806119 2.67612238 6 6 C7.93330603 7.09166275 7.93330603 7.09166275 10 8 C11.75 9.5 11.75 9.5 13 11 C13 11.66 13 12.32 13 13 C14.32 13.66 15.64 14.32 17 15 C17 15.66 17 16.32 17 17 C18.32 17.66 19.64 18.32 21 19 C21 19.33 21 19.66 21 20 C16.38 20.33 11.76 20.66 7 21 C6.34 19.35 5.68 17.7 5 16 C2.36 16 -0.28 16 -3 16 C-3.66 17.32 -4.32 18.64 -5 20 C-9.29 20 -13.58 20 -18 20 C-16.87314977 16.61944932 -15.94615375 15.8920618 -13.25 13.6875 C-9.70615765 10.68789058 -6.89478206 7.61847757 -4 4 C-2.68456137 2.64900897 -1.35824882 1.30794331 0 0 Z " fill="#F9F9F9" transform="translate(63,50)"/>
<path d="M0 0 C4.29 0 8.58 0 13 0 C13.66 1.32 14.32 2.64 15 4 C18.3186024 5.13531135 20.68989426 5.10336858 24 4 C24.33 2.68 24.66 1.36 25 0 C29.29 0 33.58 0 38 0 C35.35319062 4.41134897 33.87873999 6.03990896 30 9 C29.67 9.66 29.34 10.32 29 11 C28.34 11 27.68 11 27 11 C27 11.66 27 12.32 27 13 C24.625 15.625 24.625 15.625 22 18 C21.34 18 20.68 18 20 18 C20 18.66 20 19.32 20 20 C16.36938333 18.46781315 14.0136227 16.2816856 11.25 13.5 C10.45078125 12.7059375 9.6515625 11.911875 8.828125 11.09375 C7 9 7 9 7 7 C5.68 6.34 4.36 5.68 3 5 C3 4.34 3 3.68 3 3 C2.01 2.67 1.02 2.34 0 2 C0 1.34 0 0.68 0 0 Z " fill="#F9F9F9" transform="translate(45,72)"/>
<path d="M0 0 C2.36010742 0.24291992 2.36010742 0.24291992 5 1 C6.30200195 2.79418945 6.30200195 2.79418945 7.23828125 5.11328125 C7.58310547 5.94923828 7.92792969 6.78519531 8.28320312 7.64648438 C8.62287109 8.52626953 8.96253906 9.40605469 9.3125 10.3125 C9.67150391 11.18068359 10.03050781 12.04886719 10.40039062 12.94335938 C12.01686949 16.95530598 13 19.60148167 13 24 C11.68 24 10.36 24 9 24 C8.67 21.69 8.34 19.38 8 17 C4.37 17 0.74 17 -3 17 C-3.33 18.98 -3.66 20.96 -4 23 C-5.65 23.33 -7.3 23.66 -9 24 C-6.41874331 15.82602049 -3.22988119 7.93359166 0 0 Z " fill="#171717" transform="translate(82,19)"/>
<path d="M0 0 C2.5 1.8125 2.5 1.8125 4 4 C3.75 6.25 3.75 6.25 3 8 C0 7 0 7 -1.25 5.375 C-3.10614778 3.60032564 -3.10614778 3.60032564 -6.625 4.25 C-9.82263935 4.64368085 -9.82263935 4.64368085 -11 6 C-11.33243079 10.73225005 -11.18893275 15.39288558 -10 20 C-5.34947128 20.26932521 -5.34947128 20.26932521 -1 19 C0.13350534 16.98330173 0.13350534 16.98330173 1 15 C1.99 15.33 2.98 15.66 4 16 C3.68762196 18.88949684 3.35661121 20.58633099 1.4375 22.8125 C-2.04181799 24.50755235 -5.2451012 24.52255053 -9 24 C-11.875 23 -11.875 23 -14 21 C-16.2637874 14.82603436 -16.25397142 10.10390648 -14.3125 3.75 C-10.56014846 -1.25313539 -5.66570732 -1.57380759 0 0 Z " fill="#161616" transform="translate(41,19)"/>
<path d="M0 0 C5.41161122 -0.44357469 5.41161122 -0.44357469 8 0 C8.433125 0.825 8.86625 1.65 9.3125 2.5 C9.869375 3.325 10.42625 4.15 11 5 C14.69511423 5.46878315 18.29350775 5.28317853 22 5 C22.495 5.99 22.495 5.99 23 7 C18.71 7 14.42 7 10 7 C9.67 8.32 9.34 9.64 9 11 C6.25 12.4375 6.25 12.4375 3 13 C0.125 11.8125 0.125 11.8125 -2 10 C-2 9.01 -2 8.02 -2 7 C-6.29 7 -10.58 7 -15 7 C-13 5 -13 5 -10.3984375 4.8046875 C-9.40070312 4.82789062 -8.40296875 4.85109375 -7.375 4.875 C-5.87066406 4.90207031 -5.87066406 4.90207031 -4.3359375 4.9296875 C-3.56507812 4.95289062 -2.79421875 4.97609375 -2 5 C-1.34 3.35 -0.68 1.7 0 0 Z " fill="#0D0D0D" transform="translate(60,65)"/>
<path d="M0 0 C1.32 0.33 2.64 0.66 4 1 C3.98839844 1.68707031 3.97679687 2.37414062 3.96484375 3.08203125 C3.95582031 3.98308594 3.94679687 4.88414063 3.9375 5.8125 C3.92589844 6.70582031 3.91429687 7.59914063 3.90234375 8.51953125 C3.88990033 11.13413791 3.88990033 11.13413791 5 14 C6.65 14 8.3 14 10 14 C10.33 9.38 10.66 4.76 11 0 C12.32 0.33 13.64 0.66 15 1 C14.67 6.61 14.34 12.22 14 18 C13.01 18 12.02 18 11 18 C11 17.34 11 16.68 11 16 C10.34 16 9.68 16 9 16 C9 16.66 9 17.32 9 18 C5.625 18.125 5.625 18.125 2 18 C0 16 0 16 -0.1953125 12.3046875 C-0.182009 10.82799892 -0.15814835 9.35137642 -0.125 7.875 C-0.11146484 6.74384766 -0.11146484 6.74384766 -0.09765625 5.58984375 C-0.0740687 3.72642746 -0.03819719 1.86317407 0 0 Z " fill="#121212" transform="translate(49,25)"/>
<path d="M0 0 C1.65 0 3.3 0 5 0 C5 7.92 5 15.84 5 24 C3.35 23.67 1.7 23.34 0 23 C0 15.41 0 7.82 0 0 Z " fill="#2F2F2F" transform="translate(96,19)"/>
<path d="M0 0 C14.52 0 29.04 0 44 0 C44 0.99 44 1.98 44 3 C28.96152009 3.1144481 14.00794906 3.01258452 -1 2 C-0.67 1.34 -0.34 0.68 0 0 Z " fill="#0C0C0C" transform="translate(89,70)"/>
<path d="M0 0 C0.99 0 1.98 0 3 0 C2.30713168 4.65520906 1.23800542 9.15263231 0 13.6875 C-0.17789063 14.35072266 -0.35578125 15.01394531 -0.5390625 15.69726562 C-1.29354264 18.49278347 -2.08412744 21.25238233 -3 24 C-3.99 24 -4.98 24 -6 24 C-5.36145015 18.47324097 -4.06306646 13.37632649 -2.4375 8.0625 C-2.20353516 7.28326172 -1.96957031 6.50402344 -1.72851562 5.70117188 C-1.15682579 3.79942813 -0.57904309 1.89951774 0 0 Z " fill="#181818" transform="translate(71,19)"/>
<path d="M0 0 C2.97903734 2.97903734 4 5.80285329 4 10 C1.69 10 -0.62 10 -3 10 C-2.01 6.7 -1.02 3.4 0 0 Z " fill="#E8E8E8" transform="translate(84,23)"/>
<path d="M0 0 C2.6015625 -0.29296875 2.6015625 -0.29296875 5.625 -0.1875 C7.12933594 -0.14689453 7.12933594 -0.14689453 8.6640625 -0.10546875 C9.43492187 -0.07066406 10.20578125 -0.03585938 11 0 C11 0.99 11 1.98 11 3 C6.71 3 2.42 3 -2 3 C-1.34 2.01 -0.68 1.02 0 0 Z " fill="#3F3F3F" transform="translate(122,70)"/>
<path d="M0 0 C2.31 0 4.62 0 7 0 C6.67 0.66 6.34 1.32 6 2 C2.9375 2.625 2.9375 2.625 0 3 C0 2.01 0 1.02 0 0 Z " fill="#212121" transform="translate(115,70)"/>
</svg>
