<?xml version="1.0" encoding="UTF-8"?>
<svg version="1.1" xmlns="http://www.w3.org/2000/svg" width="185" height="139">
<path d="M0 0 C61.05 0 122.1 0 185 0 C185 45.87 185 91.74 185 139 C123.95 139 62.9 139 0 139 C0 93.13 0 47.26 0 0 Z " fill="#FDFDFD" transform="translate(0,0)"/>
<path d="M0 0 C61.05 0 122.1 0 185 0 C185 20.79 185 41.58 185 63 C166.02181437 63.04737966 147.04480579 63.06636297 128.06666565 63.01428223 C120.6374863 62.99581261 113.21138215 63.00340075 105.78259277 63.09848022 C88.65879062 63.30231554 75.35935036 62.23772337 61 52 C59.3427717 50.98443506 57.67754901 49.98163492 56 49 C55.27167969 48.54882812 54.54335938 48.09765625 53.79296875 47.6328125 C48.91186794 44.77924587 43.87780393 42.20773161 38.86132812 39.6015625 C34.17830492 37.16561957 29.5644691 34.65191377 25 32 C25 29.03 25 26.06 25 23 C24.34 23 23.68 23 23 23 C23 25.31 23 27.62 23 30 C20.36 28.68 17.72 27.36 15 26 C17.64354525 28.83236991 19.43688534 30.21844267 23 32 C23 42.23 23 52.46 23 63 C15.41 63 7.82 63 0 63 C0 42.21 0 21.42 0 0 Z " fill="#FDFDFD" transform="translate(0,0)"/>
<path d="M0 0 C0.66 0 1.32 0 2 0 C2 2.97 2 5.94 2 9 C2.83144531 9.24234375 3.66289062 9.4846875 4.51953125 9.734375 C8.52863965 11.1922326 12.00926713 13.11358112 15.6875 15.25 C17.11032541 16.06441679 18.53350371 16.87821736 19.95703125 17.69140625 C20.64748535 18.08730957 21.33793945 18.48321289 22.04931641 18.89111328 C24.63715801 20.36219921 27.25341125 21.77760134 29.875 23.1875 C33.29129466 25.03565941 36.62659626 26.96938233 39.9375 29 C41.62216671 30.00476581 43.31005884 31.00413097 45 32 C45.86842529 32.52037842 46.73685059 33.04075684 47.6315918 33.5769043 C55.56005502 37.96603449 61.9041832 38.85769725 70.875 38.8125 C72.29861567 38.82719412 73.72220311 38.84483642 75.14575195 38.86499023 C78.5781598 38.90878309 82.0102297 38.93406836 85.44287109 38.95117188 C93.58379256 39.00069497 101.72330531 39.13716594 109.86328125 39.265625 C113.06591368 39.31562648 116.26855115 39.36529722 119.47119141 39.41479492 C120.67106375 39.43336186 120.67106375 39.43336186 121.89517593 39.45230389 C130.56928183 39.58547506 139.2435925 39.70240993 147.91796875 39.81640625 C148.63878443 39.82589043 149.35960011 39.8353746 150.10225868 39.84514618 C154.06816636 39.8972385 158.03408002 39.94885344 162 40 C162 40.33 162 40.66 162 41 C148.76921419 41.36451998 135.53839656 41.67198716 122.30468273 41.90927315 C116.15773522 42.02122759 110.01243639 42.15184494 103.86694336 42.32714844 C97.92145679 42.49602608 91.97687434 42.61322194 86.02959633 42.69659042 C83.77574747 42.73688837 81.52213453 42.79492532 79.26924706 42.87210464 C64.1496775 43.37480267 53.67422238 41.4283309 40.85471821 33.18187523 C38.37472958 31.60156124 35.80250461 30.21599828 33.20703125 28.8359375 C31.74068079 28.01832137 30.27599919 27.1977089 28.8125 26.375 C26.234375 24.93125 23.65625 23.4875 21 22 C21 30.25 21 38.5 21 47 C22.92585938 46.98839844 24.85171875 46.97679687 26.8359375 46.96484375 C29.34895737 46.95546681 31.86197828 46.94636651 34.375 46.9375 C35.64601562 46.92912109 36.91703125 46.92074219 38.2265625 46.91210938 C39.43828125 46.90888672 40.65 46.90566406 41.8984375 46.90234375 C43.57945557 46.89448853 43.57945557 46.89448853 45.29443359 46.88647461 C48 47 48 47 50 48 C50.02465746 52.1117256 50.04283959 56.22342278 50.05493164 60.33520508 C50.0599708 61.73495228 50.06680216 63.1346942 50.07543945 64.53442383 C50.0875232 66.54245777 50.09269807 68.55052957 50.09765625 70.55859375 C50.10289307 71.76829834 50.10812988 72.97800293 50.11352539 74.22436523 C50 77 50 77 49 78 C47.23083613 78.0989348 45.45771848 78.1279909 43.68579102 78.12939453 C42.55113907 78.13254669 41.41648712 78.13569885 40.24745178 78.13894653 C38.39439674 78.13591019 38.39439674 78.13591019 36.50390625 78.1328125 C35.24488998 78.13376923 33.98587372 78.13472595 32.68870544 78.13571167 C30.01956789 78.1363938 27.35052114 78.13503508 24.68139648 78.13037109 C21.2569312 78.12467957 17.83254439 78.12794924 14.40808201 78.13394356 C11.14835393 78.13842327 7.88863536 78.13528769 4.62890625 78.1328125 C3.39556046 78.13483673 2.16221466 78.13686096 0.89149475 78.13894653 C-0.24630936 78.13579437 -1.38411346 78.13264221 -2.55639648 78.12939453 C-3.56153793 78.12859894 -4.56667938 78.12780334 -5.60227966 78.12698364 C-8 78 -8 78 -10 77 C-10.02465746 72.8882744 -10.04283959 68.77657722 -10.05493164 64.66479492 C-10.0599708 63.26504772 -10.06680216 61.8653058 -10.07543945 60.46557617 C-10.0875232 58.45754223 -10.09269807 56.44947043 -10.09765625 54.44140625 C-10.10551147 52.62684937 -10.10551147 52.62684937 -10.11352539 50.77563477 C-10 48 -10 48 -9 47 C-6.92737924 46.91232888 -4.85179706 46.89304127 -2.77734375 46.90234375 C-1.51728516 46.90556641 -0.25722656 46.90878906 1.04101562 46.91210938 C2.38151109 46.92046597 3.72200588 46.92893093 5.0625 46.9375 C6.40689942 46.9425134 7.7513006 46.94707658 9.09570312 46.95117188 C12.39717941 46.96300512 15.69856803 46.97949029 19 47 C18.75552124 45.67524658 18.75552124 45.67524658 18.50610352 44.32373047 C18.06281404 41.41251824 17.88422056 38.75626995 17.90234375 35.8203125 C17.90556641 34.8921875 17.90878906 33.9640625 17.91210938 33.0078125 C17.92467773 31.58082031 17.92467773 31.58082031 17.9375 30.125 C17.94201172 29.15046875 17.94652344 28.1759375 17.95117188 27.171875 C17.96289094 24.78118566 17.97929781 22.3906256 18 20 C16.25048432 19.04078278 14.50036756 18.08266183 12.75 17.125 C11.77546875 16.59132813 10.8009375 16.05765625 9.796875 15.5078125 C7.55266616 14.29794572 5.28039486 13.14019743 3 12 C2.67 21.57 2.34 31.14 2 41 C-6.25 41 -14.5 41 -23 41 C-23 40.67 -23 40.34 -23 40 C-15.41 40 -7.82 40 0 40 C0 29.77 0 19.54 0 9 C-1.98 8.34 -3.96 7.68 -6 7 C-7.375 4.875 -7.375 4.875 -8 3 C-3.25 4.875 -3.25 4.875 -1 6 C-0.67 4.02 -0.34 2.04 0 0 Z " fill="#F3F3F3" transform="translate(23,23)"/>
<path d="M0 0 C0.66 0 1.32 0 2 0 C2 2.97 2 5.94 2 9 C2.83144531 9.24234375 3.66289062 9.4846875 4.51953125 9.734375 C8.52863965 11.1922326 12.00926713 13.11358112 15.6875 15.25 C17.11032541 16.06441679 18.53350371 16.87821736 19.95703125 17.69140625 C20.64748535 18.08730957 21.33793945 18.48321289 22.04931641 18.89111328 C24.63715801 20.36219921 27.25341125 21.77760134 29.875 23.1875 C33.29129466 25.03565941 36.62659626 26.96938233 39.9375 29 C41.62216671 30.00476581 43.31005884 31.00413097 45 32 C45.86842529 32.52037842 46.73685059 33.04075684 47.6315918 33.5769043 C55.56005502 37.96603449 61.9041832 38.85769725 70.875 38.8125 C72.29861567 38.82719412 73.72220311 38.84483642 75.14575195 38.86499023 C78.5781598 38.90878309 82.0102297 38.93406836 85.44287109 38.95117188 C93.58379256 39.00069497 101.72330531 39.13716594 109.86328125 39.265625 C113.06591368 39.31562648 116.26855115 39.36529722 119.47119141 39.41479492 C120.67106375 39.43336186 120.67106375 39.43336186 121.89517593 39.45230389 C130.56928183 39.58547506 139.2435925 39.70240993 147.91796875 39.81640625 C148.63878443 39.82589043 149.35960011 39.8353746 150.10225868 39.84514618 C154.06816636 39.8972385 158.03408002 39.94885344 162 40 C162 40.33 162 40.66 162 41 C148.76921419 41.36451998 135.53839656 41.67198716 122.30468273 41.90927315 C116.15773522 42.02122759 110.01243639 42.15184494 103.86694336 42.32714844 C97.92145679 42.49602608 91.97687434 42.61322194 86.02959633 42.69659042 C83.77574747 42.73688837 81.52213453 42.79492532 79.26924706 42.87210464 C64.1496775 43.37480267 53.67422238 41.4283309 40.85471821 33.18187523 C38.37472958 31.60156124 35.80250461 30.21599828 33.20703125 28.8359375 C31.74068079 28.01832137 30.27599919 27.1977089 28.8125 26.375 C26.234375 24.93125 23.65625 23.4875 21 22 C21 30.25 21 38.5 21 47 C22.92585938 46.98839844 24.85171875 46.97679687 26.8359375 46.96484375 C29.34895737 46.95546681 31.86197828 46.94636651 34.375 46.9375 C35.64601562 46.92912109 36.91703125 46.92074219 38.2265625 46.91210938 C39.43828125 46.90888672 40.65 46.90566406 41.8984375 46.90234375 C43.57945557 46.89448853 43.57945557 46.89448853 45.29443359 46.88647461 C48 47 48 47 50 48 C50.02465746 52.1117256 50.04283959 56.22342278 50.05493164 60.33520508 C50.0599708 61.73495228 50.06680216 63.1346942 50.07543945 64.53442383 C50.0875232 66.54245777 50.09269807 68.55052957 50.09765625 70.55859375 C50.10289307 71.76829834 50.10812988 72.97800293 50.11352539 74.22436523 C50 77 50 77 49 78 C47.23083613 78.0989348 45.45771848 78.1279909 43.68579102 78.12939453 C42.55113907 78.13254669 41.41648712 78.13569885 40.24745178 78.13894653 C38.39439674 78.13591019 38.39439674 78.13591019 36.50390625 78.1328125 C35.24488998 78.13376923 33.98587372 78.13472595 32.68870544 78.13571167 C30.01956789 78.1363938 27.35052114 78.13503508 24.68139648 78.13037109 C21.2569312 78.12467957 17.83254439 78.12794924 14.40808201 78.13394356 C11.14835393 78.13842327 7.88863536 78.13528769 4.62890625 78.1328125 C3.39556046 78.13483673 2.16221466 78.13686096 0.89149475 78.13894653 C-0.24630936 78.13579437 -1.38411346 78.13264221 -2.55639648 78.12939453 C-3.56153793 78.12859894 -4.56667938 78.12780334 -5.60227966 78.12698364 C-8 78 -8 78 -10 77 C-10.02465746 72.8882744 -10.04283959 68.77657722 -10.05493164 64.66479492 C-10.0599708 63.26504772 -10.06680216 61.8653058 -10.07543945 60.46557617 C-10.0875232 58.45754223 -10.09269807 56.44947043 -10.09765625 54.44140625 C-10.10551147 52.62684937 -10.10551147 52.62684937 -10.11352539 50.77563477 C-10 48 -10 48 -9 47 C-6.92737924 46.91232888 -4.85179706 46.89304127 -2.77734375 46.90234375 C-1.51728516 46.90556641 -0.25722656 46.90878906 1.04101562 46.91210938 C2.38151109 46.92046597 3.72200588 46.92893093 5.0625 46.9375 C6.40689942 46.9425134 7.7513006 46.94707658 9.09570312 46.95117188 C12.39717941 46.96300512 15.69856803 46.97949029 19 47 C18.75552124 45.67524658 18.75552124 45.67524658 18.50610352 44.32373047 C18.06281404 41.41251824 17.88422056 38.75626995 17.90234375 35.8203125 C17.90556641 34.8921875 17.90878906 33.9640625 17.91210938 33.0078125 C17.92467773 31.58082031 17.92467773 31.58082031 17.9375 30.125 C17.94201172 29.15046875 17.94652344 28.1759375 17.95117188 27.171875 C17.96289094 24.78118566 17.97929781 22.3906256 18 20 C16.25048432 19.04078278 14.50036756 18.08266183 12.75 17.125 C11.77546875 16.59132813 10.8009375 16.05765625 9.796875 15.5078125 C7.55266616 14.29794572 5.28039486 13.14019743 3 12 C2.67 21.57 2.34 31.14 2 41 C-6.25 41 -14.5 41 -23 41 C-23 40.67 -23 40.34 -23 40 C-15.41 40 -7.82 40 0 40 C0 29.77 0 19.54 0 9 C-1.98 8.34 -3.96 7.68 -6 7 C-7.375 4.875 -7.375 4.875 -8 3 C-3.25 4.875 -3.25 4.875 -1 6 C-0.67 4.02 -0.34 2.04 0 0 Z M-7 49 C-7 57.91 -7 66.82 -7 76 C-2.38 76 2.24 76 7 76 C6.01 75.67 5.02 75.34 4 75 C4 70.05 4 65.1 4 60 C6.64 59.67 9.28 59.34 12 59 C12.33 59.99 12.66 60.98 13 62 C13.66 61.34 14.32 60.68 15 60 C18 59.6875 18 59.6875 21 60 C21.99 61.485 21.99 61.485 23 63 C20.69 62.67 18.38 62.34 16 62 C16 62.99 16 63.98 16 65 C18.31 65.66 20.62 66.32 23 67 C23 69.31 23 71.62 23 74 C21.35 74.33 19.7 74.66 18 75 C18 75.33 18 75.66 18 76 C27.9 76 37.8 76 48 76 C48 67.09 48 58.18 48 49 C29.85 49 11.7 49 -7 49 Z " fill="#0A0A0A" transform="translate(23,23)"/>
<path d="M0 0 C3.1359157 1.77984405 3.84102736 2.52308207 5 6 C5.49450304 12.05766225 5.93381416 18.01716872 2 23 C-1.27505144 24.13914833 -3.35804115 24.11671979 -6.75 23.5 C-9 22 -9 22 -10.3125 18.8125 C-11.41115591 12.71995357 -11.53547912 7.73818959 -9 2 C-5.51131349 -0.32579101 -4.10281481 -0.41865457 0 0 Z " fill="#181818" transform="translate(111,72)"/>
<path d="M0 0 C0.33 0.66 0.66 1.32 1 2 C1.66 1.34 2.32 0.68 3 0 C5.9375 -0.4375 5.9375 -0.4375 9 0 C10.875 2.5 10.875 2.5 12 5 C6.25 4.125 6.25 4.125 4 3 C4 3.99 4 4.98 4 6 C5.134375 6.144375 6.26875 6.28875 7.4375 6.4375 C11 7 11 7 12 8 C11.71269945 10.33944736 11.38063221 12.6739143 11 15 C7.30255188 16.70082613 4.43599253 17.24903019 0.375 17.1875 C-0.56601562 17.18105469 -1.50703125 17.17460938 -2.4765625 17.16796875 C-5 17 -5 17 -8 16 C-8 11.05 -8 6.1 -8 1 C-5.07175348 0.02391783 -3.04386724 -0.08226668 0 0 Z " fill="#E2E2E2" transform="translate(35,82)"/>
<path d="M0 0 C3.02559518 0.11168808 3.02559518 0.11168808 6 -0.6875 C9 -1 9 -1 10.67578125 -0.03125 C12.75657883 3.1605339 12.31264882 6.51325909 12.1875 10.1875 C12.16719727 11.31188477 12.16719727 11.31188477 12.14648438 12.45898438 C12.11118539 14.30629767 12.05737917 16.15324066 12 18 C10.68 17.67 9.36 17.34 8 17 C8 12.38 8 7.76 8 3 C6.35 3.33 4.7 3.66 3 4 C2.67 8.62 2.34 13.24 2 18 C0.68 17.67 -0.64 17.34 -2 17 C-2.33 12.38 -2.66 7.76 -3 3 C-4.32 3.33 -5.64 3.66 -7 4 C-7.33 8.29 -7.66 12.58 -8 17 C-9.32 17 -10.64 17 -12 17 C-12 11.39 -12 5.78 -12 0 C-4.36363636 -1.09090909 -4.36363636 -1.09090909 0 0 Z " fill="#202020" transform="translate(130,78)"/>
<path d="M0 0 C1.65 0 3.3 0 5 0 C6.34146494 3.43438215 7.67175905 6.87298417 9 10.3125 C9.3815625 11.28896484 9.763125 12.26542969 10.15625 13.27148438 C10.5171875 14.20927734 10.878125 15.14707031 11.25 16.11328125 C11.58515625 16.97735596 11.9203125 17.84143066 12.265625 18.73168945 C13 21 13 21 13 24 C11.68 23.67 10.36 23.34 9 23 C8.67 21.02 8.34 19.04 8 17 C7.37351563 17.01160156 6.74703125 17.02320312 6.1015625 17.03515625 C5.28429687 17.04417969 4.46703125 17.05320312 3.625 17.0625 C2.81289062 17.07410156 2.00078125 17.08570312 1.1640625 17.09765625 C-1 17 -1 17 -3 16 C-3.33 18.31 -3.66 20.62 -4 23 C-5.65 23.33 -7.3 23.66 -9 24 C-8.30708088 19.56018487 -6.75765004 15.57171484 -5.0625 11.4375 C-4.79759766 10.77814453 -4.53269531 10.11878906 -4.25976562 9.43945312 C-2.95840176 6.22640835 -1.6160877 3.06822447 0 0 Z " fill="#1B1B1B" transform="translate(152,72)"/>
<path d="M0 0 C0.99 0 1.98 0 3 0 C3.33 6.6 3.66 13.2 4 20 C2.68 20 1.36 20 0 20 C-0.66 20.185625 -1.32 20.37125 -2 20.5625 C-4.40187927 21.08791109 -5.72308322 20.91076671 -8 20 C-10.46803687 16.29794469 -10.55288088 13.29346556 -10 9 C-8.8125 6.5 -8.8125 6.5 -7 5 C-4.375 4.6875 -4.375 4.6875 -2 5 C-1.67 5.33 -1.34 5.66 -1 6 C-0.67 4.02 -0.34 2.04 0 0 Z " fill="#141414" transform="translate(59,77)"/>
<path d="M0 0 C0.66 0 1.32 0 2 0 C2 8.91 2 17.82 2 27 C4.24554688 26.9278125 6.49109375 26.855625 8.8046875 26.78125 C39.48534342 25.81391466 39.48534342 25.81391466 54 26 C54 26.99 54 27.98 54 29 C46.48861406 29.0252899 38.97723903 29.04284141 31.46582031 29.05493164 C28.90884999 29.05997017 26.35188257 29.06680107 23.79492188 29.07543945 C20.12629483 29.08752602 16.45770577 29.09323301 12.7890625 29.09765625 C11.64007477 29.10281754 10.49108704 29.10797882 9.30728149 29.11329651 C8.2463327 29.11337204 7.18538391 29.11344757 6.09228516 29.11352539 C4.68663803 29.11685631 4.68663803 29.11685631 3.25259399 29.12025452 C1 29 1 29 -1 28 C-1.02891949 23.70834738 -1.04677118 19.41671964 -1.0625 15.125 C-1.07087891 13.90167969 -1.07925781 12.67835937 -1.08789062 11.41796875 C-1.09111328 10.25136719 -1.09433594 9.08476563 -1.09765625 7.8828125 C-1.10289307 6.80402832 -1.10812988 5.72524414 -1.11352539 4.61376953 C-1 2 -1 2 0 0 Z " fill="#161616" transform="translate(14,72)"/>
<path d="M0 0 C3.625 0.375 3.625 0.375 6.125 1.9375 C8.22356473 5.34766769 7.32379888 7.53160614 6.625 11.375 C7.615 12.86 7.615 12.86 8.625 14.375 C8.17216981 20.82783019 8.17216981 20.82783019 5.625 23.375 C1.44649587 24.47875581 -0.5043293 24.87517253 -4.3125 22.6875 C-6.375 20.375 -6.375 20.375 -6.375 16.375 C-5.055 16.705 -3.735 17.035 -2.375 17.375 C-2.375 18.365 -2.375 19.355 -2.375 20.375 C-0.395 20.045 1.585 19.715 3.625 19.375 C3.625 17.725 3.625 16.075 3.625 14.375 C1.15 13.385 1.15 13.385 -1.375 12.375 C-0.715 11.055 -0.055 9.735 0.625 8.375 C1.615 8.375 2.605 8.375 3.625 8.375 C2.965 6.725 2.305 5.075 1.625 3.375 C-0.35991642 3.64176204 -0.35991642 3.64176204 -2.375 4.375 C-2.705 5.365 -3.035 6.355 -3.375 7.375 C-4.365 7.375 -5.355 7.375 -6.375 7.375 C-5.61632278 2.57004426 -5.24333577 0.58259286 0 0 Z " fill="#141414" transform="translate(89.375,71.625)"/>
<path d="M0 0 C0.66 0 1.32 0 2 0 C2 2.97 2 5.94 2 9 C2.66 9.33 3.32 9.66 4 10 C3.67 10.33 3.34 10.66 3 11 C2.84126045 13.21687994 2.74866163 15.43855298 2.68359375 17.66015625 C2.66281265 18.32462265 2.64203156 18.98908905 2.62062073 19.6736908 C2.55506342 21.80318543 2.49621215 23.93280668 2.4375 26.0625 C2.39432061 27.50326847 2.35070651 28.94402399 2.30664062 30.38476562 C2.19855473 33.92304903 2.09952907 37.46142397 2 41 C-6.25 41 -14.5 41 -23 41 C-23 40.67 -23 40.34 -23 40 C-15.41 40 -7.82 40 0 40 C0 29.77 0 19.54 0 9 C-1.98 8.34 -3.96 7.68 -6 7 C-7.375 4.875 -7.375 4.875 -8 3 C-3.25 4.875 -3.25 4.875 -1 6 C-0.67 4.02 -0.34 2.04 0 0 Z " fill="#010101" transform="translate(23,23)"/>
<path d="M0 0 C2.5625 0.25 2.5625 0.25 5 1 C6.36538938 3.73077876 6.13231826 5.95560367 6.125 9 C6.12757812 10.0725 6.13015625 11.145 6.1328125 12.25 C6 15 6 15 5 17 C2.625 17.1875 2.625 17.1875 0 17 C-2.31590289 13.52614567 -2.26991835 12.03569994 -2.25 7.9375 C-2.25515625 6.87402344 -2.2603125 5.81054688 -2.265625 4.71484375 C-2 2 -2 2 0 0 Z " fill="#FCFCFC" transform="translate(106,75)"/>
<path d="M0 0 C1.546875 0.185625 1.546875 0.185625 3.125 0.375 C5 2.875 5 2.875 6.125 5.375 C0.375 4.5 0.375 4.5 -1.875 3.375 C-1.875 4.365 -1.875 5.355 -1.875 6.375 C-0.740625 6.519375 0.39375 6.66375 1.5625 6.8125 C5.125 7.375 5.125 7.375 6.125 8.375 C5.83769945 10.71444736 5.50563221 13.0489143 5.125 15.375 C2.155 15.375 -0.815 15.375 -3.875 15.375 C-4.535 14.055 -5.195 12.735 -5.875 11.375 C-2.60224974 11.375 -0.028368 11.67425156 3.125 12.375 C3.125 11.715 3.125 11.055 3.125 10.375 C2.196875 10.271875 1.26875 10.16875 0.3125 10.0625 C-2.90754358 9.3679808 -3.90079865 8.89759061 -5.875 6.375 C-3.60387324 0.47007042 -3.60387324 0.47007042 0 0 Z " fill="#1C1C1C" transform="translate(40.875,81.625)"/>
<path d="M0 0 C1.62490954 -0.02698189 3.24994633 -0.04638757 4.875 -0.0625 C5.77992187 -0.07410156 6.68484375 -0.08570312 7.6171875 -0.09765625 C10 0 10 0 12 1 C12 10.57 12 20.14 12 30 C10.35 30.33 8.7 30.66 7 31 C7 30.34 7 29.68 7 29 C7.99 29 8.98 29 10 29 C10 20.09 10 11.18 10 2 C6.37 2 2.74 2 -1 2 C-0.67 1.34 -0.34 0.68 0 0 Z " fill="#050505" transform="translate(61,70)"/>
<path d="M0 0 C3.02570376 0.91474765 5.59682305 1.71710888 8.19799805 3.54223633 C11.83839197 5.43618005 15.13355471 5.47707335 19.14453125 5.51171875 C19.91431808 5.52966995 20.68410492 5.54762115 21.47721863 5.56611633 C23.92225764 5.62005387 26.36710332 5.65406073 28.8125 5.6875 C30.47593826 5.72068782 32.13935107 5.75517884 33.80273438 5.79101562 C37.86834971 5.87577037 41.93390936 5.94265973 46 6 C46 6.33 46 6.66 46 7 C35.11 7 24.22 7 13 7 C12.67 7.66 12.34 8.32 12 9 C10.18146744 8.07425608 8.37031117 7.13401005 6.5625 6.1875 C5.55316406 5.66542969 4.54382813 5.14335938 3.50390625 4.60546875 C1 3 1 3 0 0 Z " fill="#4F4F4F" transform="translate(69,56)"/>
<path d="M0 0 C0.66 0 1.32 0 2 0 C2 8.91 2 17.82 2 27 C1.01 27 0.02 27 -1 27 C-1.02892385 22.87501462 -1.04677267 18.75005515 -1.0625 14.625 C-1.07087891 13.449375 -1.07925781 12.27375 -1.08789062 11.0625 C-1.09111328 9.94101563 -1.09433594 8.81953125 -1.09765625 7.6640625 C-1.10289307 6.62717285 -1.10812988 5.5902832 -1.11352539 4.52197266 C-1 2 -1 2 0 0 Z " fill="#5F5F5F" transform="translate(14,72)"/>
<path d="M0 0 C0.99 0 1.98 0 3 0 C3 6.6 3 13.2 3 20 C2.01 20 1.02 20 0 20 C0 13.4 0 6.8 0 0 Z " fill="#000000" transform="translate(19,77)"/>
<path d="M0 0 C8.58 0 17.16 0 26 0 C26.33 0.66 26.66 1.32 27 2 C23.80703175 3.06432275 21.79555059 3.03788336 18.45703125 2.87890625 C17.38388672 2.83056641 16.31074219 2.78222656 15.20507812 2.73242188 C14.08552734 2.67634766 12.96597656 2.62027344 11.8125 2.5625 C10.11577148 2.48418945 10.11577148 2.48418945 8.38476562 2.40429688 C5.5895672 2.27456193 2.7947206 2.13959359 0 2 C-0.33 2.66 -0.66 3.32 -1 4 C-0.67 2.68 -0.34 1.36 0 0 Z " fill="#0C0C0C" transform="translate(14,70)"/>
<path d="M0 0 C1.32 0.33 2.64 0.66 4 1 C4.6875 3.8125 4.6875 3.8125 5 7 C3.5625 8.875 3.5625 8.875 2 10 C1.01 9.67 0.02 9.34 -1 9 C-1.80967438 6.08517222 -2.21845993 4.53886783 -1.0625 1.6875 C-0.711875 1.130625 -0.36125 0.57375 0 0 Z " fill="#F7F7F7" transform="translate(54,85)"/>
<path d="M0 0 C0 0.99 0 1.98 0 3 C-0.99 3 -1.98 3 -3 3 C-4.44672103 5.89344206 -4.38056583 8.80539664 -4.62109375 12.00390625 C-4.74613281 12.66261719 -4.87117188 13.32132813 -5 14 C-5.99 14.495 -5.99 14.495 -7 15 C-7 10.05 -7 5.1 -7 0 C-3.86650268 -1.04449911 -3.01031744 -0.93423645 0 0 Z " fill="#060606" transform="translate(34,83)"/>
<path d="M0 0 C2.12508244 3.18762365 2.5020163 5.26512223 3 9 C1.02 9.33 -0.96 9.66 -3 10 C-2.49287967 6.28111761 -1.88391785 3.26545761 0 0 Z " fill="#F4F4F4" transform="translate(154,76)"/>
<path d="M0 0 C1.93166016 0.01740234 1.93166016 0.01740234 3.90234375 0.03515625 C5.19269531 0.04417969 6.48304687 0.05320312 7.8125 0.0625 C8.81152344 0.07410156 9.81054688 0.08570312 10.83984375 0.09765625 C9.09438854 2.2809154 8.24192887 3.03705023 5.4296875 3.4609375 C4.55441406 3.44417969 3.67914063 3.42742187 2.77734375 3.41015625 C1.89949219 3.40628906 1.02164063 3.40242188 0.1171875 3.3984375 C-2.16015625 3.09765625 -2.16015625 3.09765625 -4.16015625 1.09765625 C-3.16015625 0.09765625 -3.16015625 0.09765625 0 0 Z " fill="#181818" transform="translate(50.16015625,69.90234375)"/>
<path d="M0 0 C3.63 1.98 7.26 3.96 11 6 C11 6.99 11 7.98 11 9 C6.71 6.69 2.42 4.38 -2 2 C-1.34 1.34 -0.68 0.68 0 0 Z " fill="#161616" transform="translate(57,49)"/>
<path d="M0 0 C4.75 1.875 4.75 1.875 7 3 C6.67 3.99 6.34 4.98 6 6 C3.96166576 4.7260411 1.96147874 3.38938077 0 2 C0 1.34 0 0.68 0 0 Z " fill="#181818" transform="translate(15,26)"/>
</svg>
