<?xml version="1.0" encoding="UTF-8"?>
<svg version="1.1" xmlns="http://www.w3.org/2000/svg" width="121" height="107">
<path d="M0 0 C39.93 0 79.86 0 121 0 C121 35.31 121 70.62 121 107 C81.07 107 41.14 107 0 107 C0 71.69 0 36.38 0 0 Z " fill="#FDFDFD" transform="translate(0,0)"/>
<path d="M0 0 C4.62 2.31 9.24 4.62 14 7 C13.01 8.98 12.02 10.96 11 13 C11.495 14.485 11.495 14.485 12 16 C12.83917969 16.37769531 13.67835937 16.75539063 14.54296875 17.14453125 C17 19 17 19 17.40869141 20.82958984 C17.49271016 23.13314707 17.43523474 25.38575159 17.3125 27.6875 C17.28994141 28.48478516 17.26738281 29.28207031 17.24414062 30.10351562 C17.18526944 32.06981334 17.09558755 34.03514491 17 36 C10.62591987 36.9546087 4.43793944 37.11976442 -2 37.0625 C-5.3 37.041875 -8.6 37.02125 -12 37 C-11.505 51.355 -11.505 51.355 -11 66 C18.205 66.495 18.205 66.495 48 67 C47.505 62.545 47.505 62.545 47 58 C46.98655817 56.17538424 47.01797587 54.34909292 47.12109375 52.52734375 C47.16943359 51.60888672 47.21777344 50.69042969 47.26757812 49.74414062 C47.32365234 48.81794922 47.37972656 47.89175781 47.4375 46.9375 C47.48970703 45.97650391 47.54191406 45.01550781 47.59570312 44.02539062 C47.72388588 41.68314207 47.85876109 39.34149125 48 37 C46.74509766 37.01740234 46.74509766 37.01740234 45.46484375 37.03515625 C36.57510944 37.10406892 27.86322089 36.66892233 19 36 C19 29.73 19 23.46 19 17 C19.66 17 20.32 17 21 17 C21.33 15.68 21.66 14.36 22 13 C26.0095375 13.57484409 28.71935433 14.83371774 32.125 17 C34.80872417 18.69670099 36.97770778 19.99256926 40 21 C40 21.66 40 22.32 40 23 C38.35 23.33 36.7 23.66 35 24 C35 24.66 35 25.32 35 26 C34.195625 26.28875 33.39125 26.5775 32.5625 26.875 C29.8673532 27.73262568 29.8673532 27.73262568 29 30 C29.80824219 29.55527344 30.61648437 29.11054687 31.44921875 28.65234375 C32.51785156 28.08644531 33.58648437 27.52054688 34.6875 26.9375 C35.74324219 26.36902344 36.79898438 25.80054687 37.88671875 25.21484375 C41.37905659 23.85208708 42.48560107 23.98304742 46 25 C47.27371817 25.80957373 48.52208147 26.66004093 49.74609375 27.54296875 C56.62087886 31.50420197 64.38330964 30.52552806 72.0625 30.3125 C77.321875 30.209375 82.58125 30.10625 88 30 C88 48.81 88 67.62 88 87 C48.07 87 8.14 87 -33 87 C-33 68.19 -33 49.38 -33 30 C-22.44 30 -11.88 30 -1 30 C-0.67 20.1 -0.34 10.2 0 0 Z " fill="#FDFDFD" transform="translate(33,20)"/>
<path d="M0 0 C0.66 0 1.32 0 2 0 C2 3.3 2 6.6 2 10 C3.22203125 10.35191406 3.22203125 10.35191406 4.46875 10.7109375 C8.75695316 12.2763214 12.54113787 14.3715069 16.5 16.625 C17.2852002 17.06650391 18.07040039 17.50800781 18.87939453 17.96289062 C24.99870615 21.41004084 31.09585459 24.89689957 37.1796875 28.40625 C41.46136635 31.10907655 41.46136635 31.10907655 46.25 31.875 C49.4302059 30.86311631 52.20977679 29.43784576 55.1328125 27.83984375 C57 27 57 27 60 27 C60 27.66 60 28.32 60 29 C56.7 30.65 53.4 32.3 50 34 C53.63992348 37.89991802 55.99498133 39.81150631 61.39160156 40.31884766 C62.72434574 40.36020117 64.05743213 40.39139265 65.390625 40.4140625 C66.09523865 40.43342865 66.79985229 40.4527948 67.52581787 40.4727478 C69.76709039 40.53232735 72.00841489 40.57884123 74.25 40.625 C75.77345938 40.66319979 77.29689762 40.70225269 78.8203125 40.7421875 C82.54668106 40.83801018 86.27320835 40.92212107 90 41 C90 41.33 90 41.66 90 42 C83.86300274 42.32427079 77.72541211 42.6133846 71.58544922 42.87548828 C69.48351998 42.97671434 67.38368123 43.12067154 65.28515625 43.27734375 C58.41540249 43.64746189 54.84764732 42.1081685 49.171875 38.28515625 C46.97167047 36.75136386 46.97167047 36.75136386 43.875 36.875 C40.70988128 38.11352471 37.71859399 39.53502924 34.734375 41.16015625 C33 42 33 42 31 42 C31.33 41.01 31.66 40.02 32 39 C33.65 38.67 35.3 38.34 37 38 C37 37.34 37 36.68 37 36 C38.65 35.67 40.3 35.34 42 35 C42 34.34 42 33.68 42 33 C41.45472656 32.89816406 40.90945312 32.79632813 40.34765625 32.69140625 C36.43020418 31.53768076 33.08071113 29.30841551 29.55859375 27.27734375 C27.0292702 25.77666643 27.0292702 25.77666643 24 26 C23.505 27.485 23.505 27.485 23 29 C22.34 29 21.68 29 21 29 C21 35.27 21 41.54 21 48 C22.92585938 47.98839844 24.85171875 47.97679687 26.8359375 47.96484375 C29.34895737 47.95546681 31.86197828 47.94636651 34.375 47.9375 C35.64601563 47.92912109 36.91703125 47.92074219 38.2265625 47.91210938 C39.43828125 47.90888672 40.65 47.90566406 41.8984375 47.90234375 C43.57945557 47.89448853 43.57945557 47.89448853 45.29443359 47.88647461 C48 48 48 48 50 49 C50 58.9 50 68.8 50 79 C42.33162433 79.02094549 34.66335169 79.04098358 26.99497223 79.05175018 C23.42428875 79.0570399 19.85362885 79.06411339 16.28295898 79.07543945 C12.18993903 79.08834176 8.0969442 79.09322906 4.00390625 79.09765625 C2.07581871 79.10539818 2.07581871 79.10539818 0.10877991 79.11329651 C-1.66294334 79.11340981 -1.66294334 79.11340981 -3.47045898 79.11352539 C-5.03932106 79.11685631 -5.03932106 79.11685631 -6.63987732 79.12025452 C-9 79 -9 79 -10 78 C-10.08775605 75.85441173 -10.10695219 73.70595579 -10.09765625 71.55859375 C-10.09443359 70.25341797 -10.09121094 68.94824219 -10.08789062 67.60351562 C-10.07953401 66.2148431 -10.07106905 64.82617123 -10.0625 63.4375 C-10.05748666 62.04492344 -10.05292347 60.65234519 -10.04882812 59.25976562 C-10.03699434 55.8398013 -10.0205088 52.41992156 -10 49 C-7.23382437 47.61691219 -4.98982 47.88789804 -1.8984375 47.90234375 C-0.08085938 47.90717773 -0.08085938 47.90717773 1.7734375 47.91210938 C3.04445312 47.92048828 4.31546875 47.92886719 5.625 47.9375 C6.90375 47.94201172 8.1825 47.94652344 9.5 47.95117188 C12.66671292 47.96298797 15.83333356 47.97946185 19 48 C18.99398628 45.24571553 18.9466151 42.5027054 18.875 39.75 C18.87757812 38.97269531 18.88015625 38.19539063 18.8828125 37.39453125 C18.80481405 35.11307669 18.66886225 33.18517187 18 31 C15.11933907 28.39587722 15.11933907 28.39587722 12 27 C12.495 25.8553125 12.495 25.8553125 13 24.6875 C14.17436686 22.00930865 14.17436686 22.00930865 14 19 C10.37 17.02 6.74 15.04 3 13 C2.96241577 14.30988892 2.96241577 14.30988892 2.92407227 15.64624023 C2.82912291 18.87602552 2.72987971 22.10564154 2.62768555 25.33520508 C2.58428566 26.73489199 2.54261436 28.13463359 2.50268555 29.53442383 C2.44510555 31.54261495 2.38086 33.55061149 2.31640625 35.55859375 C2.27974854 36.76829834 2.24309082 37.97800293 2.20532227 39.22436523 C2 42 2 42 1 43 C-1.37807798 43.01693598 -3.72310663 42.97130138 -6.09765625 42.87890625 C-6.80651474 42.85529526 -7.51537323 42.83168427 -8.24571228 42.80735779 C-10.51817021 42.73055354 -12.79030157 42.64660225 -15.0625 42.5625 C-16.59959319 42.50929604 -18.1367025 42.45655554 -19.67382812 42.40429688 C-23.44942703 42.27491595 -27.22474803 42.1391231 -31 42 C-31 41.34 -31 40.68 -31 40 C-20.77 40 -10.54 40 0 40 C-0.33 36.37 -0.66 32.74 -1 29 C-1.06357316 25.59502147 -1.09752178 22.21500082 -1.0625 18.8125 C-1.05798828 17.95591797 -1.05347656 17.09933594 -1.04882812 16.21679688 C-1.03725105 14.14449967 -1.01932659 12.07223942 -1 10 C-2.4540625 9.3503125 -2.4540625 9.3503125 -3.9375 8.6875 C-7 7 -7 7 -8 4 C-2.125 5.875 -2.125 5.875 -1 7 C-0.67 4.69 -0.34 2.38 0 0 Z " fill="#1B1B1B" transform="translate(31,8)"/>
<path d="M0 0 C17.82 0 35.64 0 54 0 C54 8.91 54 17.82 54 27 C45.09 27 36.18 27 27 27 C27.99 26.01 28.98 25.02 30 24 C30.2503577 20.37464024 30.2503577 20.37464024 30 17 C28.02 16.67 26.04 16.34 24 16 C23.67 15.01 23.34 14.02 23 13 C25.38564077 13.57584432 27.66682784 14.22227595 30 15 C29.34 13.68 28.68 12.36 28 11 C23.74268432 10.59250325 23.74268432 10.59250325 20.125 12.5 C19.75375 12.995 19.3825 13.49 19 14 C18.67 13.01 18.34 12.02 18 11 C15.69 11 13.38 11 11 11 C11 15.95 11 20.9 11 26 C11.66 26.33 12.32 26.66 13 27 C8.71 27 4.42 27 0 27 C0 18.09 0 9.18 0 0 Z " fill="#F1F1F1" transform="translate(24,58)"/>
<path d="M0 0 C0.66 0 1.32 0 2 0 C2.33 -0.33 2.66 -0.66 3 -1 C5.9375 -1.1875 5.9375 -1.1875 9 -1 C11 1 11 1 11 4 C8.61435923 3.42415568 6.33317216 2.77772405 4 2 C6.17424117 4.50037734 7.73045798 5.43628586 11 6 C11.33 8.31 11.66 10.62 12 13 C8.45139093 16.38811921 5.66675766 16.35003669 0.875 16.25 C-0.36507812 16.23453125 -1.60515625 16.2190625 -2.8828125 16.203125 C-6 16 -6 16 -8 15 C-8 10.05 -8 5.1 -8 0 C-4.67576157 -1.10807948 -3.32809422 -0.76802174 0 0 Z " fill="#EDEDED" transform="translate(43,69)"/>
<path d="M0 0 C0.99 0 1.98 0 3 0 C3 6.93 3 13.86 3 21 C1.68 20.67 0.36 20.34 -1 20 C-2.33568021 20.32380126 -3.66923011 20.65657551 -5 21 C-8 20 -8 20 -10 17 C-10.265625 15.0625 -10.265625 15.0625 -10.25 13 C-10.25515625 12.319375 -10.2603125 11.63875 -10.265625 10.9375 C-10 9 -10 9 -8 6 C-3.625 4.6875 -3.625 4.6875 -1 6 C-0.67 4.02 -0.34 2.04 0 0 Z " fill="#0C0C0C" transform="translate(67,63)"/>
<path d="M0 0 C2 2 2 2 2 5 C-17.47 5 -36.94 5 -57 5 C-57 4.34 -57 3.68 -57 3 C-38.19 3 -19.38 3 0 3 C0 2.01 0 1.02 0 0 Z " fill="#020202" transform="translate(79,82)"/>
<path d="M0 0 C3.0625 0.1875 3.0625 0.1875 5.0625 2.1875 C5.0625 3.1775 5.0625 4.1675 5.0625 5.1875 C2.67685923 4.61165568 0.39567216 3.96522405 -1.9375 3.1875 C0.23674117 5.68787734 1.79295798 6.62378586 5.0625 7.1875 C5.3925 9.4975 5.7225 11.8075 6.0625 14.1875 C3.33401747 15.51276294 1.42975537 16.19604082 -1.625 16.125 C-3.9375 15.1875 -3.9375 15.1875 -5.25 12.625 C-5.476875 11.820625 -5.70375 11.01625 -5.9375 10.1875 C-1.4825 11.1775 -1.4825 11.1775 3.0625 12.1875 C3.0625 11.5275 3.0625 10.8675 3.0625 10.1875 C2.134375 10.084375 1.20625 9.98125 0.25 9.875 C-2.97004358 9.1804808 -3.96329865 8.71009061 -5.9375 6.1875 C-3.64723154 0.23280201 -3.64723154 0.23280201 0 0 Z " fill="#1E1E1E" transform="translate(48.9375,67.8125)"/>
<path d="M0 0 C0.99 0 1.98 0 3 0 C3 8.91 3 17.82 3 27 C2.01 27.33 1.02 27.66 0 28 C0 18.76 0 9.52 0 0 Z " fill="#454545" transform="translate(78,57)"/>
<path d="M0 0 C0.33 0 0.66 0 1 0 C1 8.91 1 17.82 1 27 C0.01 27.33 -0.98 27.66 -2 28 C-2.0580966 24.0833957 -2.09362893 20.16690237 -2.125 16.25 C-2.14175781 15.13882813 -2.15851562 14.02765625 -2.17578125 12.8828125 C-2.18222656 11.81289062 -2.18867188 10.74296875 -2.1953125 9.640625 C-2.20578613 8.65610352 -2.21625977 7.67158203 -2.22705078 6.65722656 C-1.99489618 3.94026889 -1.39036273 2.31887487 0 0 Z " fill="#4C4C4C" transform="translate(23,58)"/>
<path d="M0 0 C0.99 0 1.98 0 3 0 C3 6.93 3 13.86 3 21 C2.01 21 1.02 21 0 21 C0 14.07 0 7.14 0 0 Z " fill="#020202" transform="translate(27,63)"/>
<path d="M0 0 C3.53571429 0.53571429 3.53571429 0.53571429 5 2 C5.04080783 3.99958364 5.04254356 6.00045254 5 8 C3.35 8.66 1.7 9.32 0 10 C-2 8 -2 8 -2.25 5 C-2 2 -2 2 0 0 Z " fill="#E7E7E7" transform="translate(62,71)"/>
<path d="M0 0 C0 1.32 0 2.64 0 4 C-1.32 4 -2.64 4 -4 4 C-4.33 7.96 -4.66 11.92 -5 16 C-5.66 16 -6.32 16 -7 16 C-7 11.05 -7 6.1 -7 1 C-4 0 -4 0 0 0 Z " fill="#101010" transform="translate(42,68)"/>
<path d="M0 0 C0 0.66 0 1.32 0 2 C-1.45381897 2.69699552 -2.91322953 3.38233866 -4.375 4.0625 C-5.18710938 4.44535156 -5.99921875 4.82820313 -6.8359375 5.22265625 C-7.55007812 5.47917969 -8.26421875 5.73570313 -9 6 C-9.66 5.67 -10.32 5.34 -11 5 C-9.73461631 4.15841464 -8.46246221 3.32700252 -7.1875 2.5 C-6.47980469 2.0359375 -5.77210937 1.571875 -5.04296875 1.09375 C-3 0 -3 0 0 0 Z " fill="#171717" transform="translate(91,35)"/>
</svg>
