<?xml version="1.0" encoding="UTF-8"?>
<svg version="1.1" xmlns="http://www.w3.org/2000/svg" width="87" height="81">
<path d="M0 0 C28.71 0 57.42 0 87 0 C87 26.73 87 53.46 87 81 C58.29 81 29.58 81 0 81 C0 54.27 0 27.54 0 0 Z " fill="#FDFDFD" transform="translate(0,0)"/>
<path d="M0 0 C13.53 0 27.06 0 41 0 C41 5.61 41 11.22 41 17 C46.61 17 52.22 17 58 17 C58 31.19 58 45.38 58 60 C52.245625 60.020625 46.49125 60.04125 40.5625 60.0625 C38.74435791 60.071604 36.92621582 60.08070801 35.05297852 60.09008789 C33.61995518 60.09300711 32.18693102 60.09555566 30.75390625 60.09765625 C30.00330933 60.10277222 29.2527124 60.10788818 28.47937012 60.11315918 C26.65252399 60.11346992 24.82578317 60.06231113 23 60 C22 59 22 59 21.88647461 57.05053711 C21.89171143 56.2178833 21.89694824 55.38522949 21.90234375 54.52734375 C21.90484131 53.71773193 21.90733887 52.90812012 21.90991211 52.07397461 C21.91901611 51.03893799 21.92812012 50.00390137 21.9375 48.9375 C21.958125 45.658125 21.97875 42.37875 22 39 C14.74 39 7.48 39 0 39 C0 26.13 0 13.26 0 0 Z " fill="#F9F9F9" transform="translate(0,0)"/>
<path d="M0 0 C13.2 0 26.4 0 40 0 C40 5.61 40 11.22 40 17 C34.06 17 28.12 17 22 17 C22 23.6 22 30.2 22 37 C14.74 37 7.48 37 0 37 C0 24.79 0 12.58 0 0 Z " fill="#FCFCFC" transform="translate(0,0)"/>
<path d="M0 0 C0.33 0 0.66 0 1 0 C1 5.61 1 11.22 1 17 C6.61 17 12.22 17 18 17 C18 31.19 18 45.38 18 60 C12.245625 60.020625 6.49125 60.04125 0.5625 60.0625 C-1.25564209 60.071604 -3.07378418 60.08070801 -4.94702148 60.09008789 C-6.38004482 60.09300711 -7.81306898 60.09555566 -9.24609375 60.09765625 C-9.99669067 60.10277222 -10.7472876 60.10788818 -11.52062988 60.11315918 C-13.34747601 60.11346992 -15.17421683 60.06231113 -17 60 C-18 59 -18 59 -18.11352539 57.05053711 C-18.10828857 56.2178833 -18.10305176 55.38522949 -18.09765625 54.52734375 C-18.09515869 53.71773193 -18.09266113 52.90812012 -18.09008789 52.07397461 C-18.08098389 51.03893799 -18.07187988 50.00390137 -18.0625 48.9375 C-18.041875 45.658125 -18.02125 42.37875 -18 39 C-25.26 39 -32.52 39 -40 39 C-40 38.34 -40 37.68 -40 37 C-32.74 37 -25.48 37 -18 37 C-18 30.4 -18 23.8 -18 17 C-12.06 17 -6.12 17 0 17 C0 11.39 0 5.78 0 0 Z M-16 28 C-16 37.57 -16 47.14 -16 57 C-5.44 57 5.12 57 16 57 C16 47.43 16 37.86 16 28 C5.44 28 -5.12 28 -16 28 Z " fill="#2F2F2F" transform="translate(40,0)"/>
<path d="M0 0 C10.56 0 21.12 0 32 0 C32 2.31 32 4.62 32 7 C21.11 7 10.22 7 -1 7 C-0.67 4.69 -0.34 2.38 0 0 Z " fill="#EEEEEE" transform="translate(25,19)"/>
<path d="M0 0 C0 6.93 0 13.86 0 21 C10.56 21 21.12 21 32 21 C32 21.33 32 21.66 32 22 C20.78 22.33 9.56 22.66 -2 23 C-2 16.4 -2 9.8 -2 3 C-9.26 3 -16.52 3 -24 3 C-24 2.34 -24 1.68 -24 1 C-20.1875152 0.83298447 -16.37500971 0.66644585 -12.5625 0.5 C-11.47388672 0.45230469 -10.38527344 0.40460937 -9.26367188 0.35546875 C-8.22919922 0.31035156 -7.19472656 0.26523437 -6.12890625 0.21875 C-5.17056885 0.17685547 -4.21223145 0.13496094 -3.22485352 0.09179688 C-1 0 -1 0 0 0 Z " fill="#373737" transform="translate(24,36)"/>
<path d="M0 0 C0.66 0 1.32 0 2 0 C2.33 1.98 2.66 3.96 3 6 C3.66 6 4.32 6 5 6 C5.66 4.02 6.32 2.04 7 0 C9.51083114 1.25541557 9.87125446 2.50063488 11 5 C11.66 3.35 12.32 1.7 13 0 C13.99 0 14.98 0 16 0 C16 0.99 16 1.98 16 3 C18.475 3.495 18.475 3.495 21 4 C21 6.64 21 9.28 21 12 C20.34 12 19.68 12 19 12 C19 9.69 19 7.38 19 5 C18.01 5 17.02 5 16 5 C16 6.98 16 8.96 16 11 C15.34 11 14.68 11 14 11 C13.67 10.34 13.34 9.68 13 9 C12.67 9.66 12.34 10.32 12 11 C9 10 9 10 7.8125 7.9375 C7.544375 7.298125 7.27625 6.65875 7 6 C6.34 7.65 5.68 9.3 5 11 C4.01 10.67 3.02 10.34 2 10 C1.34 6.7 0.68 3.4 0 0 Z " fill="#292929" transform="translate(33,39)"/>
<path d="M0 0 C0.33 0 0.66 0 1 0 C1 11.22 1 22.44 1 34 C-10.55 34 -22.1 34 -34 34 C-34 33.34 -34 32.68 -34 32 C-23.11 31.67 -12.22 31.34 -1 31 C-0.67 20.77 -0.34 10.54 0 0 Z " fill="#080808" transform="translate(57,26)"/>
<path d="M0 0 C0.66 0 1.32 0 2 0 C2.33 1.98 2.66 3.96 3 6 C3.66 6 4.32 6 5 6 C5.66 4.02 6.32 2.04 7 0 C7.66 0.33 8.32 0.66 9 1 C9.40729228 3.32156597 9.74438677 5.6568787 10 8 C10.66 8 11.32 8 12 8 C12 8.99 12 9.98 12 11 C9 10 9 10 7.8125 7.9375 C7.544375 7.298125 7.27625 6.65875 7 6 C6.34 7.65 5.68 9.3 5 11 C4.01 10.67 3.02 10.34 2 10 C1.34 6.7 0.68 3.4 0 0 Z " fill="#202020" transform="translate(33,39)"/>
<path d="M0 0 C0.66 0 1.32 0 2 0 C2.33 1.32 2.66 2.64 3 4 C3.99 4 4.98 4 6 4 C6 8 6 8 5 11 C4.67 10.01 4.34 9.02 4 8 C3.34 8 2.68 8 2 8 C2 8.99 2 9.98 2 11 C1.34 11 0.68 11 0 11 C0 7.37 0 3.74 0 0 Z " fill="#151515" transform="translate(27,39)"/>
<path d="M0 0 C0.66 0.33 1.32 0.66 2 1 C2.40729228 3.32156597 2.74438677 5.6568787 3 8 C3.66 8 4.32 8 5 8 C5 8.99 5 9.98 5 11 C2 10 2 10 0.8125 7.9375 C0.544375 7.298125 0.27625 6.65875 0 6 C-0.33 6 -0.66 6 -1 6 C-1.042721 4.33388095 -1.04063832 2.66617115 -1 1 C-0.67 0.67 -0.34 0.34 0 0 Z " fill="#262626" transform="translate(40,39)"/>
<path d="M0 0 C0.66 0.33 1.32 0.66 2 1 C2 4.3 2 7.6 2 11 C0.35 9.68 -1.3 8.36 -3 7 C-2.01 4.69 -1.02 2.38 0 0 Z " fill="#626262" transform="translate(46,39)"/>
<path d="M0 0 C2 3 2 3 1.625 6.1875 C1.41875 7.115625 1.2125 8.04375 1 9 C0.34 8.67 -0.32 8.34 -1 8 C-1.75 5.0625 -1.75 5.0625 -2 2 C-1.34 1.34 -0.68 0.68 0 0 Z " fill="#DBDBDB" transform="translate(33,42)"/>
</svg>
