<?xml version="1.0" encoding="UTF-8"?>
<svg version="1.1" xmlns="http://www.w3.org/2000/svg" width="103" height="86">
<path d="M0 0 C33.99 0 67.98 0 103 0 C103 28.38 103 56.76 103 86 C69.01 86 35.02 86 0 86 C0 57.62 0 29.24 0 0 Z " fill="#F7F7F7" transform="translate(0,0)"/>
<path d="M0 0 C33.99 0 67.98 0 103 0 C103 13.53 103 27.06 103 41 C94.09 41 85.18 41 76 41 C75.01 37.7 74.02 34.4 73 31 C69.56447552 26.15903368 65.85634699 21.79790904 60 20 C53.17905183 18.98524057 47.72628921 18.95450991 42 23.0625 C41.34 23.63097656 40.68 24.19945313 40 24.78515625 C38 26 38 26 35.45703125 25.78125 C32.45369396 24.82629379 29.7751653 23.48439074 27 22 C29.36620011 24.61527381 31.942048 26.26440562 35 28 C34.34 28.99 33.68 29.98 33 31 C32.34 34.3 31.68 37.6 31 41 C20.77 41 10.54 41 0 41 C0 27.47 0 13.94 0 0 Z " fill="#FDFDFD" transform="translate(0,0)"/>
<path d="M0 0 C10.23 0 20.46 0 31 0 C31.66 3.3 32.32 6.6 33 10 C36.97522267 16.01131233 41.17646102 18.79273348 48 21 C49.65 21.33 51.3 21.66 53 22 C53 29.26 53 36.52 53 44 C35.51 44 18.02 44 0 44 C0 29.48 0 14.96 0 0 Z " fill="#FBFBFB" transform="translate(0,42)"/>
<path d="M0 0 C8.91 0 17.82 0 27 0 C27 14.19 27 28.38 27 43 C11.16 43 -4.68 43 -21 43 C-21 35.74 -21 28.48 -21 21 C-10.25 17 -10.25 17 -8 17 C-8 16.34 -8 15.68 -8 15 C-7.34 15 -6.68 15 -6 15 C-5.566875 14.1028125 -5.566875 14.1028125 -5.125 13.1875 C-4 11 -4 11 -2 8 C-1.34 5.36 -0.68 2.72 0 0 Z " fill="#FEFEFE" transform="translate(76,43)"/>
<path d="M0 0 C20.295 0.495 20.295 0.495 41 1 C38.09219195 9.72342415 36.46115884 13.78381572 29.3125 18.9375 C22.74913221 21.04273118 16.40232582 21.09112632 10.125 18.0625 C5.42516027 15.09772655 2.89983947 11.16518855 1 6 C0.67 4.02 0.34 2.04 0 0 Z " fill="#FBFBFB" transform="translate(33,42)"/>
<path d="M0 0 C6.34640797 2.59711636 12.0572654 7.75719875 15 14 C15.495 17.96 15.495 17.96 16 22 C24.91 22 33.82 22 43 22 C43 22.66 43 23.32 43 24 C34.09 24 25.18 24 16 24 C15.34 27.3 14.68 30.6 14 34 C12 37.125 12 37.125 10 39 C9.34 39 8.68 39 8 39 C8 39.66 8 40.32 8 41 C6.58774074 41.67595315 5.16997095 42.34040059 3.75 43 C2.96109375 43.37125 2.1721875 43.7425 1.359375 44.125 C-1 45 -1 45 -5 45 C-5 52.26 -5 59.52 -5 67 C-5.66 67 -6.32 67 -7 67 C-7 59.74 -7 52.48 -7 45 C-9.31 44.67 -11.62 44.34 -14 44 C-20.3052271 41.93888886 -24.36693163 38.49390826 -28 33 C-28.495 28.05 -28.495 28.05 -29 23 C-39.23 23 -49.46 23 -60 23 C-60 22.67 -60 22.34 -60 22 C-49.77 22 -39.54 22 -29 22 C-28.67 18.7 -28.34 15.4 -28 12 C-27.34 11.01 -26.68 10.02 -26 9 C-28.31 7.68 -30.62 6.36 -33 5 C-33 4.34 -33 3.68 -33 3 C-30.76182479 3.47960897 -29.00642765 3.99638445 -27 5.125 C-24.46877372 6.2324115 -23.58024041 5.88258691 -21 5 C-19.8333878 4.17443916 -18.68845677 3.31770229 -17.5625 2.4375 C-12.02650407 -1.09479591 -6.3476922 -1.0812858 0 0 Z M-20 7 C-20.33 7.66 -20.66 8.32 -21 9 C-18.525 9.99 -18.525 9.99 -16 11 C-16 11.66 -16 12.32 -16 13 C-18.31 12.34 -20.62 11.68 -23 11 C-25.69856257 14.98917945 -26.15332803 16.9199682 -27 22 C-13.8 22 -0.6 22 13 22 C12.77080956 13.65850618 12.77080956 13.65850618 10 10 C9.34 10 8.68 10 8 10 C7.79375 9.401875 7.5875 8.80375 7.375 8.1875 C4.98348216 4.38281252 1.74625128 3.40277313 -2.5234375 2.41796875 C-9.59587406 1.3580938 -14.35037737 2.54599519 -20 7 Z M-27 23 C-24.83684349 33.13569349 -24.83684349 33.13569349 -18.28125 40.3203125 C-12.83251489 43.51362857 -7.17878204 44.03580165 -1 43 C4.62098336 40.76113375 8.68123239 36.97815142 12 32 C12.66 29.36 13.32 26.72 14 24 C-6.295 23.505 -6.295 23.505 -27 23 Z " fill="#282828" transform="translate(60,19)"/>
<path d="M0 0 C0.495 0.99 0.495 0.99 1 2 C14.2 2 27.4 2 41 2 C41 2.33 41 2.66 41 3 C27.8 3 14.6 3 1 3 C4.85976707 14.53700763 4.85976707 14.53700763 13.625 21.265625 C18.86671604 22.88641878 24.20833792 23.1371712 29.33984375 21.046875 C36.33316077 16.93162699 39.65574935 11.16879262 43 4 C44.34611285 8.03833855 43.43538136 10.0356134 42 14 C40 16.9375 40 16.9375 38 19 C37.34 19 36.68 19 36 19 C36 19.66 36 20.32 36 21 C34.58774074 21.67595315 33.16997095 22.34040059 31.75 23 C30.96109375 23.37125 30.1721875 23.7425 29.359375 24.125 C27 25 27 25 23 25 C23 32.26 23 39.52 23 47 C22.34 47 21.68 47 21 47 C21 39.74 21 32.48 21 25 C18.69 24.67 16.38 24.34 14 24 C7.6947729 21.93888886 3.63306837 18.49390826 0 13 C-0.495 8.05 -0.495 8.05 -1 3 C-11.23 3 -21.46 3 -32 3 C-32 2.67 -32 2.34 -32 2 C-31.06615479 1.97494385 -30.13230957 1.9498877 -29.17016602 1.92407227 C-25.71674811 1.82913072 -22.2635104 1.72988742 -18.81030273 1.62768555 C-17.31360731 1.58428187 -15.81686061 1.54261087 -14.32006836 1.50268555 C-12.17285688 1.44511384 -10.02590479 1.38138284 -7.87890625 1.31640625 C-6.5854126 1.27974854 -5.29191895 1.24309082 -3.95922852 1.20532227 C-1.11444992 1.3332722 -1.11444992 1.3332722 0 0 Z " fill="#242424" transform="translate(32,39)"/>
<path d="M0 0 C0.66 0.33 1.32 0.66 2 1 C4.0307477 1.15411106 6.06606421 1.24982453 8.1015625 1.31640625 C9.31328125 1.35830078 10.525 1.40019531 11.7734375 1.44335938 C13.04445312 1.48267578 14.31546875 1.52199219 15.625 1.5625 C16.90375 1.60568359 18.1825 1.64886719 19.5 1.69335938 C22.66655348 1.79969886 25.83318753 1.90172833 29 2 C29 2.66 29 3.32 29 4 C19.76 4 10.52 4 1 4 C0.67 4.66 0.34 5.32 0 6 C0 5.34 0 4.68 0 4 C-12.87 4 -25.74 4 -39 4 C-39 3.67 -39 3.34 -39 3 C-26.46 2.67 -13.92 2.34 -1 2 C-0.67 1.34 -0.34 0.68 0 0 Z " fill="#505050" transform="translate(74,39)"/>
<path d="M0 0 C0.495 0.99 0.495 0.99 1 2 C14.2 2 27.4 2 41 2 C41 2.33 41 2.66 41 3 C27.8 3 14.6 3 1 3 C1 4.65 1 6.3 1 8 C0.34 7.34 -0.32 6.68 -1 6 C-1 5.01 -1 4.02 -1 3 C-11.23 3 -21.46 3 -32 3 C-32 2.67 -32 2.34 -32 2 C-31.06615479 1.97494385 -30.13230957 1.9498877 -29.17016602 1.92407227 C-25.71674811 1.82913072 -22.2635104 1.72988742 -18.81030273 1.62768555 C-17.31360731 1.58428187 -15.81686061 1.54261087 -14.32006836 1.50268555 C-12.17285688 1.44511384 -10.02590479 1.38138284 -7.87890625 1.31640625 C-6.5854126 1.27974854 -5.29191895 1.24309082 -3.95922852 1.20532227 C-1.11444992 1.3332722 -1.11444992 1.3332722 0 0 Z " fill="#000000" transform="translate(32,39)"/>
<path d="M0 0 C1.67542976 0.28604898 3.34385343 0.61781233 5 1 C5.35268934 2.6626783 5.68033861 4.33065717 6 6 C6.2475 7.19625 6.495 8.3925 6.75 9.625 C7 13 7 13 5.5625 14.9375 C5.046875 15.288125 4.53125 15.63875 4 16 C2.02 15.34 0.04 14.68 -2 14 C-2 12.68 -2 11.36 -2 10 C-1.01 10.33 -0.02 10.66 1 11 C1 11.66 1 12.32 1 13 C1.66 12.67 2.32 12.34 3 12 C3.65213292 9.97536745 3.65213292 9.97536745 4 8 C3.01 7.67 2.02 7.34 1 7 C1.66 5.68 2.32 4.36 3 3 C1.35 3.66 -0.3 4.32 -2 5 C-1.125 1.125 -1.125 1.125 0 0 Z " fill="#1D1D1D" transform="translate(13,13)"/>
<path d="M0 0 C5.39579645 1.05283833 8.12196938 3.60383181 11.51953125 7.69140625 C13.80140969 11.24969163 14.52841928 14.84239037 15 19 C14.01 19.33 13.02 19.66 12 20 C11.86722656 19.38511719 11.73445313 18.77023438 11.59765625 18.13671875 C11.42105469 17.32847656 11.24445313 16.52023438 11.0625 15.6875 C10.88847656 14.88699219 10.71445313 14.08648437 10.53515625 13.26171875 C10.00113841 10.854599 10.00113841 10.854599 9 8 C8.34 8 7.68 8 7 8 C5.64499081 6.68870078 4.31328657 5.35308313 3 4 C2.01 3.34 1.02 2.68 0 2 C0 1.34 0 0.68 0 0 Z " fill="#242424" transform="translate(61,21)"/>
<path d="M0 0 C4.29 0 8.58 0 13 0 C13.33 1.32 13.66 2.64 14 4 C12.04020573 3.71831703 10.08217622 3.42433283 8.125 3.125 C6.48917969 2.88136719 6.48917969 2.88136719 4.8203125 2.6328125 C2 2 2 2 0 0 Z " fill="#3F3F3F" transform="translate(47,19)"/>
<path d="M0 0 C0 0.66 0 1.32 0 2 C-4.95 4.475 -4.95 4.475 -10 7 C-10 6.01 -10 5.02 -10 4 C-3.375 0 -3.375 0 0 0 Z " fill="#1D1D1D" transform="translate(49,20)"/>
<path d="M0 0 C0.33 0.66 0.66 1.32 1 2 C0.67 2.66 0.34 3.32 0 4 C-0.66 4 -1.32 4 -2 4 C-2 4.66 -2 5.32 -2 6 C-3.65 6.66 -5.3 7.32 -7 8 C-7 7.01 -7 6.02 -7 5 C-5.46875 3.61328125 -5.46875 3.61328125 -3.5 2.3125 C-2.8503125 1.87550781 -2.200625 1.43851563 -1.53125 0.98828125 C-1.0259375 0.66214844 -0.520625 0.33601563 0 0 Z " fill="#1F1F1F" transform="translate(70,54)"/>
<path d="M0 0 C4.35535069 1.16142685 6.64619703 2.07699505 9 6 C5.51669784 5.35494404 2.90567134 4.01782732 0 2 C0 1.34 0 0.68 0 0 Z " fill="#181818" transform="translate(61,21)"/>
<path d="M0 0 C2.0625 0.4375 2.0625 0.4375 4 1 C2.71034824 2.37562854 1.37310707 3.70766393 0 5 C-0.66 5 -1.32 5 -2 5 C-1.125 1.125 -1.125 1.125 0 0 Z " fill="#343434" transform="translate(13,13)"/>
</svg>
