<?xml version="1.0" encoding="UTF-8"?>
<svg version="1.1" xmlns="http://www.w3.org/2000/svg" width="54" height="49">
<path d="M0 0 C17.82 0 35.64 0 54 0 C54 16.17 54 32.34 54 49 C36.18 49 18.36 49 0 49 C0 32.83 0 16.66 0 0 Z " fill="#FDFDFD" transform="translate(0,0)"/>
<path d="M0 0 C17.82 0 35.64 0 54 0 C54 7.26 54 14.52 54 22 C50.04 22 46.08 22 42 22 C42 19.69 42 17.38 42 15 C40.68 15 39.36 15 38 15 C38.33 13.68 38.66 12.36 39 11 C38.34 11 37.68 11 37 11 C36.67 12.32 36.34 13.64 36 15 C35.01 15 34.02 15 33 15 C33.33 13.68 33.66 12.36 34 11 C33.54625 11.66 33.0925 12.32 32.625 13 C32.08875 13.66 31.5525 14.32 31 15 C30.34 15 29.68 15 29 15 C28.67 14.01 28.34 13.02 28 12 C27.01 13.485 27.01 13.485 26 15 C22.7421875 15.51171875 22.7421875 15.51171875 18.875 15.6875 C16.95300781 15.78611328 16.95300781 15.78611328 14.9921875 15.88671875 C14.00476562 15.92410156 13.01734375 15.96148437 12 16 C11.67 17.98 11.34 19.96 11 22 C7.37 22 3.74 22 0 22 C0 14.74 0 7.48 0 0 Z " fill="#FCFCFC" transform="translate(0,0)"/>
<path d="M0 0 C0.66 0.66 1.32 1.32 2 2 C1.34 2.99 0.68 3.98 0 5 C0.99 5 1.98 5 3 5 C3.33 3.68 3.66 2.36 4 1 C4.66 1 5.32 1 6 1 C5.67 2.32 5.34 3.64 5 5 C6.32 5 7.64 5 9 5 C9 7.31 9 9.62 9 12 C12.96 12 16.92 12 21 12 C21 12.66 21 13.32 21 14 C17.04 14 13.08 14 9 14 C9 16.31 9 18.62 9 21 C8.03578125 21.02578125 7.0715625 21.0515625 6.078125 21.078125 C4.81484375 21.13484375 3.5515625 21.1915625 2.25 21.25 C0.37054688 21.31960937 0.37054688 21.31960937 -1.546875 21.390625 C-5.40518636 22.07150347 -6.60916205 22.98126522 -9 26 C-8.67 24.35 -8.34 22.7 -8 21 C-8.99 21 -9.98 21 -11 21 C-11.12375 21.639375 -11.2475 22.27875 -11.375 22.9375 C-11.684375 23.9584375 -11.684375 23.9584375 -12 25 C-12.66 25.33 -13.32 25.66 -14 26 C-13.67 24.35 -13.34 22.7 -13 21 C-14.98 22.65 -16.96 24.3 -19 26 C-18.67 24.68 -18.34 23.36 -18 22 C-18.99 21.67 -19.98 21.34 -21 21 C-21 18.69 -21 16.38 -21 14 C-20.67 14 -20.34 14 -20 14 C-20 15.65 -20 17.3 -20 19 C-18.35 19 -16.7 19 -15 19 C-14.34 17.02 -13.68 15.04 -13 13 C-14.32 13.33 -15.64 13.66 -17 14 C-17 13.34 -17 12.68 -17 12 C-15.576875 11.87625 -15.576875 11.87625 -14.125 11.75 C-13.09375 11.5025 -12.0625 11.255 -11 11 C-10.34 9.68 -9.68 8.36 -9 7 C-12.63 7 -16.26 7 -20 7 C-20 8.65 -20 10.3 -20 12 C-24.50353262 13.75747614 -28.17639811 14.19294408 -33 14 C-33 13.34 -33 12.68 -33 12 C-29.37 12 -25.74 12 -22 12 C-22.020625 11.030625 -22.04125 10.06125 -22.0625 9.0625 C-22 6 -22 6 -21 5 C-18.64686445 4.92728259 -16.29166332 4.91629132 -13.9375 4.9375 C-12.64714844 4.94652344 -11.35679688 4.95554687 -10.02734375 4.96484375 C-9.02832031 4.97644531 -8.02929688 4.98804688 -7 5 C-6.34 3.68 -5.68 2.36 -5 1 C-4.34 1.33 -3.68 1.66 -3 2 C-3.33 2.99 -3.66 3.98 -4 5 C-3.34 5 -2.68 5 -2 5 C-1.34 3.35 -0.68 1.7 0 0 Z " fill="#060606" transform="translate(33,10)"/>
<path d="M0 0 C0.556875 0.185625 1.11375 0.37125 1.6875 0.5625 C4.399133 1.07551165 6.34371039 0.6640724 9 0 C9 1.65 9 3.3 9 5 C7.02 5.33 5.04 5.66 3 6 C5.97 6.495 5.97 6.495 9 7 C9 8.65 9 10.3 9 12 C5.7 12 2.4 12 -1 12 C-2.1875 9.375 -2.1875 9.375 -3 6 C-1.625 2.625 -1.625 2.625 0 0 Z " fill="#757575" transform="translate(31,17)"/>
<path d="M0 0 C3.63 0 7.26 0 11 0 C10.34 1.65 9.68 3.3 9 5 C7.02 5 5.04 5 3 5 C3 5.66 3 6.32 3 7 C4.32 6.67 5.64 6.34 7 6 C6.34 7.98 5.68 9.96 5 12 C4.21625 11.979375 3.4325 11.95875 2.625 11.9375 C0.01885039 11.81315937 0.01885039 11.81315937 -2 13 C-2 11.02 -2 9.04 -2 7 C-3.32 6.67 -4.64 6.34 -6 6 C-4.35 5.67 -2.7 5.34 -1 5 C-0.67 3.35 -0.34 1.7 0 0 Z " fill="#5E5E5E" transform="translate(13,17)"/>
<path d="M0 0 C0.66 0 1.32 0 2 0 C2 0.66 2 1.32 2 2 C2.66 2.33 3.32 2.66 4 3 C3.34 5.31 2.68 7.62 2 10 C2.66 10.33 3.32 10.66 4 11 C1.03 15.455 1.03 15.455 -2 20 C-2.33 19.01 -2.66 18.02 -3 17 C-2.67 16.34 -2.34 15.68 -2 15 C-2.66 14.67 -3.32 14.34 -4 14 C-4.33 13.67 -4.66 13.34 -5 13 C-5.99 12.67 -6.98 12.34 -8 12 C-6.47793991 9.37098712 -5.15634036 7.15634036 -3 5 C-2.505 4.13375 -2.01 3.2675 -1.5 2.375 C-1.005 1.59125 -0.51 0.8075 0 0 Z " fill="#7D7D7D" transform="translate(27,16)"/>
<path d="M0 0 C0.66 0.99 1.32 1.98 2 3 C1.01 3 0.02 3 -1 3 C-1.59070014 4.94603274 -1.59070014 4.94603274 -2 7 C-0.8509288 8.2981424 -0.8509288 8.2981424 2 9 C0.35 11.31 -1.3 13.62 -3 16 C-3.33 15.01 -3.66 14.02 -4 13 C-3.67 12.34 -3.34 11.68 -3 11 C-5.97 13.475 -5.97 13.475 -9 16 C-8.67 14.68 -8.34 13.36 -8 12 C-8.99 11.67 -9.98 11.34 -11 11 C-11 8.69 -11 6.38 -11 4 C-10.67 4 -10.34 4 -10 4 C-10 5.65 -10 7.3 -10 9 C-8.35 9 -6.7 9 -5 9 C-4.34 7.02 -3.68 5.04 -3 3 C-4.32 3.33 -5.64 3.66 -7 4 C-7 3.34 -7 2.68 -7 2 C-4.69 1.34 -2.38 0.68 0 0 Z " fill="#0E0E0E" transform="translate(23,20)"/>
<path d="M0 0 C0.66 0.33 1.32 0.66 2 1 C1.67 1.99 1.34 2.98 1 4 C0.34 4 -0.32 4 -1 4 C-1.66 5.98 -2.32 7.96 -3 10 C-3.66 9.34 -4.32 8.68 -5 8 C-4.67 7.34 -4.34 6.68 -4 6 C-7.63 6 -11.26 6 -15 6 C-15 7.65 -15 9.3 -15 11 C-19.50353262 12.75747614 -23.17639811 13.19294408 -28 13 C-28 12.34 -28 11.68 -28 11 C-24.37 11 -20.74 11 -17 11 C-17.020625 10.030625 -17.04125 9.06125 -17.0625 8.0625 C-17 5 -17 5 -16 4 C-13.64686445 3.92728259 -11.29166332 3.91629132 -8.9375 3.9375 C-7.64714844 3.94652344 -6.35679688 3.95554687 -5.02734375 3.96484375 C-4.02832031 3.97644531 -3.02929688 3.98804688 -2 4 C-1.34 2.68 -0.68 1.36 0 0 Z " fill="#1D1D1D" transform="translate(28,11)"/>
<path d="M0 0 C2.64 0 5.28 0 8 0 C8 1.65 8 3.3 8 5 C4.7 5 1.4 5 -2 5 C-1.34 3.35 -0.68 1.7 0 0 Z " fill="#FFFFFF" transform="translate(32,24)"/>
<path d="M0 0 C3.3 0 6.6 0 10 0 C9.34 1.65 8.68 3.3 8 5 C5.36 5 2.72 5 0 5 C0 3.35 0 1.7 0 0 Z " fill="#F6F6F6" transform="translate(14,17)"/>
<path d="M0 0 C0.66 0 1.32 0 2 0 C2 0.66 2 1.32 2 2 C2.66 2.33 3.32 2.66 4 3 C2.02 5.97 0.04 8.94 -2 12 C-2.33 11.01 -2.66 10.02 -3 9 C-2.67 8.34 -2.34 7.68 -2 7 C-2.66 6.67 -3.32 6.34 -4 6 C-3.34 6 -2.68 6 -2 6 C-1.7834375 5.071875 -1.7834375 5.071875 -1.5625 4.125 C-1 2 -1 2 0 0 Z " fill="#636363" transform="translate(27,24)"/>
<path d="M0 0 C1.32 0 2.64 0 4 0 C4 1.65 4 3.3 4 5 C2.02 5 0.04 5 -2 5 C-1.125 1.125 -1.125 1.125 0 0 Z " fill="#F5F5F5" transform="translate(36,17)"/>
<path d="M0 0 C-0.66 1.98 -1.32 3.96 -2 6 C-3.32 6 -4.64 6 -6 6 C-6 4.35 -6 2.7 -6 1 C-3.92446352 0.4465236 -2.15634036 0 0 0 Z " fill="#F0F0F0" transform="translate(20,23)"/>
<path d="M0 0 C0.33 0 0.66 0 1 0 C1.82622671 5.60563042 2.06795656 10.42289352 1 16 C0.67 16 0.34 16 0 16 C0 13.69 0 11.38 0 9 C-0.99 8.67 -1.98 8.34 -3 8 C-2.34 7.67 -1.68 7.34 -1 7 C-0.59270772 4.67843403 -0.25561323 2.3431213 0 0 Z " fill="#5C5C5C" transform="translate(41,15)"/>
<path d="M0 0 C0.99 0.33 1.98 0.66 3 1 C0.525 4.465 0.525 4.465 -2 8 C-2.33 7.01 -2.66 6.02 -3 5 C-1.5625 2.3125 -1.5625 2.3125 0 0 Z " fill="#060606" transform="translate(22,28)"/>
</svg>
