<svg width="129" height="128" viewBox="0 0 129 128" fill="none" xmlns="http://www.w3.org/2000/svg">
<path d="M114.778 68.0576H128.532" stroke="white" stroke-width="2.62222" stroke-linejoin="bevel"/>
<path d="M103.037 80.7938L90.3816 71.3714" stroke="white" stroke-width="1.9037" stroke-linejoin="bevel"/>
<path d="M95.8808 68.929L108.537 78.3514" stroke="white" stroke-width="1.9037" stroke-linejoin="bevel"/>
<path d="M114.036 75.9091L101.38 66.4866" stroke="white" stroke-width="1.9037" stroke-linejoin="bevel"/>
<path d="M83.8306 68.0576H28.8129" stroke="white" stroke-width="2.62222" stroke-linejoin="bevel"/>
<path d="M17.0728 80.7938L4.41686 71.3714" stroke="white" stroke-width="1.9037" stroke-linejoin="bevel"/>
<path d="M9.91575 68.929L22.5715 78.3514" stroke="white" stroke-width="1.9037" stroke-linejoin="bevel"/>
<path d="M28.0708 75.9091L15.415 66.4866" stroke="white" stroke-width="1.9037" stroke-linejoin="bevel"/>
<path d="M35.6901 57.7472H76.9531V78.3679H35.6901V57.7472Z" stroke="white" stroke-width="2.62222" stroke-linejoin="bevel"/>
<path d="M59.7603 50.8736L39.1289 85.2412" stroke="white" stroke-width="1.9037" stroke-linejoin="bevel"/>
<path d="M52.8832 85.2412L73.5149 50.8736" stroke="white" stroke-width="1.9037" stroke-linejoin="bevel"/>
<path d="M28.8129 61.1837V44.0001H83.8306V61.1837" stroke="white" stroke-width="1.9037" stroke-linejoin="bevel"/>
<path d="M66.6375 50.8736L46.0058 85.2412" stroke="white" stroke-width="1.9037" stroke-linejoin="bevel"/>
<path d="M28.8127 68.0577L0.532117 80.6187" stroke="white" stroke-width="2.62222" stroke-linejoin="bevel"/>
<path d="M86.4972 80.6187L114.778 68.0577" stroke="white" stroke-width="2.62222" stroke-linejoin="bevel"/>
<path d="M11.6199 94.1771V87.3037" stroke="white" stroke-width="1.9037" stroke-linejoin="bevel"/>
<path d="M11.6199 80.4298V75.6942" stroke="white" stroke-width="1.9037" stroke-linejoin="bevel"/>
<path d="M11.6198 92.1151H16.4338" stroke="white" stroke-width="1.9037" stroke-linejoin="bevel"/>
<path d="M23.3114 92.1151H30.1885" stroke="white" stroke-width="1.9037" stroke-linejoin="bevel"/>
<path d="M37.0656 92.1151H43.9426" stroke="white" stroke-width="1.9037" stroke-linejoin="bevel"/>
<path d="M50.8199 92.1151H57.6973" stroke="white" stroke-width="1.9037" stroke-linejoin="bevel"/>
<path d="M64.5744 92.1151H71.4517" stroke="white" stroke-width="1.9037" stroke-linejoin="bevel"/>
<path d="M78.3287 92.1151H85.2061" stroke="white" stroke-width="1.9037" stroke-linejoin="bevel"/>
<path d="M92.0833 92.1151H97.585V87.3036" stroke="white" stroke-width="1.9037" stroke-linejoin="bevel"/>
<path d="M97.585 80.4298V75.6942" stroke="white" stroke-width="1.9037" stroke-linejoin="bevel"/>
</svg>
