<svg width="128" height="128" viewBox="0 0 128 128" fill="none" xmlns="http://www.w3.org/2000/svg">
<path d="M45.7144 68.3221H3.36314e-05" stroke="white" stroke-width="2.62222" stroke-linejoin="bevel"/>
<path d="M88.381 68.3221H128" stroke="white" stroke-width="2.62222" stroke-linejoin="bevel"/>
<path d="M45.7144 68.3221V47.0001" stroke="white" stroke-width="2.62222" stroke-linejoin="bevel"/>
<path d="M40.3807 47.0001L88.3809 68.3221" stroke="white" stroke-width="2.62222" stroke-linejoin="bevel"/>
<path d="M82.8494 59.1989L71.6326 67.5496" stroke="white" stroke-width="1.9037" stroke-linejoin="bevel"/>
<path fill-rule="evenodd" clip-rule="evenodd" d="M52.9134 52.5665L54.5845 53.3086L50.8717 61.6593L49.2006 60.9172L52.9134 52.5665Z" fill="white"/>
<path fill-rule="evenodd" clip-rule="evenodd" d="M54.5845 53.3086L56.2556 54.0509L52.5428 62.4016L50.8717 61.6593L54.5845 53.3086Z" fill="white"/>
<path fill-rule="evenodd" clip-rule="evenodd" d="M56.2555 54.0508L57.9263 54.7929L54.2134 63.1436L52.5427 62.4015L56.2555 54.0508Z" fill="white"/>
<path fill-rule="evenodd" clip-rule="evenodd" d="M57.9263 54.7929L59.5974 55.535L55.8845 63.8859L54.2134 63.1436L57.9263 54.7929Z" fill="white"/>
<path fill-rule="evenodd" clip-rule="evenodd" d="M59.5974 55.535L61.2686 56.2772L57.5557 64.6279L55.8846 63.8858L59.5974 55.535Z" fill="white"/>
</svg>
