<svg width="128" height="128" viewBox="0 0 128 128" fill="none" xmlns="http://www.w3.org/2000/svg">
<path d="M45.7144 68.3221H3.36314e-05" stroke="white" stroke-width="2.62222" stroke-linejoin="bevel"/>
<path d="M88.381 68.3221H128" stroke="white" stroke-width="2.62222" stroke-linejoin="bevel"/>
<path d="M45.7144 68.3221V47.0001" stroke="white" stroke-width="2.62222" stroke-linejoin="bevel"/>
<path d="M40.3807 47.0001L88.3809 68.3221" stroke="white" stroke-width="2.62222" stroke-linejoin="bevel"/>
<path d="M87.7231 61.3637L76.5064 69.7144" stroke="white" stroke-width="1.9037" stroke-linejoin="bevel"/>
<path d="M71.6326 67.5497L82.8494 59.199" stroke="white" stroke-width="1.9037" stroke-linejoin="bevel"/>
<path d="M77.9756 57.0341L66.7587 65.3848" stroke="white" stroke-width="1.9037" stroke-linejoin="bevel"/>
<path fill-rule="evenodd" clip-rule="evenodd" d="M52.9134 52.5666L54.5845 53.3089L50.8717 61.6592L49.2006 60.9171L52.9134 52.5666Z" fill="white"/>
<path fill-rule="evenodd" clip-rule="evenodd" d="M54.5845 53.3089L56.2556 54.051L52.5428 62.4015L50.8717 61.6592L54.5845 53.3089Z" fill="white"/>
<path fill-rule="evenodd" clip-rule="evenodd" d="M56.2555 54.0511L57.9263 54.7934L54.2134 63.1437L52.5427 62.4016L56.2555 54.0511Z" fill="white"/>
<path fill-rule="evenodd" clip-rule="evenodd" d="M57.9263 54.7934L59.5974 55.5355L55.8845 63.886L54.2134 63.1437L57.9263 54.7934Z" fill="white"/>
<path fill-rule="evenodd" clip-rule="evenodd" d="M59.5974 55.5355L61.2686 56.2777L57.5557 64.6281L55.8846 63.886L59.5974 55.5355Z" fill="white"/>
</svg>
