<svg width="128" height="128" viewBox="0 0 128 128" fill="none" xmlns="http://www.w3.org/2000/svg">
<path d="M45.7144 68.3221H3.36314e-05" stroke="white" stroke-width="2.62222" stroke-linejoin="bevel"/>
<path d="M88.381 68.3221H128" stroke="white" stroke-width="2.62222" stroke-linejoin="bevel"/>
<path d="M45.7144 68.3221V47.0001" stroke="white" stroke-width="2.62222" stroke-linejoin="bevel"/>
<path d="M40.3807 47.0001L88.3809 68.3221" stroke="white" stroke-width="2.62222" stroke-linejoin="bevel"/>
<path d="M82.8494 59.199L71.6326 67.5497" stroke="white" stroke-width="1.9037" stroke-linejoin="bevel"/>
<path d="M45.7143 101.828H82.2856V83.5519H45.7143V101.828Z" stroke="white" stroke-width="1.9037" stroke-linejoin="bevel"/>
<path d="M50.9455 98.2567L54.2119 86.0727" stroke="white" stroke-width="1.9037" stroke-linejoin="bevel"/>
<path d="M57.2266 93.446L55.92 98.3195" stroke="white" stroke-width="1.9037" stroke-linejoin="bevel"/>
<path d="M56.6668 95.5347L57.2949 94.4903L58.1782 93.7941L58.9683 93.446H60.0132" stroke="white" stroke-width="1.9037" stroke-linejoin="bevel"/>
<path d="M65.3057 94.4904L65.144 93.7942L64.1925 93.446H63.1476L62.0094 93.7942L61.4746 94.4904L61.6362 95.1866L62.2393 95.5347L63.8876 95.8828L64.4908 96.2308L64.6526 96.927L64.559 97.2751L64.0242 97.9713L62.886 98.3195H61.8411L60.8896 97.9713L60.7279 97.2751" stroke="white" stroke-width="1.9037" stroke-linejoin="bevel"/>
<path d="M70.5486 98.3195L72.5085 91.0092" stroke="white" stroke-width="1.9037" stroke-linejoin="bevel"/>
<path d="M71.5752 94.4904L71.0653 93.7942L70.4621 93.446H69.417L68.6273 93.7942L67.7441 94.4904L67.1157 95.5347L66.929 96.2308L66.9975 97.2751L67.5072 97.9713L68.1106 98.3195H69.1555L69.9453 97.9713L70.8286 97.2751" stroke="white" stroke-width="1.9037" stroke-linejoin="bevel"/>
<path d="M74.6667 92.0536L79.3994 95.1866L72.9867 98.3195" stroke="white" stroke-width="1.9037" stroke-linejoin="bevel"/>
<path d="M64 80.506V83.5521" stroke="white" stroke-width="1.9037" stroke-linejoin="bevel"/>
<path d="M64 74.4141V68.3221" stroke="white" stroke-width="1.9037" stroke-linejoin="bevel"/>
<path d="M64 62.23V57.4918" stroke="white" stroke-width="1.9037" stroke-linejoin="bevel"/>
</svg>
